<svg xmlns="http://www.w3.org/2000/svg" xmlns:xlink="http://www.w3.org/1999/xlink" width="58.55" height="58.55" viewBox="0 0 58.55 58.55">
  <defs>
    <clipPath id="clip-path">
      <rect id="Rectangle_1791" data-name="Rectangle 1791" width="58.05" height="58.05" transform="translate(0 0)" fill="none" stroke="rgba(0,0,0,0)" stroke-width="1"/>
    </clipPath>
  </defs>
  <g id="Groupe_913" data-name="Groupe 913" transform="translate(-7.365 -7.535)">
    <g id="illu_neige" transform="translate(7.615 7.785)">
      <path id="Tracé_325" data-name="Tracé 325" d="M26.41.25V21.177H21.177v5.232H.251V31.64H21.177v5.233H26.41V57.8h5.232V36.873h5.231v5.218H42.1V36.859H36.873V31.64H57.8V26.409H36.873V21.177H31.642V.25Z" fill="#fff" stroke="rgba(0,0,0,0)" stroke-width="1"/>
      <g id="Groupe_728" data-name="Groupe 728">
        <g id="Groupe_727" data-name="Groupe 727" clip-path="url(#clip-path)">
          <path id="Tracé_326" data-name="Tracé 326" d="M52.568,26.409h-15.7V21.177H31.641V.25H26.409V21.177H21.177v5.232H.25v5.232H21.177v5.232h5.232V57.8h5.232V36.873h5.231v5.218H42.1V36.859H36.872V31.641H57.8V26.409Z" fill="none" stroke="#161615" stroke-miterlimit="10" stroke-width="0.5"/>
        </g>
      </g>
      <rect id="Rectangle_1792" data-name="Rectangle 1792" width="5.232" height="5.232" transform="translate(36.873 15.945)" fill="#fff" stroke="rgba(0,0,0,0)" stroke-width="1"/>
      <rect id="Rectangle_1793" data-name="Rectangle 1793" width="5.232" height="5.232" transform="translate(36.873 15.945)" fill="none" stroke="#161615" stroke-miterlimit="10" stroke-width="0.5"/>
      <rect id="Rectangle_1794" data-name="Rectangle 1794" width="5.232" height="5.232" transform="translate(42.105 10.713)" fill="#fff" stroke="rgba(0,0,0,0)" stroke-width="1"/>
      <rect id="Rectangle_1795" data-name="Rectangle 1795" width="5.232" height="5.232" transform="translate(42.105 10.713)" fill="none" stroke="#161615" stroke-miterlimit="10" stroke-width="0.5"/>
      <rect id="Rectangle_1796" data-name="Rectangle 1796" width="5.232" height="5.232" transform="translate(47.336 5.482)" fill="#fff" stroke="rgba(0,0,0,0)" stroke-width="1"/>
      <rect id="Rectangle_1797" data-name="Rectangle 1797" width="5.232" height="5.232" transform="translate(47.336 5.482)" fill="none" stroke="#161615" stroke-miterlimit="10" stroke-width="0.5"/>
      <rect id="Rectangle_1798" data-name="Rectangle 1798" width="5.232" height="5.232" transform="translate(5.482 47.336)" fill="#fff" stroke="rgba(0,0,0,0)" stroke-width="1"/>
      <rect id="Rectangle_1799" data-name="Rectangle 1799" width="5.232" height="5.232" transform="translate(5.482 47.336)" fill="none" stroke="#161615" stroke-miterlimit="10" stroke-width="0.5"/>
      <rect id="Rectangle_1800" data-name="Rectangle 1800" width="5.232" height="5.232" transform="translate(10.714 42.104)" fill="#fff" stroke="rgba(0,0,0,0)" stroke-width="1"/>
      <rect id="Rectangle_1801" data-name="Rectangle 1801" width="5.232" height="5.232" transform="translate(10.714 42.104)" fill="none" stroke="#161615" stroke-miterlimit="10" stroke-width="0.5"/>
      <rect id="Rectangle_1802" data-name="Rectangle 1802" width="5.232" height="5.232" transform="translate(15.946 36.872)" fill="#fff" stroke="rgba(0,0,0,0)" stroke-width="1"/>
      <rect id="Rectangle_1803" data-name="Rectangle 1803" width="5.232" height="5.232" transform="translate(15.946 36.872)" fill="none" stroke="#161615" stroke-miterlimit="10" stroke-width="0.5"/>
      <rect id="Rectangle_1804" data-name="Rectangle 1804" width="5.232" height="5.232" transform="translate(5.482 5.482)" fill="#fff" stroke="rgba(0,0,0,0)" stroke-width="1"/>
      <rect id="Rectangle_1805" data-name="Rectangle 1805" width="5.232" height="5.232" transform="translate(5.482 5.482)" fill="none" stroke="#161615" stroke-miterlimit="10" stroke-width="0.5"/>
      <rect id="Rectangle_1806" data-name="Rectangle 1806" width="5.232" height="5.232" transform="translate(10.714 10.713)" fill="#fff" stroke="rgba(0,0,0,0)" stroke-width="1"/>
      <rect id="Rectangle_1807" data-name="Rectangle 1807" width="5.232" height="5.232" transform="translate(10.714 10.713)" fill="none" stroke="#161615" stroke-miterlimit="10" stroke-width="0.5"/>
      <rect id="Rectangle_1808" data-name="Rectangle 1808" width="5.232" height="5.232" transform="translate(15.946 15.945)" fill="#fff" stroke="rgba(0,0,0,0)" stroke-width="1"/>
      <rect id="Rectangle_1809" data-name="Rectangle 1809" width="5.232" height="5.232" transform="translate(15.946 15.945)" fill="none" stroke="#161615" stroke-miterlimit="10" stroke-width="0.5"/>
      <rect id="Rectangle_1810" data-name="Rectangle 1810" width="5.232" height="5.232" transform="translate(42.105 42.091)" fill="#fff" stroke="rgba(0,0,0,0)" stroke-width="1"/>
      <rect id="Rectangle_1811" data-name="Rectangle 1811" width="5.232" height="5.232" transform="translate(42.105 42.091)" fill="none" stroke="#161615" stroke-miterlimit="10" stroke-width="0.5"/>
      <rect id="Rectangle_1812" data-name="Rectangle 1812" width="5.232" height="5.232" transform="translate(47.336 47.323)" fill="#fff" stroke="rgba(0,0,0,0)" stroke-width="1"/>
      <rect id="Rectangle_1813" data-name="Rectangle 1813" width="5.232" height="5.232" transform="translate(47.336 47.323)" fill="none" stroke="#161615" stroke-miterlimit="10" stroke-width="0.5"/>
    </g>
  </g>
</svg>
