<svg xmlns="http://www.w3.org/2000/svg" xmlns:xlink="http://www.w3.org/1999/xlink" width="31.838" height="47.451" viewBox="0 0 31.838 47.451">
  <defs>
    <clipPath id="clip-path">
      <rect id="Rectangle_1872" data-name="Rectangle 1872" width="31.838" height="47.451" transform="translate(0 0.001)" fill="none"/>
    </clipPath>
  </defs>
  <g id="illu_feuille" transform="translate(0 -0.001)">
    <path id="Tracé_400" data-name="Tracé 400" d="M10.951.284l.032,3.136.009.861.023,2.252-1.561.015.032,3.13L6.3,9.739l.031,3.085-3.086.031L3.275,16l.032,3.2-1.543.016L1.787,22.3l-1.534.049L.316,28.6l1.543-.016.032,3.118,1.543-.016.033,3.217,3.087-.031.017,1.613,3.187-.032-.017-1.73,3.122-.031-.032-3.1,3.136-.031L16,34.691l1.547-.015.032,3.116v.014l.031,3.117.032,3.13-1.561.016.032,3.129,3.122-.031-.032-3.13,1.561-.016-.033-3.13L20.7,37.774v-.013l-.032-3.117-1.547.016-.032-3.131L22.2,31.5l.031,3.043,7.794-.079-.03-3.043,1.594-.017-.032-3.116-.128-12.572-2.932.029L28.461,12.6l-2.62-.023-.032-3.035-2.136.022-.032-3.136-.246,0V6.407l-4.574.047L18.787,3.34V3.323l-3.121.032v.017l-1.561.016L14.073.253Z" fill="#fff"/>
    <g id="Groupe_769" data-name="Groupe 769">
      <g id="Groupe_768" data-name="Groupe 768" clip-path="url(#clip-path)">
        <path id="Tracé_401" data-name="Tracé 401" d="M28.493,15.744,28.461,12.6l-2.621-.022-.031-3.035-2.136.021-.032-3.135-.246,0V6.407l-4.576.047-.031-3.113V3.324l-3.122.031v.018l-1.561.015L14.073.253,10.951.284l.032,3.136.009.862.023,2.251-1.561.016.032,3.13L6.3,9.74l.032,3.084-3.087.032L3.275,16l.032,3.2-1.543.015L1.787,22.3l-1.535.048L.316,28.6l1.543-.016L1.891,31.7l1.543-.016.033,3.218,3.087-.032.016,1.613,3.188-.032-.017-1.73,3.122-.031-.032-3.1,3.135-.032L16,34.692l1.548-.016.031,3.117v.013l.032,3.117.032,3.13-1.561.016.032,3.13,3.122-.032-.032-3.13,1.561-.016-.032-3.13L20.7,37.774v-.013l-.032-3.117-1.547.016-.032-3.13L22.2,31.5l.031,3.043,7.794-.079-.031-3.043,1.595-.016-.032-3.117-.128-12.572Z" fill="none" stroke="#161615" stroke-miterlimit="10" stroke-width="0.5"/>
      </g>
    </g>
    <path id="Tracé_402" data-name="Tracé 402" d="M16.008,9.606l.128,12.543,1.893-.019.064,6.257" fill="#fff"/>
    <path id="Tracé_403" data-name="Tracé 403" d="M16.008,9.606l.128,12.543,1.893-.019.064,6.257" fill="none" stroke="#161615" stroke-miterlimit="10" stroke-width="0.5"/>
    <path id="Tracé_404" data-name="Tracé 404" d="M15.967,31.562l3.121-.032Z" fill="#fff"/>
    <line id="Ligne_119" data-name="Ligne 119" y1="0.032" x2="3.122" transform="translate(15.967 31.53)" fill="none" stroke="#161615" stroke-miterlimit="10" stroke-width="0.5"/>
  </g>
</svg>
