<svg xmlns="http://www.w3.org/2000/svg" xmlns:xlink="http://www.w3.org/1999/xlink" width="49.617" height="56.301" viewBox="0 0 49.617 56.301">
  <defs>
    <clipPath id="clip-path">
      <rect id="Rectangle_1897" data-name="Rectangle 1897" width="49.617" height="56.301" transform="translate(0 0)" fill="none"/>
    </clipPath>
  </defs>
  <g id="Groupe_911" data-name="Groupe 911" transform="translate(-13.231 -8.66)">
    <g id="_illu_betterave" data-name=" illu_betterave" transform="translate(13.231 8.66)">
      <path id="Tracé_430" data-name="Tracé 430" d="M18.194,26.5v1.714H11.661V29.78H8.487v3.29H6.772v9.854H9.9v3.283h5.022v3.309H21.54l.021,3.253h-3.3l.014,3.282,6.555,0-.01-6.586h6.548v-4.9h3.178V41.392H37.9V33.07H34.843V29.78H31.368V27.974H24.792V26.5Z" fill="#fff"/>
      <g id="Groupe_802" data-name="Groupe 802">
        <g id="Groupe_801" data-name="Groupe 801" clip-path="url(#clip-path)">
          <path id="Tracé_431" data-name="Tracé 431" d="M6.772,33.07v9.854H9.9v3.283h5.022v3.309h6.617l.021,3.253h-3.3l.014,3.282,6.555,0-.01-6.586h6.549v-4.9h3.178V41.392H37.9V33.07H34.843V29.78H31.368V27.974H24.792V26.5h-6.6v1.713H11.662V29.78H8.486v3.29Z" fill="none" stroke="#161615" stroke-miterlimit="10" stroke-width="0.5"/>
        </g>
      </g>
      <rect id="Rectangle_1898" data-name="Rectangle 1898" width="2.224" height="2.23" transform="translate(27.506 29.78)" fill="#fff"/>
      <rect id="Rectangle_1899" data-name="Rectangle 1899" width="2.224" height="2.23" transform="translate(27.506 29.78)" fill="none" stroke="#161615" stroke-miterlimit="10" stroke-width="0.5"/>
      <rect id="Rectangle_1900" data-name="Rectangle 1900" width="2.224" height="2.23" transform="translate(29.719 32.011)" fill="#fff"/>
      <rect id="Rectangle_1901" data-name="Rectangle 1901" width="2.224" height="2.23" transform="translate(29.719 32.011)" fill="none" stroke="#161615" stroke-miterlimit="10" stroke-width="0.5"/>
      <path id="Tracé_432" data-name="Tracé 432" d="M3.514,8.51v1.639H.25V16.7H3.519v3.285h6.523v3.3H13.4V25.05h3.243v3.166h1.611V26.48H19.9V13.365H16.649V10.152H13.373V8.51Z" fill="#fff"/>
      <g id="Groupe_804" data-name="Groupe 804">
        <g id="Groupe_803" data-name="Groupe 803" clip-path="url(#clip-path)">
          <path id="Tracé_433" data-name="Tracé 433" d="M19.9,26.481V13.365H16.65V10.152H13.374V8.51H3.515v1.639H.25V16.7H3.521v3.284h6.522v3.3H13.4V25.05h3.244v3.166h1.61V26.481Z" fill="none" stroke="#161615" stroke-miterlimit="10" stroke-width="0.5"/>
        </g>
      </g>
      <path id="Tracé_434" data-name="Tracé 434" d="M15.012.25v3.3H13.374v6.6h3.275v3.213H19.9V26.48l4.913.023V14.844h1.638V11.56h3.259V3.534H28.092V.25Z" fill="#fff"/>
      <g id="Groupe_806" data-name="Groupe 806">
        <g id="Groupe_805" data-name="Groupe 805" clip-path="url(#clip-path)">
          <path id="Tracé_435" data-name="Tracé 435" d="M19.9,26.481V13.365H16.65V10.152H13.374v-6.6h1.638V.25h13.08V3.534h1.621v8.027H26.454v3.284H24.816V26.5Z" fill="none" stroke="#161615" stroke-miterlimit="10" stroke-width="0.5"/>
        </g>
      </g>
      <path id="Tracé_436" data-name="Tracé 436" d="M32.989,6.8V8.264H29.713v3.3H26.454v3.284H24.816V27.97h3.273V24.7h3.262V23.22h3.276V19.945H37.9V16.66h9.827V13.373h1.638V10.089H46.091V8.276H42.815V6.8Z" fill="#fff"/>
      <g id="Groupe_808" data-name="Groupe 808">
        <g id="Groupe_807" data-name="Groupe 807" clip-path="url(#clip-path)">
          <path id="Tracé_437" data-name="Tracé 437" d="M28.089,27.97V24.7h3.262V23.22h3.275V19.945H37.9V16.661h9.827V13.373h1.638V10.089H46.091V8.276H42.816V6.8H32.989V8.265H29.713V11.56H26.454v3.285H24.816V27.97Z" fill="none" stroke="#161615" stroke-miterlimit="10" stroke-width="0.5"/>
        </g>
      </g>
      <line id="Ligne_121" data-name="Ligne 121" y1="19.601" transform="translate(21.536 6.8)" fill="none" stroke="#161615" stroke-miterlimit="10" stroke-width="0.5"/>
      <path id="Tracé_438" data-name="Tracé 438" d="M3.464,13.377h6.76L18.238,23.2v3.3" fill="none" stroke="#161615" stroke-miterlimit="10" stroke-width="0.5"/>
      <path id="Tracé_439" data-name="Tracé 439" d="M42.556,13.314H33.067l-6.678,9.952V27.92" fill="none" stroke="#161615" stroke-miterlimit="10" stroke-width="0.5"/>
    </g>
  </g>
</svg>
