<svg xmlns="http://www.w3.org/2000/svg" xmlns:xlink="http://www.w3.org/1999/xlink" width="33.07" height="36.784" viewBox="0 0 33.07 36.784">
  <defs>
    <clipPath id="clip-path">
      <rect id="Rectangle_1908" data-name="Rectangle 1908" width="33.07" height="36.784" transform="translate(0 0)" fill="none"/>
    </clipPath>
  </defs>
  <g id="illu_fruitsrouges" transform="translate(0 0)">
    <path id="Tracé_449" data-name="Tracé 449" d="M21.972,3.874H11.142V5.7H7.475V9.4H3.829v5.371h-1.8v7.242H.251V34.719H2.034v1.815h9.108V34.653H14.73V32.9h3.588V31.134h5.417V27.456H29.22V22.029h1.863V14.771h-1.84V9.325l-.012-3.586-3.67.011.052-1.876Z" fill="#fff"/>
    <g id="Groupe_818" data-name="Groupe 818">
      <g id="Groupe_817" data-name="Groupe 817" clip-path="url(#clip-path)">
        <path id="Tracé_450" data-name="Tracé 450" d="M21.972,3.874H11.142V5.7H7.475V9.4H3.828v5.371H2.035v7.241H.25V34.719H2.035v1.815h9.107V34.653H14.73V32.9h3.588V31.134h5.417V27.455H29.22V22.028h1.862V14.771H29.243V9.325l-.011-3.586-3.671.012.051-1.877Z" fill="none" stroke="#161615" stroke-miterlimit="10" stroke-width="0.5"/>
      </g>
    </g>
    <path id="Tracé_451" data-name="Tracé 451" d="M18.291,3.759,18.276,7.5l7.315.007v5.264h3.64V3.752Z" fill="#fff"/>
    <path id="Tracé_452" data-name="Tracé 452" d="M18.291,3.759,18.276,7.5l7.315.007v5.264h3.64V3.752Z" fill="none" stroke="#161615" stroke-miterlimit="10" stroke-width="0.5"/>
    <path id="Tracé_453" data-name="Tracé 453" d="M29.243,9.319v5.447H32.82V5.754l-3.589-.009ZM14.661.25V3.869H25.612L25.537.25Zm14.582,0L25.612,3.869V5.745h3.619l.015-1.876H32.82V.25Z" fill="#fff"/>
    <g id="Groupe_820" data-name="Groupe 820">
      <g id="Groupe_819" data-name="Groupe 819" clip-path="url(#clip-path)">
        <path id="Tracé_454" data-name="Tracé 454" d="M14.661,3.869V.25H25.536l.076,3.619L29.243.25h3.576V3.869H29.245l-.014,1.877,3.588.009v9.011H29.243V9.32l-.012-3.574H25.612V3.869H14.661Z" fill="none" stroke="#161615" stroke-miterlimit="10" stroke-width="0.5"/>
      </g>
    </g>
    <rect id="Rectangle_1910" data-name="Rectangle 1910" width="1.81" height="1.814" transform="translate(5.569 22.018)" fill="#fff"/>
    <rect id="Rectangle_1911" data-name="Rectangle 1911" width="1.81" height="1.814" transform="translate(5.569 22.018)" fill="none" stroke="#161615" stroke-miterlimit="10" stroke-width="0.5"/>
    <rect id="Rectangle_1912" data-name="Rectangle 1912" width="1.81" height="1.814" transform="translate(1.95 27.453)" fill="#fff"/>
    <rect id="Rectangle_1913" data-name="Rectangle 1913" width="1.81" height="1.814" transform="translate(1.95 27.453)" fill="none" stroke="#161615" stroke-miterlimit="10" stroke-width="0.5"/>
    <rect id="Rectangle_1914" data-name="Rectangle 1914" width="1.81" height="1.814" transform="translate(9.195 25.643)" fill="#fff"/>
    <rect id="Rectangle_1915" data-name="Rectangle 1915" width="1.81" height="1.814" transform="translate(9.195 25.643)" fill="none" stroke="#161615" stroke-miterlimit="10" stroke-width="0.5"/>
    <rect id="Rectangle_1916" data-name="Rectangle 1916" width="1.81" height="1.814" transform="translate(7.402 31.068)" fill="#fff"/>
    <rect id="Rectangle_1917" data-name="Rectangle 1917" width="1.81" height="1.814" transform="translate(7.402 31.068)" fill="none" stroke="#161615" stroke-miterlimit="10" stroke-width="0.5"/>
    <rect id="Rectangle_1918" data-name="Rectangle 1918" width="1.81" height="1.814" transform="translate(14.648 27.453)" fill="#fff"/>
    <rect id="Rectangle_1919" data-name="Rectangle 1919" width="1.81" height="1.814" transform="translate(14.648 27.453)" fill="none" stroke="#161615" stroke-miterlimit="10" stroke-width="0.5"/>
    <rect id="Rectangle_1920" data-name="Rectangle 1920" width="1.81" height="1.814" transform="translate(7.402 14.66)" fill="#fff"/>
    <rect id="Rectangle_1921" data-name="Rectangle 1921" width="1.81" height="1.814" transform="translate(7.402 14.66)" fill="none" stroke="#161615" stroke-miterlimit="10" stroke-width="0.5"/>
    <rect id="Rectangle_1922" data-name="Rectangle 1922" width="1.81" height="1.814" transform="translate(20.092 16.572)" fill="#fff"/>
    <rect id="Rectangle_1923" data-name="Rectangle 1923" width="1.81" height="1.814" transform="translate(20.092 16.572)" fill="none" stroke="#161615" stroke-miterlimit="10" stroke-width="0.5"/>
    <rect id="Rectangle_1924" data-name="Rectangle 1924" width="1.81" height="1.814" transform="translate(12.839 20.196)" fill="#fff"/>
    <rect id="Rectangle_1925" data-name="Rectangle 1925" width="1.81" height="1.814" transform="translate(12.839 20.196)" fill="none" stroke="#161615" stroke-miterlimit="10" stroke-width="0.5"/>
    <rect id="Rectangle_1926" data-name="Rectangle 1926" width="1.81" height="1.814" transform="translate(18.275 23.828)" fill="#fff"/>
    <rect id="Rectangle_1927" data-name="Rectangle 1927" width="1.81" height="1.814" transform="translate(18.275 23.828)" fill="none" stroke="#161615" stroke-miterlimit="10" stroke-width="0.5"/>
    <rect id="Rectangle_1928" data-name="Rectangle 1928" width="1.81" height="1.814" transform="translate(23.74 22.018)" fill="#fff"/>
    <rect id="Rectangle_1929" data-name="Rectangle 1929" width="1.81" height="1.814" transform="translate(23.74 22.018)" fill="none" stroke="#161615" stroke-miterlimit="10" stroke-width="0.5"/>
    <rect id="Rectangle_1930" data-name="Rectangle 1930" width="1.81" height="1.814" transform="translate(14.648 12.948)" fill="#fff"/>
    <rect id="Rectangle_1931" data-name="Rectangle 1931" width="1.81" height="1.814" transform="translate(14.648 12.948)" fill="none" stroke="#161615" stroke-miterlimit="10" stroke-width="0.5"/>
    <rect id="Rectangle_1932" data-name="Rectangle 1932" width="1.81" height="1.814" transform="translate(11.025 9.321)" fill="#fff"/>
    <rect id="Rectangle_1933" data-name="Rectangle 1933" width="1.81" height="1.814" transform="translate(11.025 9.321)" fill="none" stroke="#161615" stroke-miterlimit="10" stroke-width="0.5"/>
    <rect id="Rectangle_1934" data-name="Rectangle 1934" width="1.81" height="1.814" transform="translate(18.275 9.317)" fill="#fff"/>
    <rect id="Rectangle_1935" data-name="Rectangle 1935" width="1.81" height="1.814" transform="translate(18.275 9.317)" fill="none" stroke="#161615" stroke-miterlimit="10" stroke-width="0.5"/>
    <rect id="Rectangle_1936" data-name="Rectangle 1936" width="1.81" height="1.814" transform="translate(25.536 16.58)" fill="#fff"/>
    <rect id="Rectangle_1937" data-name="Rectangle 1937" width="1.81" height="1.814" transform="translate(25.536 16.58)" fill="none" stroke="#161615" stroke-miterlimit="10" stroke-width="0.5"/>
  </g>
</svg>
