<svg xmlns="http://www.w3.org/2000/svg" xmlns:xlink="http://www.w3.org/1999/xlink" width="41.045" height="37.63" viewBox="0 0 41.045 37.63">
  <defs>
    <clipPath id="clip-path">
      <rect id="Rectangle_1823" data-name="Rectangle 1823" width="41.045" height="37.63" transform="translate(0 0)" fill="none"/>
    </clipPath>
  </defs>
  <g id="Groupe_916" data-name="Groupe 916" transform="translate(-16.117 -17.994)">
    <g id="illu_coquelicot" transform="translate(16.117 17.995)">
      <path id="Tracé_357" data-name="Tracé 357" d="M5.692.25V10.866H.251l.038,15.9h5.4V19.742l6.5-.056,0-12.8,19.492-.039.454,3.623,8.66,0V5.154H37.313V.25Z" fill="#fff"/>
      <g id="Groupe_739" data-name="Groupe 739">
        <g id="Groupe_738" data-name="Groupe 738" clip-path="url(#clip-path)">
          <path id="Tracé_358" data-name="Tracé 358" d="M5.692,10.867V.25H37.313v4.9h3.482v5.312l-8.66,0-.453-3.623-19.493.038,0,12.8-6.5.057v7.022H.289l-.038-15.9Z" fill="none" stroke="#161615" stroke-miterlimit="10" stroke-width="0.5"/>
        </g>
      </g>
      <path id="Tracé_359" data-name="Tracé 359" d="M32.088,16.166v15.52l-7.239-.013.06,5.707H37.334l-.042-10.615h3.5v-10.6Z" fill="#fff"/>
      <g id="Groupe_741" data-name="Groupe 741">
        <g id="Groupe_740" data-name="Groupe 740" clip-path="url(#clip-path)">
          <path id="Tracé_360" data-name="Tracé 360" d="M32.088,31.686V16.166h8.707v10.6h-3.5l.043,10.615H24.909l-.06-5.708Z" fill="none" stroke="#161615" stroke-miterlimit="10" stroke-width="0.5"/>
        </g>
      </g>
      <rect id="Rectangle_1825" data-name="Rectangle 1825" width="10.654" height="7.51" transform="translate(8.926 29.863)" fill="#fff"/>
      <g id="Groupe_743" data-name="Groupe 743">
        <g id="Groupe_742" data-name="Groupe 742" clip-path="url(#clip-path)">
          <rect id="Rectangle_1826" data-name="Rectangle 1826" width="10.653" height="7.511" transform="translate(8.927 29.863)" fill="none" stroke="#161615" stroke-miterlimit="10" stroke-width="0.5"/>
        </g>
      </g>
      <path id="Tracé_361" data-name="Tracé 361" d="M10.875,15.893l.049-9.423,21.164.044.047,3.956,5.177,0V21.122H32.088V31.744H5.7L5.65,15.834Z" fill="#fff"/>
      <path id="Tracé_362" data-name="Tracé 362" d="M10.875,15.893l.049-9.423,21.164.044.047,3.956,5.177,0V21.122H32.088V31.744H5.7L5.65,15.834Z" fill="none" stroke="#161615" stroke-miterlimit="10" stroke-width="0.5"/>
      <rect id="Rectangle_1828" data-name="Rectangle 1828" width="3.283" height="3.283" transform="translate(23.516 13.123)" fill="#040405"/>
      <rect id="Rectangle_1829" data-name="Rectangle 1829" width="3.283" height="3.283" transform="translate(23.516 13.123)" fill="none" stroke="#161615" stroke-miterlimit="10" stroke-width="0.5"/>
      <rect id="Rectangle_1830" data-name="Rectangle 1830" width="3.283" height="3.283" transform="translate(16.187 13.123)" fill="#040405"/>
      <rect id="Rectangle_1831" data-name="Rectangle 1831" width="3.283" height="3.283" transform="translate(16.187 13.123)" fill="none" stroke="#161615" stroke-miterlimit="10" stroke-width="0.5"/>
      <rect id="Rectangle_1832" data-name="Rectangle 1832" width="3.283" height="3.283" transform="translate(23.516 20.439)" fill="#040405"/>
      <rect id="Rectangle_1833" data-name="Rectangle 1833" width="3.283" height="3.283" transform="translate(23.516 20.439)" fill="none" stroke="#161615" stroke-miterlimit="10" stroke-width="0.5"/>
      <rect id="Rectangle_1834" data-name="Rectangle 1834" width="3.283" height="3.283" transform="translate(16.187 20.439)" fill="#040405"/>
      <rect id="Rectangle_1835" data-name="Rectangle 1835" width="3.283" height="3.283" transform="translate(16.187 20.439)" fill="none" stroke="#161615" stroke-miterlimit="10" stroke-width="0.5"/>
      <rect id="Rectangle_1836" data-name="Rectangle 1836" width="3.283" height="3.283" transform="translate(19.834 16.77)" fill="#fff"/>
      <rect id="Rectangle_1837" data-name="Rectangle 1837" width="3.283" height="3.283" transform="translate(19.834 16.77)" fill="none" stroke="#161615" stroke-miterlimit="10" stroke-width="0.5"/>
    </g>
  </g>
</svg>
