<svg xmlns="http://www.w3.org/2000/svg" width="73.046" height="73.378" viewBox="0 0 73.046 73.378">
  <path id="Tracé_85" data-name="Tracé 85" d="M66.7,3.735,63.931.765,60.96,4.042,57.58.765,54.969,4.042,51.64.765,48.67,3.94,45.393.765,42.935,4.247,39.759.765,36.892,3.684,34.024.765,31.259,3.684,28.186.765,25.011,3.684,22.041.765l-2.97,2.919L16.1.765,13.028,3.684,9.853.765,6.883,3.684,3.81.765.738,3.633,3.81,6.6.738,9.266,3.81,12.543.738,15.615,3.81,19.1.738,21.965,3.81,24.833.738,27.8l2.97,3.278L.738,34.05,3.81,37.071.738,39.99,3.81,42.858.738,46.032,3.708,49.1l-2.97,2.97,2.868,3.278L.738,58.425l3.277,2.56L.738,64.365,3.81,67.233.738,70.2l3.175,3.175,3.175-2.97,2.766,2.97,2.97-3.277,3.38,3.277L18.815,70.1l3.329,3.277,2.97-3.175,3.278,3.175L30.849,69.9l3.175,3.481L36.892,70.1l2.868,3.277,2.765-2.918L45.6,73.377l3.175-2.918,2.97,2.918,2.97-2.918,2.97,2.918,3.073-2.918,3.175,2.918,2.97-2.918,3.073,2.918,3.073-2.867-3.073-2.97,3.073-2.663L69.973,61.6l3.073-3.073-3.073-3.481,3.073-2.868L69.973,49.31l3.073-2.97-2.97-3.278,2.97-2.97-3.073-3.021,3.073-2.918-3.073-2.868,3.073-3.175-2.97-3.072,2.97-2.97L70.177,18.79l2.868-3.073-3.277-2.56,3.277-3.38L69.973,6.91l3.073-2.97L69.87.765Z" transform="translate(-0.369 -0.382)" fill="none" stroke="#707070" stroke-width="0.5"/>
</svg>
