<?xml version="1.0" encoding="UTF-8"?><svg xmlns="http://www.w3.org/2000/svg" viewBox="0 0 142.78 80.36"><defs><style>.e{fill:#fff;stroke:#000;stroke-miterlimit:10;}</style></defs><g id="a"/><g id="b"><g id="c"><path id="d" class="e" d="M24.37,.62c-1.31,1.52-6.58,9.72,5.11,33.66,17.63,28.77,41.91,25.43,41.91,25.43-7.11,20.28-27.14,20.15-27.14,20.15C7.56,79.86,1.48,28.53,.51,14.98c-.14-1.95,.94-3.77,2.7-4.6L24.28,.51c.07-.03,.14,.05,.09,.11Zm94.04,0c1.31,1.52,6.58,9.72-5.11,33.66-17.63,28.77-41.91,25.43-41.91,25.43,7.11,20.28,27.14,20.15,27.14,20.15,36.69,0,42.77-51.33,43.74-64.88,.14-1.95-.94-3.77-2.7-4.6L118.5,.51c-.07-.03-.14,.05-.09,.11Z"/></g></g></svg>