<?xml version="1.0" encoding="UTF-8"?><svg xmlns="http://www.w3.org/2000/svg" viewBox="0 0 121.83 53.34"><defs><style>.e{fill:#fff;stroke:#000;stroke-miterlimit:10;}</style></defs><g id="a"/><g id="b"><g id="c"><path id="d" class="e" d="M120.91,39.2c-5.34,4.02-21.06,13.64-58.95,13.64S6.88,44.12,.9,39.24c-.72-.58-.4-1.11,.4-1.69C14.53,27.98,12.76,24.02,19.73,3.28c.04-.13,.19-.19,.31-.13,1.87,1.01,15.58,7.84,43.88,7.84s37.39-6.48,39.06-7.75c.12-.09,.29-.02,.32,.13,.47,3.07,4.36,25.79,16.94,33.88,.96,.62,1.5,1.32,.66,1.95ZM103.06,3.02c-60.53-5.43-79.34-.45-82.86-.03-.12,.01-.15,.17-.04,.23,2.35,1.18,16.65,7.79,43.76,7.79s37.89-6.88,39.19-7.85c.05-.04,.02-.12-.05-.13Z"/></g></g></svg>