<?xml version="1.0" encoding="UTF-8"?><svg xmlns="http://www.w3.org/2000/svg" viewBox="0 0 278.58 434.42"><defs><style>.d{fill:#fff;stroke:#000;stroke-miterlimit:10;}</style></defs><g id="a"/><g id="b"><g id="c"><path class="d" d="M210.55,12.57v0Zm-.09-11.72c.11,4.02,.14,7.91,.09,11.67l.19-11.67h-.28Zm-146.66,.06c-.05,.51-.58,5.66-.66,13.54l.66-13.54Zm70.15,116.24s74.27,12.83,76.56-102.63c-9.27,11.59-33.32,34.37-74.53,34.37S71.96,26.24,63.14,14.48c-.29,30.11,6.05,99.9,70.81,102.67ZM210.55,12.57c0,.66-.03,1.3-.04,1.95v-.02l.04-1.93ZM63.81,.85h0V.85ZM226.97,5.05v.05l5.94,1.56-5.94-1.61ZM63.14,14.48v0h0Zm169.87,51.52c-1.28-16.38-1.48-35.93-.1-59.33,0,0-2.48,28.01,.1,59.33Zm40.97,83.86s-.39,2.74-1.03,7.33l1.03-7.33Zm-1.03,7.37v-.05c.64-4.59,1.03-7.33,1.03-7.33,0,0-34.48-.78-40.97-83.86-2.58-31.33-.1-59.33-.1-59.33l-5.94-1.56c-11.63,147.59,45.98,152.12,45.98,152.12Zm1.03-7.37c-28.23-6.87-37.98-47.59-40.97-83.86,6.49,83.08,40.97,83.86,40.97,83.86ZM210.74,.85l-.28-.11s0,.07,0,.11h.28Zm62.75,418.08c-1.88-33.33-8.64-151.7-10.23-165.28-1.53-13.04,6.74-75.03,9.7-96.47v.05s-57.62-4.53-45.99-152.12l-13.91-3.65,4.32,1.2s8.13,117.82-69.16,120.76h-21.5C45.55,117.2,57.55,2.66,57.55,2.66l6.25-1.8h0l-22.17,5.81,6.15-1.61C59.44,152.7,1.57,157.23,1.57,157.23v-.03c2.85,21.38,10.78,82.96,9.24,95.99-1.6,13.58-8,132.35-9.78,165.75M41.64,6.67C48.69,126.56,14.62,146.07,3.8,149.24c10.88-3.17,45.16-22.69,37.84-142.58Zm6.15-1.61l-6.15,1.61C48.96,126.55,14.68,146.07,3.8,149.24c-2.01,.59-3.21,.61-3.21,.61h-.01s.38,2.75,.99,7.34v.03S59.44,152.7,47.79,5.05ZM1.03,418.95c-.29,5.51-.46,8.69-.46,8.69,0,0,141.93,14.15,273.41,0,0,0-.18-3.18-.49-8.69-149.82,11.55-267.65,.46-272.45,0Zm272.65-.02h-.2c.07,0,.13,0,.2,0Zm-272.65,0v.02c4.8,.46,122.63,11.55,272.45,0h0M64.1,.85l-.03-.07-.26,.07h.29Zm-.3,.06l-.66,13.54v.03c8.82,11.76,32.25,34.41,72.83,34.41S201.24,26.11,210.51,14.52c.01-.65,.04-1.29,.04-1.95v-.05c.05-3.75,.02-7.64-.09-11.67h-.07c-1.33,2.33-24.31,41.31-74.28,41.31S65.01,2.63,64.1,.85h-.29v.06ZM210.55,12.52v.05l-.03,1.93v.02c-2.3,115.46-76.57,102.63-76.57,102.63C69.19,114.38,62.85,44.59,63.14,14.48h0v-.03c.08-7.89,.61-13.03,.66-13.54v-.06l-6.25,1.8s-12,114.55,69.16,120.76h21.5C225.51,120.47,217.38,2.66,217.38,2.66l-4.32-1.2-2.32-.61-.19,11.67Z"/></g></g></svg>