<?xml version="1.0" encoding="UTF-8"?><svg xmlns="http://www.w3.org/2000/svg" viewBox="0 0 68.61 113.19"><defs><style>.e{fill:#fff;stroke:#1d1d1b;stroke-miterlimit:10;}</style></defs><g id="a"/><g id="b"><g id="c"><path id="d" class="e" d="M42.33,93.62c-1.18-.7-2.28-1.4-3.32-2.11,1.17,.79,2.29,1.5,3.32,2.11Zm-17.21-16.2s.19,.37,.6,1.02c-.21-.33-.41-.67-.6-1.02Zm13.04,13.5h0Zm5.22,3.31c-.09-.05-.17-.1-.26-.15,.09,.05,.17,.1,.26,.15Zm8.15-1.56l12.17-12.2-4.12,4.13-6.56,6.57-1.49,1.49Zm6.26-15.43c.9,2.39,2.15,4.28,2.38,6.77,0,0-.52-2.02-2.38-6.77Zm-6.12,11.12c.49,.87,.95,1.81,1.35,2.82,0,0-.32-1.07-1.35-2.82Zm-10,13.11c-2.13,.03-6.93-.08-11.45-1.45,2.86,.93,6.61,1.56,11.45,1.45Zm-19.71-6.85s.11,.19,.37,.51c-.13-.17-.25-.33-.37-.51Zm25.76,1.88l-3.18,3.19-7.6,7.62,6.5,5.21,24.55-24.55-4.28-7.49-10.68,10.71-5.3,5.31Zm-17.5,3.52c-4.75-1.54-7.06-3.87-7.89-4.89,1.87,2.45,4.81,3.96,7.89,4.89Zm7.94-9.1c-7.35-5.2-11.09-10.36-12.44-12.48,3.22,5.21,8.09,9.44,12.44,12.48Zm4.96,3.17c-.26-.15-.52-.31-.8-.47,.26,.16,.53,.31,.8,.47Zm-30.39,9.78c14.02,11.45,22.48,4.82,22.48,4.82l7.58-7.25s-.42,.03-1.13,.04c-4.84,.11-8.59-.52-11.45-1.45-3.08-.93-6.02-2.45-7.89-4.89-.26-.32-.37-.51-.37-.51,.12,.17,.24,.34,.37,.51,.83,1.02,3.14,3.35,7.89,4.89,4.52,1.36,9.32,1.48,11.45,1.45,.37,0,.74-.02,1.13-.04l1.74-1.75,3.18-3.19s-1.76-.78-4.34-2.26c-.09-.05-.17-.1-.26-.15-.26-.15-.52-.31-.8-.47-1.18-.7-2.28-1.4-3.32-2.11-.27-.19-.55-.38-.83-.57h-.02c-4.35-3.06-9.22-7.29-12.44-12.5-.41-.65-.6-1.02-.6-1.02,.19,.34,.39,.68,.6,1.02,1.35,2.12,5.09,7.28,12.44,12.48h.02c.27,.21,.55,.4,.83,.59,1.17,.79,2.29,1.5,3.32,2.11,.26,.16,.53,.31,.8,.47,.09,.05,.17,.1,.26,.15,1.36,.77,2.8,1.53,4.34,2.26l3.81-3.82,1.49-1.49c-.4-1.01-.86-1.96-1.35-2.82-.93-1.59-2.45-3.73-4.87-6.16,0,0,2.7,2.31,4.87,6.16,1.03,1.75,1.35,2.82,1.35,2.82l7.15-7.17c-.23-2.49-1.48-4.38-2.38-6.77-1.64-4.17-4.78-9.98-10.79-17.1,0,0,6.97,7.87,10.79,17.1,2.38,5.45,2.38,6.77,2.38,6.77l3.53-3.54c10.71-16.01-6.43-30.75-24.3-56.6S10.61,.57,10.61,.57C.28,37.89,.58,58.98,.58,58.98c0,0-1.87,33.44,12.15,44.89ZM47.01,60.14c6.01,7.12,9.15,12.93,10.79,17.1-3.52-9.34-10.79-17.1-10.79-17.1Zm-.21,22.06c2.42,2.42,3.94,4.57,4.87,6.16-2.17-3.85-4.87-6.16-4.87-6.16Zm.92,14.29h0c-1.54-.73-2.98-1.49-4.34-2.26,2.58,1.48,4.34,2.26,4.34,2.26Zm-8.71-4.99c-.27-.19-.55-.38-.83-.57,.27,.19,.55,.38,.83,.57Zm2.66,9.96c.71-.01,1.13-.04,1.13-.04-.38,.02-.76,.03-1.13,.04Zm6.05-4.97l3.81-3.82-3.81,3.82h0Zm0,0l-3.18,3.19,3.18-3.19h0Z"/></g></g></svg>