<?xml version="1.0" encoding="UTF-8"?><svg xmlns="http://www.w3.org/2000/svg" viewBox="0 0 68.61 113.19"><defs><style>.e{fill:#fff;stroke:#1d1d1b;stroke-miterlimit:10;}</style></defs><g id="a"/><g id="b"><g id="c"><path id="d" class="e" d="M29.6,91.51c-1.04,.71-2.14,1.41-3.32,2.11,1.02-.61,2.15-1.32,3.32-2.11Zm13.29-13.07c.41-.65,.6-1.02,.6-1.02-.19,.34-.39,.68-.6,1.02Zm-12.46,12.5h0Zm-4.94,3.15c-.09,.05-.17,.1-.26,.15,.09-.05,.17-.1,.26-.15Zm-9.9-2.9l-6.56-6.57-4.12-4.13,12.17,12.2-1.49-1.49Zm-7.15-7.17c.23-2.49,1.48-4.38,2.38-6.77-1.86,4.75-2.38,6.77-2.38,6.77Zm7.15,7.17c.4-1.01,.86-1.96,1.35-2.82-1.03,1.75-1.35,2.82-1.35,2.82Zm22.8,8.84c-4.52,1.36-9.32,1.48-11.45,1.45,4.84,.11,8.59-.52,11.45-1.45Zm7.89-4.89c.26-.32,.37-.51,.37-.51-.12,.17-.24,.34-.37,.51Zm-30.69-3.94l-10.68-10.71-4.28,7.49,24.55,24.55,6.5-5.21-7.6-7.62-3.18-3.19-5.3-5.31Zm30.69,3.94c-.83,1.02-3.14,3.35-7.89,4.89,3.08-.93,6.02-2.45,7.89-4.89Zm-3.38-16.69c-1.35,2.12-5.09,7.28-12.44,12.48,4.35-3.05,9.22-7.27,12.44-12.48Zm-16.61,15.18c-.27,.16-.54,.32-.8,.47,.27-.16,.53-.31,.8-.47Zm41.74-34.64s.31-21.08-10.03-58.41c0,0-10.93-2.54-28.8,23.31S-5.8,64.47,4.91,80.48l3.53,3.54s0-1.32,2.38-6.77c3.82-9.23,10.79-17.1,10.79-17.1-6.01,7.12-9.15,12.93-10.79,17.1-.9,2.39-2.15,4.28-2.38,6.77l7.15,7.17s.32-1.07,1.35-2.82c2.17-3.85,4.87-6.16,4.87-6.16-2.42,2.42-3.94,4.57-4.87,6.16-.49,.87-.95,1.81-1.35,2.82l1.49,1.49,3.81,3.82c1.54-.73,2.98-1.49,4.34-2.26,.09-.05,.17-.1,.26-.15,.27-.16,.53-.31,.8-.47,1.02-.61,2.15-1.32,3.32-2.11,.28-.19,.56-.38,.83-.57h.02c7.35-5.22,11.09-10.37,12.44-12.5,.21-.33,.41-.67,.6-1.02,0,0-.19,.37-.6,1.02-3.22,5.21-8.09,9.44-12.44,12.48h-.02c-.28,.21-.55,.4-.83,.59-1.04,.71-2.14,1.41-3.32,2.11-.27,.16-.54,.32-.8,.47-.09,.05-.17,.1-.26,.15-2.58,1.48-4.34,2.26-4.34,2.26l3.18,3.19,1.74,1.75c.38,.02,.76,.03,1.13,.04,2.13,.03,6.93-.08,11.45-1.45,4.75-1.54,7.06-3.87,7.89-4.89,.13-.17,.25-.33,.37-.51,0,0-.11,.19-.37,.51-1.87,2.45-4.81,3.96-7.89,4.89-2.86,.93-6.61,1.56-11.45,1.45-.71-.01-1.13-.04-1.13-.04l7.58,7.25s8.45,6.64,22.48-4.82c14.02-11.45,12.15-44.89,12.15-44.89ZM10.82,77.24c1.64-4.17,4.78-9.98,10.79-17.1,0,0-7.26,7.76-10.79,17.1Zm6.12,11.12c.93-1.59,2.45-3.73,4.87-6.16,0,0-2.7,2.31-4.87,6.16Zm8.29,5.87c-1.36,.77-2.8,1.53-4.34,2.26h0s1.76-.78,4.34-2.26Zm5.2-3.3c-.28,.2-.55,.39-.83,.57,.28-.19,.56-.38,.83-.57Zm-4.62,10.5s.42,.03,1.13,.04c-.37,0-.74-.02-1.13-.04Zm-4.92-4.94l-3.81-3.82,3.81,3.82h0Zm0,0l3.18,3.19-3.18-3.19h0Z"/></g></g></svg>