<?xml version="1.0" encoding="UTF-8"?><svg xmlns="http://www.w3.org/2000/svg" viewBox="0 0 482.15 462.83"><defs><style>.d{fill:#fff;stroke:#1d1d1b;stroke-miterlimit:10;}</style></defs><g id="a"/><g id="b"><g id="c"><path class="d" d="M376.4,177.25c-2.68,44.94-3.88,85.01-3.88,89.18,0,8.71,13.93,188.74,13.93,188.74-31.23,7.55-145.41,7.17-145.41,7.17,0,0-114.17,.38-145.41-7.17,0,0,13.93-180.03,13.93-188.74,0-4.12-1.17-43.33-3.79-87.65,2.71-52.53-9.35-106.52-14.5-125.67l73.14-26.12,41.79,45.28,23.51-20.32V126.24h22.64V51.94l23.51,20.32,41.79-45.28,73.14,26.12c-6.81,20.43-17.22,73.14-14.41,124.14ZM91.34,53.23s-8.14-.75-23.05,18.38C53.38,90.74,.67,173.63,.67,173.63l67.45,52.2,37.36-47.04s6.07-53.19-14.13-125.57Zm161.02-1.29V126.24h-22.64V51.94l6.03-5.21h10.58l6.03,5.21Zm-6.03,45.56c0-2.92-2.37-5.29-5.29-5.29s-5.29,2.37-5.29,5.29,2.37,5.29,5.29,5.29,5.29-2.37,5.29-5.29Zm0-26.68c0-2.92-2.37-5.29-5.29-5.29s-5.29,2.37-5.29,5.29,2.37,5.29,5.29,5.29,5.29-2.37,5.29-5.29Zm-5.29-5.29c-2.92,0-5.29,2.37-5.29,5.29s2.37,5.29,5.29,5.29,5.29-2.37,5.29-5.29-2.37-5.29-5.29-5.29Zm0,26.68c-2.92,0-5.29,2.37-5.29,5.29s2.37,5.29,5.29,5.29,5.29-2.37,5.29-5.29-2.37-5.29-5.29-5.29ZM68.11,225.84l6.81-8.58L6.17,165.01l-5.51,8.63,67.45,52.2Zm308.56-47.04l37.36,47.04,67.45-52.2s-52.72-82.89-67.62-102.03c-14.91-19.13-23.05-18.38-23.05-18.38-20.2,72.38-14.13,125.57-14.13,125.57Zm104.81-5.16l-5.51-8.63-68.75,52.25,6.81,8.58,67.45-52.2ZM186.53,2.39c-2.32,0-22.1,24.6-22.1,24.6l41.79,45.28,29.54-25.53C190.06,4.39,186.53,2.39,186.53,2.39Zm59.8,44.34l29.54,25.53,41.79-45.28s-19.79-24.6-22.1-24.6c0,0-3.53,2-49.23,44.34ZM186.65,2.49l49.11,44.23h10.58L295.46,2.48s.02-.1-.04-.11c-50.87-4.07-105.47-.24-108.74,0-.06,0-.08,.08-.04,.12Zm.06-.14l12.18,11.17s30.84-2.92,84.32,0l11.96-10.95c.1-.09,.04-.25-.09-.26-4.62-.35-54.52-3.89-108.35,.02-.01,0-.02,.02,0,.03Z"/></g></g></svg>