<?xml version="1.0" encoding="UTF-8"?><svg xmlns="http://www.w3.org/2000/svg" viewBox="0 0 454.24 434.28"><defs><style>.d{fill:#fff;stroke:#000;stroke-miterlimit:10;}</style></defs><g id="a"/><g id="b"><g id="c"><path class="d" d="M362.95,173.65s-13.2,46.88-5.94,94.41c7.26,47.54,7.92,165.72,7.92,165.72H89.31s.66-118.18,7.92-165.72c7.26-47.54-5.94-94.41-5.94-94.41l-44.24,9.24L.65,75.27,97.89,26.41,171.84,.6c13.87,20.4,55.28,19.21,55.28,19.21,0,0,41.42,1.19,55.28-19.21l73.95,25.82,97.25,48.86-46.41,107.62-44.24-9.24Zm-271.66,0l6.6-5.68c31.31-32.39,0-141.55,0-141.55,0,0,35.18,122.28-6.6,147.23ZM227.12,33.7c-35.72,.03-52.05-14.41-52.05-14.41-2.44-6.08-3.23-18.69-3.23-18.69,0,0,0,54.82,55.28,54.6M296.47,5.51s-3.07,65.21-69.35,65.32S157.77,5.51,157.77,5.51c0,0,3.07,65.21,69.35,65.32M356.35,26.41s-31.31,109.17,0,141.55l6.6,5.68c-42.46-25.75-6.6-147.23-6.6-147.23Zm-129.23,7.29c35.7,.32,51.5-13.97,51.5-13.97,3.24-7.68,3.78-19.13,3.78-19.13,0,0-.95,54.6-55.28,54.6,0,0-40.55,2.46-52.05-35.91,0,0,15.87,14.09,52.05,14.41Z"/></g></g></svg>