<?xml version="1.0" encoding="UTF-8"?><svg id="Calque_2" xmlns="http://www.w3.org/2000/svg" xmlns:xlink="http://www.w3.org/1999/xlink" viewBox="0 0 512.05 456.56"><defs><style>.cls-1,.cls-2,.cls-3,.cls-4{fill:none;}.cls-5{fill:url(#MBY);}.cls-2{stroke-width:.5px;}.cls-2,.cls-4{stroke:#000;}.cls-6{fill:#fff;stroke:#010101;}.cls-6,.cls-3,.cls-4{stroke-miterlimit:10;}.cls-3{stroke:#1d1d1b;}.cls-7{fill:url(#Nouveau_motif);}</style><pattern id="Nouveau_motif" x="0" y="0" width="83.06" height="83.06" patternTransform="translate(2140.56 -1209.77)" patternUnits="userSpaceOnUse" viewBox="0 0 83.06 83.06"><g><rect class="cls-1" width="83.06" height="83.06"/><circle class="cls-6" cx="62.3" cy="83.06" r="13.18"/><circle class="cls-6" cx="20.77" cy="83.06" r="13.18"/><circle class="cls-6" cx="83.06" cy="41.53" r="13.18"/><circle class="cls-6" cx="41.53" cy="41.53" r="13.18"/><circle class="cls-6" cx="0" cy="41.53" r="13.18"/><circle class="cls-6" cx="62.3" cy="0" r="13.18"/><circle class="cls-6" cx="20.77" cy="0" r="13.18"/></g></pattern><pattern id="MBY" x="0" y="0" width="74.42" height="72.26" patternTransform="translate(2140.56 -1209.77)" patternUnits="userSpaceOnUse" viewBox="0 0 74.42 72.26"><g><rect class="cls-1" width="74.42" height="72.26"/><g id="motif1" transform="translate(-1115 -318)"><g id="Rectangle_1702" transform="translate(1115 318)"><rect class="cls-2" x="73.86" y="71.81" width="18.04" height="18.04"/></g></g><g id="motif1-2" transform="translate(-1115 -318)"><g id="Rectangle_1702-2" transform="translate(1115 318)"><rect class="cls-2" x="-.56" y="71.81" width="18.04" height="18.04"/></g><g id="Rectangle_1703" transform="translate(1131 318)"><rect class="cls-1" x="16.92" y="71.25" width="19.17" height="19.17"/><rect class="cls-2" x="17.48" y="71.81" width="18.04" height="18.04"/></g><g id="Rectangle_1704" transform="translate(1147 318)"><rect class="cls-1" x="34.96" y="71.25" width="20.29" height="19.17"/><rect class="cls-2" x="35.52" y="71.81" width="19.17" height="18.04"/></g><g id="Rectangle_1705" transform="translate(1164 318)"><rect class="cls-1" x="54.12" y="71.25" width="20.29" height="19.17"/><rect class="cls-2" x="54.69" y="71.81" width="19.17" height="18.04"/></g></g><g id="motif1-3" transform="translate(-1115 -318)"><g id="Rectangle_1702-3" transform="translate(1115 318)"><rect class="cls-2" x="73.86" y="-.45" width="18.04" height="18.04"/></g><g id="Rectangle_1706" transform="translate(1115 334)"><rect class="cls-1" x="73.3" y="17.02" width="19.17" height="19.17"/><rect class="cls-2" x="73.86" y="17.59" width="18.04" height="18.04"/></g><g id="Rectangle_1710" transform="translate(1115 350)"><rect class="cls-1" x="73.3" y="35.06" width="19.17" height="19.17"/><rect class="cls-2" x="73.86" y="35.62" width="18.04" height="18.04"/></g><g id="Rectangle_1714" transform="translate(1115 366)"><rect class="cls-1" x="73.3" y="53.1" width="19.17" height="19.17"/><rect class="cls-2" x="73.86" y="53.66" width="18.04" height="18.04"/></g></g><g><rect class="cls-2" x="-.56" y="-.45" width="18.04" height="18.04"/><g><rect class="cls-1" x="16.92" y="-1.02" width="19.17" height="19.17"/><rect class="cls-2" x="17.48" y="-.45" width="18.04" height="18.04"/></g><g><rect class="cls-1" x="34.96" y="-1.02" width="20.29" height="19.17"/><rect class="cls-2" x="35.52" y="-.45" width="19.17" height="18.04"/></g><g><rect class="cls-1" x="54.12" y="-1.02" width="20.29" height="19.17"/><rect class="cls-2" x="54.69" y="-.45" width="19.17" height="18.04"/></g><g><rect class="cls-1" x="-1.12" y="17.02" width="19.17" height="19.17"/><rect class="cls-2" x="-.56" y="17.59" width="18.04" height="18.04"/></g><g><rect class="cls-1" x="16.92" y="17.02" width="19.17" height="19.17"/><rect class="cls-2" x="17.48" y="17.59" width="18.04" height="18.04"/></g><g><rect class="cls-1" x="34.96" y="17.02" width="20.29" height="19.17"/><rect class="cls-2" x="35.52" y="17.59" width="19.17" height="18.04"/></g><g><rect class="cls-1" x="54.12" y="17.02" width="20.29" height="19.17"/><rect class="cls-2" x="54.69" y="17.59" width="19.17" height="18.04"/></g><g><rect class="cls-1" x="-1.12" y="35.06" width="19.17" height="19.17"/><rect class="cls-2" x="-.56" y="35.62" width="18.04" height="18.04"/></g><g><rect class="cls-1" x="16.92" y="35.06" width="19.17" height="19.17"/><rect class="cls-2" x="17.48" y="35.62" width="18.04" height="18.04"/></g><g><rect class="cls-1" x="34.96" y="35.06" width="20.29" height="19.17"/><rect class="cls-2" x="35.52" y="35.62" width="19.17" height="18.04"/></g><g><rect class="cls-1" x="54.12" y="35.06" width="20.29" height="19.17"/><rect class="cls-2" x="54.69" y="35.62" width="19.17" height="18.04"/></g><g><rect class="cls-1" x="-1.12" y="53.1" width="19.17" height="19.17"/><rect class="cls-2" x="-.56" y="53.66" width="18.04" height="18.04"/></g><g><rect class="cls-1" x="16.92" y="53.1" width="19.17" height="19.17"/><rect class="cls-2" x="17.48" y="53.66" width="18.04" height="18.04"/></g><g><rect class="cls-1" x="34.96" y="53.1" width="20.29" height="19.17"/><rect class="cls-2" x="35.52" y="53.66" width="19.17" height="18.04"/></g><g><rect class="cls-1" x="54.12" y="53.1" width="20.29" height="19.17"/><rect class="cls-2" x="54.69" y="53.66" width="19.17" height="18.04"/></g></g></g></pattern></defs><g id="chemise"><path id="forme_chemise" class="cls-1" d="M219.48,17.23v-.03m172.7,163.5c.16,1.34,.32,2.69,.49,4.04,0,0-3.41,87.73-.42,122.41l6.58,148.9H242.01v-16.2h0V139.8l55.93-45.33-9.08-20.49,33.8,18.17s10.09-58.32-.01-66.46l79.72,18.63s-1.38,4.46-3.23,12.44c-13.98,57.41-8.85,109.4-6.95,123.95ZM117.3,439.86l-.72,16.2h125.43v-16.2H117.3Zm124.71,0H117.3l5.86-132.7c2.99-34.68-.42-122.41-.42-122.41,0,0,11.41-67.78-9.69-140.44l79.72-18.63,20.45-16.46c4.91-3.95,10.83-6.47,17.09-7.22,12.44-1.49,27.4-1.34,27.4-1.34,0,0,17.74-.28,30.65,1.79,4.45,.71,8.63,2.58,12.14,5.41l22.14,17.83c10.11,8.14,.01,66.46,.01,66.46l-33.8-18.17,9.08,20.49-55.45,44.94c-.11,.09-.28-.03-.22-.16,4.19-8.7,56.51-117.53,53.82-126.97-1.43-7.4-9.47-10.09-9.47-10.09,0,0,8.04,2.7,9.47,10.09,2.8,9.84-54.09,127.52-54.09,127.52V439.86Zm13.59-329.47l.14,.49s-28.18-61.51-35.64-83.51c-7.46-21.99,10.21-25.38,10.21-25.38m-40.07,89.84s-7.55-58.71,2.91-66.4c-10.45,7.69-2.91,66.4-2.91,66.4l34.56-16.68-9.97,20.08,35.64,26.79-35.64-26.79,9.97-20.08-34.56,16.68Zm310.56,84.93l-82.04,48.69,9.54,14.94,80.62-49.53s-3.04-5.4-8.12-14.1ZM402.45,44.3c-1.21,4.17-2.31,8.32-3.31,12.44-4.98,21.58-13.34,68.97-6.95,123.95,.34,2.63,.58,4.04,.58,4.04l25.99,40.71,82.04-48.69c-21.26-36.43-78.3-131.04-98.35-132.46Zm-3.31,12.44c-13.98,57.41-8.85,109.4-6.95,123.95-6.39-54.99,1.97-102.37,6.95-123.95Zm0,0c-13.98,57.41-8.85,109.4-6.95,123.95-6.39-54.99,1.97-102.37,6.95-123.95ZM113.05,44.3c-19.47,0-77.01,95.73-98.37,132.45l82.06,48.7L14.69,176.75c-5.07,8.71-8.1,14.11-8.1,14.11l80.62,49.53,35.53-55.65c10.97-76.31-9.69-140.44-9.69-140.44Z"/><path id="forme_chemise_colclaudine" class="cls-4" d="M329.45,25.68l4.22,.65,68.73,17.98c-19.12,71.78-8.85,140.44-8.85,140.44-6.12,57.71,5.55,271.31,5.55,271.31h-142.07l-.05-368.57,72.47-61.81Zm-72.42,430.38l-.05-368.57-63.84-62.06-80.09,18.88c19.72,65.6,9.69,140.44,9.69,140.44,7.49,29.86-6.16,271.31-6.16,271.31h140.45Z"/><path id="sans_coutures" class="cls-4" d="M392.18,180.7c.16,1.34,.32,2.69,.49,4.04,0,0-3.41,87.73-.42,122.41l6.58,148.9H242.01V139.8l55.93-45.33-9.08-20.49,33.8,18.17s10.09-58.32-.01-66.46l79.72,18.63s-1.38,4.46-3.23,12.44c-13.98,57.41-8.85,109.4-6.95,123.95Zm-267.8-9.7c1.42-15.39,2.71-42.38-.92-74.09v-.02c-.06-.48-.12-.97-.18-1.45-.19-1.57-.4-3.16-.61-4.74-.9-6.65-1.9-12.73-2.92-18.14-.33-1.76-.66-3.51-1.03-5.29-1.56-7.55-3.44-15.22-5.68-22.96-19.47,0-77.01,95.73-98.37,132.45-5.07,8.71-8.1,14.11-8.1,14.11l80.62,49.53,35.53-55.65c.59-4.13,1.09-8.22,1.51-12.27,.05-.5,.09-.98,.14-1.48Zm376.41,5.76c-21.26-36.43-78.3-131.04-98.35-132.46-1.21,4.17-2.31,8.32-3.31,12.44-4.98,21.58-13.34,68.97-6.95,123.95,.34,2.63,.58,4.04,.58,4.04l25.99,40.71,9.54,14.94,80.62-49.53s-3.04-5.4-8.12-14.1Zm-258.79-36.96V456.06H116.58l6.58-148.9c2.99-34.68-.42-122.41-.42-122.41,0,0,.75-4.45,1.51-12.27,.05-.48,.09-.97,.14-1.48,2.72-27.69,1.53-53.27-.92-74.09v-.02c-.06-.48-.12-.97-.18-1.45-.2-1.61-.4-3.19-.61-4.74-.79-5.92-1.75-11.98-2.92-18.14-.34-1.83-.69-3.61-1.03-5.29-2.95-14.47-5.68-22.96-5.68-22.96l79.72-18.63,20.45-16.46c4.91-3.95,10.83-6.47,17.09-7.22,0,0-17.67,3.38-10.21,25.38,7.46,21.99,35.64,83.49,35.64,83.51l-.16,.33c-.18,.39-.37,.79-.55,1.18-.21,.46-.42,.9-.64,1.35-.15,.33-.31,.66-.46,.98-.24,.5-.47,.99-.7,1.48-.12,.25-.24,.5-.35,.75-.21,.44-.41,.86-.61,1.29-.54,1.15-1.07,2.27-1.58,3.35-.27,.58-.54,1.15-.81,1.7-.23,.48-.45,.95-.67,1.41-.06,.13-.13,.28-.19,.41-.21,.43-.4,.85-.6,1.27-.09,.2-.19,.4-.28,.6-.17,.35-.32,.68-.48,1.02-.11,.24-.23,.48-.34,.71-.13,.28-.26,.55-.39,.83-.14,.29-.28,.58-.41,.86-.13,.27-.25,.52-.37,.78-.1,.2-.19,.41-.29,.6-.16,.33-.31,.64-.45,.95-.08,.16-.15,.32-.23,.48-.13,.26-.24,.51-.36,.76-.09,.19-.18,.37-.26,.55-.1,.22-.2,.42-.3,.63-.08,.17-.17,.35-.24,.51-.08,.17-.16,.33-.24,.49-.1,.21-.2,.41-.29,.6l-.17,.36c-.07,.14-.14,.28-.2,.42-.23,.49-.43,.9-.59,1.23v.02c-.1,.18-.17,.34-.24,.47h0c-.17,.35-.27,.55-.27,.55Zm-27.18-44.57l9.97-20.08-34.56,16.68s-7.55-58.71,2.91-66.4c-10.45,7.69-2.91,66.4-2.91,66.4l34.56-16.68-9.97,20.08,35.64,26.79-35.64-26.79ZM230.24,1.85c12.44-1.49,27.4-1.34,27.4-1.34,0,0,17.74-.28,30.65,1.79,4.45,.71,8.63,2.58,12.14,5.41l22.14,17.83c10.11,8.14,.01,66.46,.01,66.46l-33.8-18.17,9.08,20.49-55.45,44.94c-.11,.09-.28-.03-.22-.16,.06-.13,.14-.29,.23-.47v-.02c.17-.33,.37-.75,.6-1.23,.06-.13,.13-.27,.2-.42l.17-.36c.09-.19,.19-.39,.29-.6,.08-.16,.15-.32,.24-.49,.08-.16,.16-.34,.24-.51,.1-.21,.2-.41,.3-.63,.09-.18,.17-.36,.26-.55,.12-.25,.24-.5,.36-.76,.07-.16,.15-.32,.23-.48,.15-.31,.3-.62,.45-.95,.09-.2,.19-.4,.29-.6,.12-.26,.25-.51,.37-.78,.13-.28,.27-.57,.41-.86,.13-.27,.26-.54,.39-.83,.11-.23,.22-.47,.34-.71,.16-.34,.32-.67,.48-1.02,.09-.19,.19-.4,.28-.6,.2-.42,.4-.83,.6-1.27,.06-.13,.13-.27,.19-.41,.22-.47,.44-.93,.67-1.41,.26-.56,.53-1.13,.81-1.7,.51-1.08,1.04-2.2,1.58-3.35,.2-.43,.4-.85,.61-1.29,.12-.25,.24-.5,.35-.75,.23-.49,.46-.98,.7-1.48,.15-.32,.31-.66,.46-.98,.21-.45,.42-.9,.64-1.35,.18-.39,.37-.78,.55-1.18l.16-.33h0c.13-.27,.25-.54,.38-.82,.2-.43,.41-.88,.62-1.32,.18-.39,.37-.78,.55-1.18,.2-.43,.4-.86,.6-1.29,.18-.4,.37-.79,.55-1.19,.2-.44,.41-.88,.62-1.32,.2-.43,.4-.85,.6-1.28,.19-.42,.39-.83,.58-1.25,.21-.45,.42-.91,.64-1.37,.2-.44,.41-.88,.61-1.32,.2-.42,.39-.85,.59-1.27l.23-.49c.14-.3,.28-.6,.42-.91,.15-.32,.29-.63,.44-.95,.08-.17,.14-.31,.18-.4,.17-.37,.8-1.73,1.12-2.44-.17,.38-.35,.76-.52,1.13,.17-.38,.35-.75,.52-1.13,.06-.13,.11-.24,.15-.32,.2-.43,.39-.86,.59-1.28,.22-.48,.44-.97,.67-1.46,.21-.45,.41-.9,.62-1.36,.21-.45,.41-.91,.62-1.36,.22-.48,.44-.96,.66-1.44,.21-.45,.41-.91,.62-1.37,.21-.47,.43-.94,.64-1.42,.21-.47,.43-.94,.64-1.41,.21-.47,.43-.94,.64-1.41,.21-.47,.43-.94,.64-1.41,.21-.46,.42-.93,.63-1.39,.22-.49,.44-.98,.66-1.47,.2-.45,.41-.9,.61-1.35,.21-.48,.43-.96,.64-1.44,.21-.47,.42-.93,.62-1.4,.21-.46,.41-.93,.62-1.39,.21-.47,.42-.95,.63-1.42,.21-.48,.43-.96,.64-1.44,.2-.44,.39-.89,.59-1.33,.24-.54,.47-1.08,.71-1.61,.17-.39,.34-.77,.51-1.16,.24-.55,.48-1.1,.72-1.65,.16-.37,.33-.75,.49-1.12,.26-.6,.52-1.19,.78-1.79,.25-.58,.51-1.17,.76-1.75,.27-.62,.54-1.24,.8-1.85,.17-.39,.33-.78,.5-1.16,.21-.5,.43-1,.64-1.49,.17-.39,.33-.78,.49-1.16,.21-.49,.42-.98,.62-1.46,.16-.37,.31-.73,.46-1.1,.21-.49,.42-.99,.62-1.47,.15-.37,.31-.73,.46-1.1,.2-.47,.39-.94,.59-1.41,.16-.38,.31-.76,.47-1.13,.18-.44,.37-.89,.55-1.32,.15-.37,.3-.74,.45-1.11,.18-.43,.35-.87,.53-1.29,.15-.37,.29-.73,.44-1.09,.17-.41,.33-.82,.49-1.23,.15-.37,.29-.72,.43-1.08,.16-.39,.31-.79,.46-1.17,.14-.35,.27-.7,.41-1.04,.15-.38,.3-.77,.44-1.14,.13-.34,.26-.68,.39-1.01,.14-.36,.28-.72,.41-1.08,.13-.33,.25-.66,.37-.98,.13-.35,.26-.69,.38-1.04,.12-.31,.23-.62,.34-.93,.12-.33,.24-.66,.36-.99,.11-.3,.21-.6,.32-.89,.11-.32,.22-.63,.33-.94,.1-.28,.19-.56,.29-.84,.1-.3,.2-.59,.3-.89,.09-.27,.18-.53,.26-.79,.09-.29,.18-.56,.27-.84,.08-.24,.15-.49,.23-.72,.07-.22,.13-.43,.19-.64,.02-.06,.03-.11,.04-.15,.07-.23,.13-.45,.2-.67,.07-.25,.14-.49,.2-.73,.06-.21,.11-.41,.16-.61,.06-.23,.11-.45,.17-.67,.04-.18,.09-.37,.13-.55,.05-.21,.09-.41,.13-.61,.03-.16,.07-.33,.1-.48,.04-.19,.06-.37,.09-.55,.02-.14,.05-.28,.06-.41,.02-.18,.03-.33,.05-.49,0-.11,.02-.23,.03-.33,0-.17,0-.31,0-.45,0-.07,0-.16,0-.22-.02-.2-.04-.38-.09-.53-1.43-7.4-9.47-10.09-9.47-10.09,0,0,8.04,2.7,9.47,10.09,.04,.15,.07,.33,.09,.53,0,.07,0,.15,0,.22,0,.14,0,.29,0,.45,0,.1-.02,.22-.03,.33-.01,.16-.02,.32-.05,.49-.02,.13-.04,.27-.06,.41-.03,.18-.05,.35-.09,.55-.03,.15-.06,.32-.1,.48-.04,.2-.08,.4-.13,.61-.04,.17-.09,.36-.13,.55-.05,.22-.11,.44-.17,.67-.05,.2-.11,.4-.16,.61-.06,.24-.13,.48-.2,.73-.06,.22-.13,.44-.2,.67-.01,.05-.03,.1-.04,.15-.11,.38-.35,1.15-.42,1.36-.09,.28-.17,.55-.27,.84-.08,.26-.17,.52-.26,.79-.1,.29-.19,.58-.3,.89-.09,.28-.19,.56-.29,.84-.11,.31-.22,.62-.33,.94-.1,.29-.21,.59-.32,.89-.12,.33-.24,.66-.36,.99-.11,.31-.22,.62-.34,.93-.13,.34-.25,.69-.38,1.04-.12,.33-.24,.65-.37,.98-.13,.36-.27,.72-.41,1.08-.13,.33-.26,.67-.39,1.01-.15,.38-.29,.76-.44,1.14-.13,.35-.27,.69-.41,1.04-.15,.39-.31,.78-.46,1.17-.14,.36-.28,.72-.43,1.08-.16,.4-.33,.82-.49,1.23-.15,.36-.29,.73-.44,1.09-.17,.43-.35,.86-.53,1.29-.15,.37-.3,.73-.45,1.11-.18,.44-.36,.88-.55,1.32-.16,.38-.31,.75-.47,1.13-.19,.46-.39,.94-.59,1.41-.15,.37-.3,.73-.46,1.1-.2,.49-.41,.98-.62,1.47-.15,.37-.31,.73-.46,1.1-.2,.48-.41,.97-.62,1.46-.17,.39-.33,.77-.49,1.16-.21,.49-.43,.99-.64,1.49-.17,.39-.33,.77-.5,1.16-.26,.61-.53,1.23-.8,1.85-.25,.58-.5,1.16-.76,1.75-.26,.59-.52,1.19-.78,1.79-.16,.37-.33,.75-.49,1.12-.24,.55-.48,1.1-.72,1.65-.17,.39-.34,.77-.51,1.16-.24,.54-.47,1.07-.71,1.61-.2,.44-.39,.89-.59,1.33-.21,.48-.43,.96-.64,1.44-.21,.47-.42,.95-.63,1.42-.21,.46-.41,.93-.62,1.39-.21,.47-.42,.93-.62,1.4-.21,.48-.43,.96-.64,1.44-.2,.45-.41,.9-.61,1.35-.22,.49-.44,.98-.66,1.47-.21,.46-.42,.93-.63,1.39-.21,.47-.43,.94-.64,1.41-.21,.47-.43,.94-.64,1.41-.21,.47-.43,.94-.64,1.41-.21,.47-.43,.94-.64,1.42-.21,.46-.41,.91-.62,1.37-.22,.48-.44,.96-.66,1.44-.21,.45-.41,.91-.62,1.36-.21,.45-.41,.91-.62,1.36-.22,.49-.45,.97-.67,1.46-.2,.43-2.91,6.32-3.13,6.79-.2,.43-.39,.85-.59,1.27-.21,.44-.41,.89-.61,1.32-.21,.46-.42,.91-.64,1.37-.19,.42-.39,.84-.58,1.25-.2,.43-.4,.86-.6,1.28-.21,.44-.41,.88-.62,1.32-.19,.4-.37,.79-.55,1.19-.2,.43-.4,.86-.6,1.29-.19,.4-.37,.79-.55,1.18-.21,.44-.41,.88-.62,1.32-.13,.27-.25,.54-.38,.82l-.14-.49,.14,.49h0s-28.18-61.52-35.64-83.51c-7.46-21.99,10.21-25.38,10.21-25.38Zm-10.82,15.24v0Z"/><path id="motif5" class="cls-4" d="M124.78,110.2l132.25,127.44M391.12,106.35l-134.14,131.29M124.63,168.18l132.4,127.59m133.72-130.46l-133.77,130.46" transform="translate(-1684 -307)"/><path id="motif4_colclaudine" class="cls-4" d="M143.66,37.09V456.06M171.81,30.45V456.06m28.16-362.65V456.06m28.15-352.34V456.06m55.87-352.34V456.06m28.16-359.29V456.06M340.31,29.59V456.06m28.84-419.77V456.06m28.15-413.19V191.84m28.16-128.86V221.47m28.15-120.49v103.78M58.7,105.48v97.39m28.16-136.41V219.58M115.01,43.84V196.85m366.34-52.6v44.05M30.18,150.64v35.3"/><path id="motif4" class="cls-4" d="M129.69,40.88V439.54M157.84,33.84V439.54M186,27.26V439.86m28.15-359.22V439.86m55.87-322.77V439.86m28.16-360.87V439.86m28.15-374.48V439.86m28.84-406.58V439.86m28.15-400V439.54m28.16-390.7V214.06m28.15-132.98V213.06M44.72,127.39v67.18m28.16-109.81v126.52M101.03,51.07V218.75M467.37,121.93v74.86"/><path id="motif3_colclaudine" class="cls-4" d="M477.96,138.75H37.44m457.88,28.15H20.34m95.81,28.16H45.52m346.8,0H123.1m346.86,0h-70.6m-7.8,28.15H123.87m267.68,27.72H124.32m267.24,28.15H123.92m268.32,28.16H123.15m270.35,28.15H121.91m272.87,28.84H120.76m275.27,28.45l-276.74,1.92m277.97,25.94H118.39M186.14,53.79H97.78m319.22,0h-85.88m-139.48,28.16H74.79m365.37,0h-114.68m134.2,28.15H55.97"/><path id="motif3" class="cls-4" d="M477.96,138.75H37.44m457.88,28.15H20.34m95.81,28.16H45.52m346.8,0H123.1m346.86,0h-70.6m-7.8,28.15H123.87m267.68,27.72H124.32m267.24,28.15H123.92m268.32,28.16H123.15m270.35,28.15H121.91m272.87,28.84H120.76m275.27,28.45l-276.74,1.92m277.97,25.94H118.39M187.42,53.79H97.78m319.22,0h-90.04m-137.7,28.16H74.79m146.64,0h-10.71m92.98,0h-11.3m147.77,0h-115.9m-89.65,28.15H55.97m403.71,0h-181.04"/><path id="motif2_colclaudine" class="cls-7" d="M327.17,25.33l6.5,1,68.73,17.98c-19.12,71.78-8.85,140.44-8.85,140.44-6.12,57.71,5.55,271.31,5.55,271.31h-142.07l-.05-368.57s4.23,11.55,17.12,14.2c17.57,4.87,36.6-2.63,44.88-10.66,13.91-15.65,11.07-32.06,11.68-43.24,.31-5.67-3.5-22.46-3.5-22.46Zm-70.14,430.73l-.05-368.57s-5.23,10.44-14.04,13.04c-7.47,2.88-25.09,3.64-32.02-.36-8.63-4.17-22.66-11.07-24.78-41.85-1.73-7.85,3.26-32,3.26-32l-76.35,18c19.72,65.6,9.69,140.44,9.69,140.44,7.49,29.86-6.16,271.31-6.16,271.31h140.45ZM402.45,44.3c-1.21,4.17-2.31,8.32-3.31,12.44-4.98,21.58-13.34,68.97-6.95,123.95,.34,2.63,.58,4.04,.58,4.04l25.99,40.71,82.04-48.69c-21.26-36.43-78.3-131.04-98.35-132.46ZM96.87,225.45l25.99-40.71c.59-4.13,1.09-8.22,1.51-12.27,1.46-15.1,2.97-42.82-.78-75.57v-.02c-.06-.48-.12-.97-.18-1.45-1.32-10.86-2.97-20.38-4.56-28.17-1.56-7.55-3.44-15.22-5.68-22.96-19.47,0-77.01,95.73-98.37,132.45l82.06,48.7L14.81,176.75"/><path id="motif2" class="cls-7" d="M123.29,95.43c-1.32-10.86-2.97-20.38-4.56-28.17,2,9.66,3.48,19.1,4.56,28.17Zm.17,1.45c-.06-.48-.12-.97-.17-1.45,.06,.48,.12,.97,.17,1.45Zm-10.41-52.58c2.25,7.73,4.12,15.41,5.68,22.96-2.95-14.47-5.68-22.96-5.68-22.96Zm11.19,128.17c2.91-28.26,1.71-54.38-.78-75.57,3.75,32.75,2.24,60.46,.78,75.57Zm117.76-32.68l55.93-45.33m-174.47,2.42v0Zm119.03,41.89v0Zm-119.76,45.97s.75-4.45,1.51-12.27c-.42,4.05-.91,8.14-1.51,12.27ZM399.13,56.75c-13.98,57.41-8.85,109.4-6.95,123.95-6.39-54.99,1.97-102.37,6.95-123.95Zm3.31-12.44c-1.21,4.17-2.31,8.32-3.31,12.44-4.98,21.58-13.34,68.97-6.95,123.95,.34,2.63,.58,4.04,.58,4.04l25.99,40.71,82.04-48.69c-21.26-36.43-78.3-131.04-98.35-132.46ZM242.01,439.86h156.38l-6.13-132.7c-2.99-34.68,.42-122.41,.42-122.41-.17-1.35-.34-2.7-.49-4.04-1.9-14.56-7.03-66.55,6.95-123.95,1.84-7.99,3.23-12.44,3.23-12.44l-79.72-18.63c10.11,8.14,.01,66.46,.01,66.46l-33.8-18.17,9.08,20.49-55.93,45.33V439.86h-.45M194,25.43l-1.23,.25-79.72,18.63s2.73,8.49,5.68,22.96c2,9.66,3.48,19.1,4.56,28.17,.06,.48,.12,.97,.17,1.45v.02c2.49,21.19,3.69,47.31,.78,75.57-.76,7.82-1.51,12.27-1.51,12.27,0,0,3.41,87.73,.42,122.41l-5.86,132.7h124.71V139.8l8.47-17.78h0l-35.64-26.79,9.07-19.05-33.71,15.67s-6.64-58.73,3.81-66.42M96.87,225.45l25.99-40.71c.59-4.13,1.09-8.22,1.51-12.27,1.46-15.1,2.97-42.82-.78-75.57v-.02c-.06-.48-.12-.97-.18-1.45-1.32-10.86-2.97-20.38-4.56-28.17-1.56-7.55-3.44-15.22-5.68-22.96-19.47,0-77.01,95.73-98.37,132.45l82.06,48.7L14.81,176.75"/><path id="motif1_colclaudine" class="cls-5" d="M327.17,25.33l6.5,1,68.73,17.98c-19.12,71.78-8.85,140.44-8.85,140.44-6.12,57.71,5.55,271.31,5.55,271.31h-142.07l-.05-368.57s4.23,11.55,17.12,14.2c17.57,4.87,36.6-2.63,44.88-10.66,13.91-15.65,11.07-32.06,11.68-43.24,.31-5.67-3.5-22.46-3.5-22.46Zm-70.14,430.73l-.05-368.57s-5.23,10.44-14.04,13.04c-7.47,2.88-25.09,3.64-32.02-.36-8.63-4.17-22.66-11.07-24.78-41.85-1.73-7.85,3.26-32,3.26-32l-76.35,18c19.72,65.6,9.69,140.44,9.69,140.44,7.49,29.86-6.16,271.31-6.16,271.31h140.45ZM402.45,44.3c-1.21,4.17-2.31,8.32-3.31,12.44-4.98,21.58-13.34,68.97-6.95,123.95,.34,2.63,.58,4.04,.58,4.04l25.99,40.71,82.04-48.69c-21.26-36.43-78.3-131.04-98.35-132.46ZM96.87,225.45l25.99-40.71c.59-4.13,1.09-8.22,1.51-12.27,1.46-15.1,2.97-42.82-.78-75.57v-.02c-.06-.48-.12-.97-.18-1.45-1.32-10.86-2.97-20.38-4.56-28.17-1.56-7.55-3.44-15.22-5.68-22.96-19.47,0-77.01,95.73-98.37,132.45l82.06,48.7L14.81,176.75"/><path id="motif1-4" class="cls-5" d="M123.29,95.43c-1.32-10.86-2.97-20.38-4.56-28.17,2,9.66,3.48,19.1,4.56,28.17Zm.17,1.45c-.06-.48-.12-.97-.17-1.45,.06,.48,.12,.97,.17,1.45Zm-10.41-52.58c2.25,7.73,4.12,15.41,5.68,22.96-2.95-14.47-5.68-22.96-5.68-22.96Zm11.19,128.17c2.91-28.26,1.71-54.38-.78-75.57,3.75,32.75,2.24,60.46,.78,75.57Zm117.76-32.68l55.93-45.33m-174.47,2.42v0Zm119.03,41.89v0Zm-119.76,45.97s.75-4.45,1.51-12.27c-.42,4.05-.91,8.14-1.51,12.27ZM399.13,56.75c-13.98,57.41-8.85,109.4-6.95,123.95-6.39-54.99,1.97-102.37,6.95-123.95Zm3.31-12.44c-1.21,4.17-2.31,8.32-3.31,12.44-4.98,21.58-13.34,68.97-6.95,123.95,.34,2.63,.58,4.04,.58,4.04l25.99,40.71,82.04-48.69c-21.26-36.43-78.3-131.04-98.35-132.46ZM242.01,439.86h156.38l-6.13-132.7c-2.99-34.68,.42-122.41,.42-122.41-.17-1.35-.34-2.7-.49-4.04-1.9-14.56-7.03-66.55,6.95-123.95,1.84-7.99,3.23-12.44,3.23-12.44l-79.72-18.63c10.11,8.14,.01,66.46,.01,66.46l-33.8-18.17,9.08,20.49-55.93,45.33V439.86h-.45M194,25.43l-1.23,.25-79.72,18.63s2.73,8.49,5.68,22.96c2,9.66,3.48,19.1,4.56,28.17,.06,.48,.12,.97,.17,1.45v.02c2.49,21.19,3.69,47.31,.78,75.57-.76,7.82-1.51,12.27-1.51,12.27,0,0,3.41,87.73,.42,122.41l-5.86,132.7h124.71V139.8l8.47-17.78h0l-35.64-26.79,9.07-19.05-33.71,15.67s-6.64-58.73,3.81-66.42M96.87,225.45l25.99-40.71c.59-4.13,1.09-8.22,1.51-12.27,1.46-15.1,2.97-42.82-.78-75.57v-.02c-.06-.48-.12-.97-.18-1.45-1.32-10.86-2.97-20.38-4.56-28.17-1.56-7.55-3.44-15.22-5.68-22.96-19.47,0-77.01,95.73-98.37,132.45l82.06,48.7L14.81,176.75"/><path id="col_claudine" class="cls-4" d="M223.34,26.46c13.99,26.52,33.48,61.09,33.48,61.09-7.11,15.89-27.14,15.79-27.14,15.79-56.81,0-42.86-67.96-39.8-79.15,.41-1.5,.94-2.95,2.7-3.6,0,0,24.39-16.77,35.85-17.95,.08,0-16.79,5.07-5.09,23.83ZM285.37,2.22c13.79-1.46,38.06,17.92,38.06,17.92,3.65,2.71,3.48,4.68,3.83,6.19,2.49,10.65,18.34,77.02-43.14,77.02,0,0-20.04,.1-27.14-15.86,0,0,19.49-34.71,33.48-61.34,11.7-18.84-5.17-23.92-5.09-23.93Z"/><path id="manche_ballons1" class="cls-3" d="M73.61,188.59c-1.45,1.12-3,2.24-4.65,3.35,1.44-.97,3.01-2.09,4.65-3.35Zm18.63-20.72c.58-1.03,.84-1.61,.84-1.61-.27,.54-.55,1.08-.84,1.61Zm-17.46,19.82l.03-.02-.03,.02Zm-6.93,5c-.12,.08-.24,.16-.36,.23,.12-.08,.24-.15,.36-.23Zm-13.87-4.6l-9.19-10.42-5.78-6.55,17.05,19.34-2.09-2.37Zm-10.03-11.37c.32-3.95,2.08-6.95,3.34-10.73-2.61,7.53-3.34,10.73-3.34,10.73Zm10.03,11.37c.56-1.61,1.21-3.1,1.89-4.48-1.44,2.77-1.89,4.48-1.89,4.48Zm31.95,14.01c-6.33,2.16-13.06,2.34-16.04,2.3,6.78,.18,12.03-.83,16.04-2.3Zm11.05-7.76c.36-.5,.52-.8,.52-.8-.16,.28-.34,.54-.52,.8Zm-43-6.25l-14.97-16.98-6,11.88,34.4,38.92,9.1-8.26-10.65-12.08-4.46-5.06-7.43-8.42Zm43,6.25c-1.16,1.62-4.4,5.32-11.05,7.76,4.32-1.47,8.44-3.88,11.05-7.76Zm-4.74-26.47c-1.89,3.37-7.13,11.54-17.43,19.79,6.09-4.83,12.93-11.53,17.43-19.79Zm-23.28,24.07c-.38,.26-.75,.5-1.12,.74,.38-.25,.75-.49,1.12-.74Zm58.5-54.92s.43-33.43-14.05-92.6c0,0-15.32-4.02-40.35,36.96-25.03,40.98-49.05,64.36-34.05,89.74l4.94,5.61s0-2.09,3.34-10.73c5.35-14.63,15.11-27.11,15.11-27.11-8.42,11.29-12.82,20.5-15.11,27.11-1.26,3.78-3.02,6.78-3.34,10.73l10.03,11.37s.45-1.7,1.89-4.48c3.04-6.1,6.83-9.76,6.83-9.76-3.39,3.84-5.52,7.24-6.83,9.76-.69,1.37-1.33,2.87-1.89,4.48l2.09,2.37,5.34,6.06c2.16-1.16,4.18-2.37,6.08-3.59,.12-.08,.24-.15,.36-.23,.38-.25,.75-.49,1.12-.74,1.44-.97,3.01-2.09,4.65-3.35,.39-.3,.78-.6,1.16-.91l.03-.02c10.3-8.25,15.55-16.42,17.43-19.79,.29-.53,.57-1.07,.84-1.61,0,0-.27,.59-.84,1.61-4.51,8.27-11.34,14.96-17.43,19.79l-.03,.02c-.39,.31-.78,.61-1.16,.91-1.45,1.12-3,2.24-4.65,3.35-.38,.26-.75,.5-1.12,.74-.12,.08-.24,.16-.36,.23-3.62,2.35-6.08,3.59-6.08,3.59l4.46,5.06,2.44,2.77c.54,.03,1.06,.04,1.58,.06,2.98,.05,9.71-.13,16.04-2.3,6.65-2.44,9.9-6.14,11.05-7.76,.18-.26,.36-.53,.52-.8,0,0-.16,.3-.52,.8-2.62,3.88-6.74,6.28-11.05,7.76-4.01,1.47-9.26,2.48-16.04,2.3-1-.02-1.58-.06-1.58-.06l10.63,11.5s11.85,10.53,31.5-7.64c19.65-18.16,17.03-71.18,17.03-71.18Zm-80.17,28.96c2.3-6.61,6.69-15.82,15.11-27.11,0,0-10.18,12.3-15.11,27.11Zm8.58,17.63c1.31-2.52,3.44-5.92,6.83-9.76,0,0-3.79,3.66-6.83,9.76Zm11.62,9.31c-1.9,1.22-3.92,2.43-6.08,3.59h0s2.46-1.24,6.08-3.59Zm7.29-5.23c-.39,.31-.78,.61-1.16,.91,.39-.3,.78-.6,1.16-.91Zm-6.47,16.65s.58,.04,1.58,.06c-.52-.01-1.04-.03-1.58-.06Zm-6.9-7.83l-5.34-6.06,5.34,6.06h0Zm0,0l4.46,5.06-4.46-5.06h0Z"/><path id="manche_ballons2" class="cls-3" d="M446.66,191.94c-1.65-1.11-3.2-2.23-4.65-3.35,1.64,1.26,3.21,2.38,4.65,3.35Zm-24.12-25.68s.27,.59,.84,1.61c-.29-.53-.57-1.07-.84-1.61Zm18.28,21.4l.03,.02-.03-.02Zm7.32,5.25c-.12-.08-.24-.16-.36-.23,.12,.08,.24,.15,.36,.23Zm11.42-2.47l17.05-19.34-5.78,6.55-9.19,10.42-2.09,2.37Zm8.77-24.47c1.26,3.78,3.02,6.78,3.34,10.73,0,0-.72-3.21-3.34-10.73Zm-8.58,17.63c.69,1.37,1.33,2.87,1.89,4.48,0,0-.45-1.7-1.89-4.48Zm-14.02,20.78c-2.98,.05-9.71-.13-16.04-2.3,4.01,1.47,9.26,2.48,16.04,2.3Zm-27.62-10.86s.16,.3,.52,.8c-.18-.26-.36-.53-.52-.8Zm36.1,2.97l-4.46,5.06-10.65,12.08,9.1,8.26,34.4-38.92-6-11.88-14.97,16.98-7.43,8.42Zm-24.52,5.59c-6.65-2.44-9.9-6.14-11.05-7.76,2.62,3.88,6.74,6.28,11.05,7.76Zm11.12-14.43c-10.3-8.25-15.55-16.42-17.43-19.79,4.51,8.27,11.34,14.96,17.43,19.79Zm6.96,5.02c-.36-.24-.73-.48-1.12-.74,.37,.25,.74,.5,1.12,.74Zm-42.58,15.51c19.65,18.16,31.5,7.64,31.5,7.64l10.63-11.5s-.58,.04-1.58,.06c-6.78,.18-12.03-.83-16.04-2.3-4.32-1.47-8.44-3.88-11.05-7.76-.36-.5-.52-.8-.52-.8,.16,.28,.34,.54,.52,.8,1.16,1.62,4.4,5.32,11.05,7.76,6.33,2.16,13.06,2.34,16.04,2.3,.52-.01,1.04-.03,1.58-.06l2.44-2.77,4.46-5.06s-2.46-1.24-6.08-3.59c-.12-.08-.24-.16-.36-.23-.36-.24-.73-.48-1.12-.74-1.65-1.11-3.2-2.23-4.65-3.35-.38-.29-.77-.6-1.16-.91l-.03-.02c-6.09-4.83-12.93-11.53-17.43-19.79-.58-1.03-.84-1.61-.84-1.61,.27,.54,.55,1.08,.84,1.61,1.89,3.37,7.13,11.54,17.43,19.79l.03,.02c.38,.3,.77,.6,1.16,.91,1.64,1.26,3.21,2.38,4.65,3.35,.37,.25,.74,.5,1.12,.74,.12,.08,.24,.15,.36,.23,1.9,1.22,3.92,2.43,6.08,3.59l5.34-6.06,2.09-2.37c-.56-1.61-1.21-3.1-1.89-4.48-1.31-2.52-3.44-5.92-6.83-9.76,0,0,3.79,3.66,6.83,9.76,1.44,2.77,1.89,4.48,1.89,4.48l10.03-11.37c-.32-3.95-2.08-6.95-3.34-10.73-2.3-6.61-6.69-15.82-15.11-27.11,0,0,9.77,12.48,15.11,27.11,3.34,8.64,3.34,10.73,3.34,10.73l4.94-5.61c15.01-25.38-9.02-48.76-34.05-89.74-25.03-40.98-40.35-36.96-40.35-36.96-14.48,59.18-14.05,92.6-14.05,92.6,0,0-2.62,53.01,17.03,71.18Zm48.02-69.33c8.42,11.29,12.82,20.5,15.11,27.11-4.93-14.81-15.11-27.11-15.11-27.11Zm-.29,34.98c3.39,3.84,5.52,7.24,6.83,9.76-3.04-6.1-6.83-9.76-6.83-9.76Zm1.29,22.66h0c-2.16-1.16-4.18-2.37-6.08-3.59,3.62,2.35,6.08,3.59,6.08,3.59Zm-12.21-7.91c-.38-.29-.77-.6-1.16-.91,.38,.3,.77,.6,1.16,.91Zm3.73,15.8c1-.02,1.58-.06,1.58-.06-.54,.03-1.06,.04-1.58,.06Zm8.48-7.88l5.34-6.06-5.34,6.06h0Zm0,0l-4.46,5.06,4.46-5.06h0Z"/><path id="manche_volants1" class="cls-3" d="M50.04,97.36c32.29-3.78,44.96-20.11,44.96-20.11-18.3,19.05-44.96,20.11-44.96,20.11-9.02-7.41-11.15-28.09-11.83-34.49-.68-6.4,5.47-5.07,5.47-5.07,10.82,2.55,24.25-.51,24.25-.51-15.63,3.11-24.25,.51-24.25,.51-5.02-7.02,6.36-19.51,6.36-19.51,26.56,8.5,63.1,6.23,63.1,6.23,8.51,33.26,11.94,59.53,11.94,59.53,13.23,91.79-18.89,105.32-18.89,105.32-6.89-5.55-12.38-19.78-12.38-19.78,0,0-26.24-4.39-25.87-25.57,14.97-13.09,25.87-16.98,25.87-16.98-10,3.31-25.87,16.98-25.87,16.98-14.49-10.02-17.37-31.9-18.08-34.78-.53-2.18,.73-2.41,1.62-2.33,.73,.07,1.47,0,2.18-.16,29.86-6.62,48.41-17.29,48.41-17.29-20.14,11.41-48.41,17.29-48.41,17.29,3.22-16.14-3.61-29.39-3.61-29.39"/><path id="manche_volants2" class="cls-3" d="M465.28,97.36s-6.83,13.25-3.61,29.39c0,0-28.27-5.88-48.41-17.29,0,0,18.56,10.67,48.41,17.29,.72,.16,1.46,.23,2.18,.16,.88-.08,2.15,.15,1.62,2.33-.71,2.89-3.59,24.77-18.08,34.78,0,0-15.88-13.68-25.87-16.98,0,0,10.9,3.89,25.87,16.98,.36,21.18-25.87,25.57-25.87,25.57,0,0-5.49,14.22-12.38,19.78,0,0-32.12-13.53-18.89-105.32,0,0,3.44-26.26,11.94-59.53,0,0,36.53,2.27,63.1-6.23,0,0,11.38,12.49,6.36,19.51,0,0-8.62,2.59-24.25-.51,0,0,13.43,3.06,24.25,.51,0,0,6.15-1.33,5.47,5.07-.68,6.4-2.8,27.08-11.83,34.49,0,0-26.66-1.05-44.96-20.11,0,0,12.67,16.33,44.96,20.11"/><path id="cache_manche1" class="cls-1" d="M0,191.79S85.09,42.14,112.52,42.14c0,0,21.53,68.74,9.84,145.99l-34.94,55.34L0,191.79Z"/><path id="cache_manche2" class="cls-1" d="M428.43,243.36l-35.84-56.45c-11.69-77.25,9.55-142.61,9.55-142.61,27.43,0,109.91,147.8,109.91,147.8l-83.62,51.26Z"/><path id="poche" class="cls-4" d="M306.86,153.61h55.15v58.46c0,3.94-3.19,7.13-7.13,7.13h-40.88c-3.94,0-7.13-3.19-7.13-7.13v-58.46Zm0,13.44h55.15"/><path id="boutons_carres" class="cls-4" d="M262.3,160.37h-11.82v-11.82h11.82v11.82Zm0,50.06h-11.82v11.82h11.82v-11.82Zm0,56.32h-11.82v11.82h11.82v-11.82Zm0,61.17h-11.82v11.82h11.82v-11.82Zm0,64.59h-11.82v11.82h11.82v-11.82Z"/><path id="boutons_triangles" class="cls-4" d="M262.92,220.13h-13.07l6.53-11.33,6.53,11.33Zm-6.53-73.71l-6.53,11.33h13.07l-6.53-11.33Zm0,118.7l-6.53,11.33h13.07l-6.53-11.33Zm0,61.17l-6.53,11.33h13.07l-6.53-11.33Zm0,64.59l-6.53,11.33h13.07l-6.53-11.33Z"/><path id="boutons_ronds" class="cls-4" d="M256.38,266.4c-3.26,0-5.91,2.65-5.91,5.91s2.65,5.91,5.91,5.91,5.91-2.65,5.91-5.91-2.65-5.91-5.91-5.91Zm0-56.32c-3.26,0-5.91,2.65-5.91,5.91s2.65,5.91,5.91,5.91,5.91-2.65,5.91-5.91-2.65-5.91-5.91-5.91Zm0-62.38c-3.26,0-5.91,2.65-5.91,5.91s2.65,5.91,5.91,5.91,5.91-2.65,5.91-5.91-2.65-5.91-5.91-5.91Zm0,179.86c-3.26,0-5.91,2.65-5.91,5.91s2.65,5.91,5.91,5.91,5.91-2.65,5.91-5.91-2.65-5.91-5.91-5.91Zm0,64.59c-3.26,0-5.91,2.65-5.91,5.91s2.65,5.91,5.91,5.91,5.91-2.65,5.91-5.91-2.65-5.91-5.91-5.91Z"/><path id="boutons_ronds_colclaudine" class="cls-4" d="M276.31,266.4c-3.26,0-5.91,2.65-5.91,5.91s2.65,5.91,5.91,5.91,5.91-2.65,5.91-5.91-2.65-5.91-5.91-5.91Zm0-56.32c-3.26,0-5.91,2.65-5.91,5.91s2.65,5.91,5.91,5.91,5.91-2.65,5.91-5.91-2.65-5.91-5.91-5.91Zm0-62.38c-3.26,0-5.91,2.65-5.91,5.91s2.65,5.91,5.91,5.91,5.91-2.65,5.91-5.91-2.65-5.91-5.91-5.91Zm0,179.86c-3.26,0-5.91,2.65-5.91,5.91s2.65,5.91,5.91,5.91,5.91-2.65,5.91-5.91-2.65-5.91-5.91-5.91Zm0,64.59c-3.26,0-5.91,2.65-5.91,5.91s2.65,5.91,5.91,5.91,5.91-2.65,5.91-5.91-2.65-5.91-5.91-5.91Z"/><path id="boutons_carres_colclaudine" class="cls-4" d="M282.22,160.37h-11.82v-11.82h11.82v11.82Zm0,50.06h-11.82v11.82h11.82v-11.82Zm0,56.32h-11.82v11.82h11.82v-11.82Zm0,61.17h-11.82v11.82h11.82v-11.82Zm0,64.59h-11.82v11.82h11.82v-11.82Z"/><path id="boutons_triangles_colclaudine" class="cls-4" d="M282.84,220.13h-13.07l6.53-11.33,6.53,11.33Zm-6.53-73.71l-6.53,11.33h13.07l-6.53-11.33Zm0,118.7l-6.53,11.33h13.07l-6.53-11.33Zm0,61.17l-6.53,11.33h13.07l-6.53-11.33Zm0,64.59l-6.53,11.33h13.07l-6.53-11.33Z"/></g></svg>