<?xml version="1.0" encoding="UTF-8"?><svg id="Calque_2" xmlns="http://www.w3.org/2000/svg" xmlns:xlink="http://www.w3.org/1999/xlink" viewBox="0 0 491.23 462.83"><defs><style>.cls-1,.cls-2,.cls-3,.cls-4{fill:none;}.cls-5{fill:url(#MBY);}.cls-2{stroke-width:.5px;}.cls-2,.cls-4{stroke:#000;}.cls-6{fill:#fff;stroke:#010101;}.cls-6,.cls-3,.cls-4{stroke-miterlimit:10;}.cls-3{stroke:#1d1d1b;}.cls-7{fill:url(#Nouveau_motif);}</style><pattern id="Nouveau_motif" x="0" y="0" width="83.06" height="83.06" patternTransform="translate(1444.84 -1200.25)" patternUnits="userSpaceOnUse" viewBox="0 0 83.06 83.06"><g><rect class="cls-1" width="83.06" height="83.06"/><circle class="cls-6" cx="62.3" cy="83.06" r="13.18"/><circle class="cls-6" cx="20.77" cy="83.06" r="13.18"/><circle class="cls-6" cx="83.06" cy="41.53" r="13.18"/><circle class="cls-6" cx="41.53" cy="41.53" r="13.18"/><circle class="cls-6" cx="0" cy="41.53" r="13.18"/><circle class="cls-6" cx="62.3" cy="0" r="13.18"/><circle class="cls-6" cx="20.77" cy="0" r="13.18"/></g></pattern><pattern id="MBY" x="0" y="0" width="74.42" height="72.26" patternTransform="translate(1444.84 -1200.25)" patternUnits="userSpaceOnUse" viewBox="0 0 74.42 72.26"><g><rect class="cls-1" width="74.42" height="72.26"/><g id="motif1" transform="translate(-1115 -318)"><g id="Rectangle_1702" transform="translate(1115 318)"><rect class="cls-2" x="73.86" y="71.81" width="18.04" height="18.04"/></g></g><g id="motif1-2" transform="translate(-1115 -318)"><g id="Rectangle_1702-2" transform="translate(1115 318)"><rect class="cls-2" x="-.56" y="71.81" width="18.04" height="18.04"/></g><g id="Rectangle_1703" transform="translate(1131 318)"><rect class="cls-1" x="16.92" y="71.25" width="19.17" height="19.17"/><rect class="cls-2" x="17.48" y="71.81" width="18.04" height="18.04"/></g><g id="Rectangle_1704" transform="translate(1147 318)"><rect class="cls-1" x="34.96" y="71.25" width="20.29" height="19.17"/><rect class="cls-2" x="35.52" y="71.81" width="19.17" height="18.04"/></g><g id="Rectangle_1705" transform="translate(1164 318)"><rect class="cls-1" x="54.12" y="71.25" width="20.29" height="19.17"/><rect class="cls-2" x="54.69" y="71.81" width="19.17" height="18.04"/></g></g><g id="motif1-3" transform="translate(-1115 -318)"><g id="Rectangle_1702-3" transform="translate(1115 318)"><rect class="cls-2" x="73.86" y="-.45" width="18.04" height="18.04"/></g><g id="Rectangle_1706" transform="translate(1115 334)"><rect class="cls-1" x="73.3" y="17.02" width="19.17" height="19.17"/><rect class="cls-2" x="73.86" y="17.59" width="18.04" height="18.04"/></g><g id="Rectangle_1710" transform="translate(1115 350)"><rect class="cls-1" x="73.3" y="35.06" width="19.17" height="19.17"/><rect class="cls-2" x="73.86" y="35.62" width="18.04" height="18.04"/></g><g id="Rectangle_1714" transform="translate(1115 366)"><rect class="cls-1" x="73.3" y="53.1" width="19.17" height="19.17"/><rect class="cls-2" x="73.86" y="53.66" width="18.04" height="18.04"/></g></g><g><rect class="cls-2" x="-.56" y="-.45" width="18.04" height="18.04"/><g><rect class="cls-1" x="16.92" y="-1.02" width="19.17" height="19.17"/><rect class="cls-2" x="17.48" y="-.45" width="18.04" height="18.04"/></g><g><rect class="cls-1" x="34.96" y="-1.02" width="20.29" height="19.17"/><rect class="cls-2" x="35.52" y="-.45" width="19.17" height="18.04"/></g><g><rect class="cls-1" x="54.12" y="-1.02" width="20.29" height="19.17"/><rect class="cls-2" x="54.69" y="-.45" width="19.17" height="18.04"/></g><g><rect class="cls-1" x="-1.12" y="17.02" width="19.17" height="19.17"/><rect class="cls-2" x="-.56" y="17.59" width="18.04" height="18.04"/></g><g><rect class="cls-1" x="16.92" y="17.02" width="19.17" height="19.17"/><rect class="cls-2" x="17.48" y="17.59" width="18.04" height="18.04"/></g><g><rect class="cls-1" x="34.96" y="17.02" width="20.29" height="19.17"/><rect class="cls-2" x="35.52" y="17.59" width="19.17" height="18.04"/></g><g><rect class="cls-1" x="54.12" y="17.02" width="20.29" height="19.17"/><rect class="cls-2" x="54.69" y="17.59" width="19.17" height="18.04"/></g><g><rect class="cls-1" x="-1.12" y="35.06" width="19.17" height="19.17"/><rect class="cls-2" x="-.56" y="35.62" width="18.04" height="18.04"/></g><g><rect class="cls-1" x="16.92" y="35.06" width="19.17" height="19.17"/><rect class="cls-2" x="17.48" y="35.62" width="18.04" height="18.04"/></g><g><rect class="cls-1" x="34.96" y="35.06" width="20.29" height="19.17"/><rect class="cls-2" x="35.52" y="35.62" width="19.17" height="18.04"/></g><g><rect class="cls-1" x="54.12" y="35.06" width="20.29" height="19.17"/><rect class="cls-2" x="54.69" y="35.62" width="19.17" height="18.04"/></g><g><rect class="cls-1" x="-1.12" y="53.1" width="19.17" height="19.17"/><rect class="cls-2" x="-.56" y="53.66" width="18.04" height="18.04"/></g><g><rect class="cls-1" x="16.92" y="53.1" width="19.17" height="19.17"/><rect class="cls-2" x="17.48" y="53.66" width="18.04" height="18.04"/></g><g><rect class="cls-1" x="34.96" y="53.1" width="20.29" height="19.17"/><rect class="cls-2" x="35.52" y="53.66" width="19.17" height="18.04"/></g><g><rect class="cls-1" x="54.12" y="53.1" width="20.29" height="19.17"/><rect class="cls-2" x="54.69" y="53.66" width="19.17" height="18.04"/></g></g></g></pattern></defs><g id="polo"><path id="forme_polo" class="cls-1" d="M257.02,52.29l23.51,20.32,41.79-45.28,73.14,26.12c-6.81,20.43-17.22,73.14-14.41,124.14-2.68,44.94-3.88,85.01-3.88,89.18,0,8.71,13.93,188.74,13.93,188.74-31.23,7.55-145.41,7.17-145.41,7.17,0,0-114.17,.38-145.41-7.17,0,0,13.93-180.03,13.93-188.74,0-4.12-1.17-43.33-3.79-87.65,2.71-52.53-9.35-106.52-14.5-125.67l73.14-26.12,41.79,45.28,23.51-20.32m-138.39,1.29s-8.14-.75-23.05,18.38C58.04,91.09,5.32,173.99,5.32,173.99l67.45,52.2,37.36-47.04s6.07-53.19-14.13-125.57Zm-23.23,172.61l6.81-8.58L10.83,165.36l-5.51,8.63,67.45,52.2Zm308.56-47.04l37.36,47.04,67.45-52.2s-52.72-82.89-67.62-102.03c-14.91-19.13-23.05-18.38-23.05-18.38-20.2,72.38-14.13,125.57-14.13,125.57Zm104.81-5.16l-5.51-8.63-68.75,52.25,6.81,8.58,67.45-52.2ZM191.19,2.74c-2.32,0-22.1,24.6-22.1,24.6l41.79,45.28,29.54-25.53C194.72,4.74,191.19,2.74,191.19,2.74Zm59.8,44.34l29.54,25.53,41.79-45.28s-19.79-24.6-22.1-24.6c0,0-3.53,2-49.23,44.34ZM191.31,2.84l49.11,44.23h10.58L300.11,2.83s.02-.1-.04-.11c-50.87-4.07-105.47-.24-108.74,0-.06,0-.08,.08-.04,.12Zm.06-.14l12.18,11.17s30.84-2.92,84.32,0l11.96-10.95c.1-.09,.04-.25-.09-.26-4.62-.35-54.52-3.89-108.35,.02-.01,0-.02,.02,0,.03Z"/><path id="poche" class="cls-4" d="M287.31,136.24h55.15v58.46c0,3.94-3.19,7.13-7.13,7.13h-40.88c-3.94,0-7.13-3.19-7.13-7.13v-58.46Zm0,13.44h55.15"/><path id="sans_coutures" class="cls-3" d="M257.05,51.94l23.51,20.32,41.79-45.28,73.14,26.12c-6.81,20.43-17.22,73.14-14.41,124.14-2.68,44.94-3.88,85.01-3.88,89.18,0,8.71,13.93,188.74,13.93,188.74-31.23,7.55-145.41,7.17-145.41,7.17,0,0-114.17,.38-145.41-7.17,0,0,13.93-180.03,13.93-188.74,0-4.12-1.17-43.33-3.79-87.65,2.71-52.53-9.35-106.52-14.5-125.67l73.14-26.12,41.79,45.28,23.51-20.32m-138.39,1.29s-8.14-.75-23.05,18.38C58.06,90.74,5.35,173.63,5.35,173.63l67.45,52.2,37.36-47.04s6.07-53.19-14.13-125.57ZM10.85,165.01l-5.51,8.63,67.45,52.2,6.81-8.58m301.75-38.46l37.36,47.04,67.45-52.2s-52.72-82.89-67.62-102.03-23.05-18.38-23.05-18.38c-20.2,72.38-14.13,125.57-14.13,125.57Zm30.55,38.46l6.81,8.58,67.45-52.2-5.51-8.63M191.21,2.39c-2.32,0-22.1,24.6-22.1,24.6l41.79,45.28,29.54-25.53C194.74,4.39,191.21,2.39,191.21,2.39Zm59.8,44.34l29.54,25.53,41.79-45.28s-19.79-24.6-22.1-24.6c0,0-3.53,2-49.23,44.34ZM191.33,2.49l49.11,44.23h10.58L300.14,2.48s.02-.1-.04-.11c-50.87-4.07-105.47-.24-108.74,0-.06,0-.08,.08-.04,.12Zm.06-.14l12.18,11.17s30.84-2.92,84.32,0l11.96-10.95c.1-.09,.04-.25-.09-.26-4.62-.35-54.52-3.89-108.35,.02-.01,0-.02,.02,0,.03Z"/><path id="motif5" class="cls-4" d="M110.42,141.05l134.47,129.67m136.53-133.74l-136.58,133.74M111.68,200.45l133.21,128.41m135.06-131.81l-135.11,131.81" transform="translate(-1684 -307)"/><path id="motif4_colclaudine" class="cls-4" d="M343.03,460.2V34.37m-28.15,426.97V60.61m-28.16,401.36V89.46m-28.15,372.51V86.3m-27.72,375.67V87.97m-28.15,374V89.11m-28.16,372.13V53.7m-28.15,406.39V34.81m-28.84,423.06V45.4m-28.45,159.71l-1.92-147.74m-25.94,159.53V88.06M428,219.19V84.75m-28.16,117.31V54.43m-28.15,403.67V44.61M32.48,194.67v-63.19m423.37,65.63V126.57"/><path id="motif4" class="cls-4" d="M343.03,460.2V34.37m-28.15,426.97V35.07m-28.16,426.89V65.58m-28.15,396.39V53.22m-27.72,408.74V55.02m-28.15,406.95V63.38m-28.16,397.87V32.87m-28.15,427.22V34.81m-28.84,423.06V45.4m-28.45,159.71l-1.92-147.74m-25.94,159.53V88.06M428,219.19V84.75m-28.16,117.31V54.43m-28.15,403.67V44.61M32.48,194.67v-63.19m423.37,65.63V126.57"/><path id="motif3" class="cls-4" d="M471.01,150.25H20.33m459.68,28.15H11.5m76.61,28.16H47.88m331.6,0H111.97m331.54,0h-39.84m-25.44,28.15H113.22m264.25,27.72H114.18m264.56,28.15H112.72m268.06,28.16H111.05m271.82,28.15H108.58m276.53,28.84H106.4m280.81,28.45l-283.12,1.92m285.26,25.94H102.1M204.77,65.28H78.28m194.19,0h-53.5m193.95,0h-125.93m147.27,28.16H57.59m395,28.15H39.11"/><path id="motif3_colclaudine" class="cls-4" d="M471.01,150.25H20.33m459.68,28.15H11.5m76.61,28.16H47.88m331.6,0H111.97m331.54,0h-39.84m-25.44,28.15H113.22m264.25,27.72H114.18m264.56,28.15H112.72m268.06,28.16H111.05m271.82,28.15H108.58m276.53,28.84H106.4m280.81,28.45l-283.12,1.92m285.26,25.94H102.1M178.93,65.28H78.28m334.64,0h-100.23m121.58,28.16H57.59m395,28.15H39.11"/><path id="motif2_colclaudine" class="cls-7" d="M271.54,71.39l50.81-44.41,73.14,26.12c-3.63,10.89-8.28,30.94-11.41,55.02-4.09,29.73-3.82,52.25-3.26,63.23,.07,1.96,.15,3.93,.26,5.89-2.68,44.94-3.88,85.01-3.88,89.18,0,8.71,13.93,188.74,13.93,188.74-31.23,7.55-145.41,7.17-145.41,7.17,0,0-114.17,.38-145.41-7.17,0,0,13.93-180.03,13.93-188.74,0-4.12-1.17-43.33-3.79-87.65,.17-3.32,.28-6.65,.34-9.97,.73-18.66,.22-61.82-14.79-115.58h-.02s-.02-.08-.03-.12l73.14-26.12,54.22,44.41h48.21ZM96,53.23c-.46-.03-8.55-.2-23.03,18.38C58.06,90.74,5.35,173.63,5.35,173.63l67.45,52.2,37.36-47.04s.4-3.53,.65-9.99c.87-49.14-9.97-97.54-14.81-115.58ZM418.72,225.84l67.45-52.2s-52.72-82.89-67.62-102.03c-14.91-19.13-23.05-18.38-23.05-18.38-5.58,20.01-9.16,38.54-11.41,54.9-2.52,19.37-4.04,41.33-3.26,63.23,.24,4.83,.54,7.44,.54,7.44l37.36,47.04Z"/><path id="motif2" class="cls-7" d="M380.7,171.37c.07,1.96,.15,3.93,.26,5.89-2.68,44.94-3.88,85.01-3.88,89.18,0,8.71,13.93,188.74,13.93,188.74-31.23,7.55-145.41,7.17-145.41,7.17,0,0-114.17,.38-145.41-7.17,0,0,13.93-180.03,13.93-188.74,0-4.12-1.17-43.33-3.79-87.65,.17-3.32,.28-6.65,.34-9.97,.73-18.66,.22-61.82-14.79-115.57h-.02s-.02-.08-.03-.12l73.14-26.12,41.79,45.28,29.54-25.53h10.58l29.54,25.53,41.79-45.28,73.14,26.12c-3.63,10.89-8.28,30.94-11.41,55.02-4.09,29.73-3.82,52.25-3.26,63.23ZM95.88,53.24c-.46-.03-8.55-.2-23.03,18.38C57.95,90.75,5.23,173.65,5.23,173.65l67.45,52.2,37.36-47.04s.4-3.53,.65-9.99c.87-49.14-9.97-97.54-14.81-115.58ZM418.6,225.85l67.45-52.2s-52.72-82.89-67.62-102.03-23.05-18.38-23.05-18.38c-5.58,20.01-9.16,38.54-11.41,54.9-2.52,19.37-4.04,41.33-3.26,63.23,.24,4.83,.54,7.44,.54,7.44l37.36,47.04Z"/><path id="motif1_colclaudine" class="cls-5" d="M271.54,71.39l50.81-44.41,73.14,26.12c-3.63,10.89-8.28,30.94-11.41,55.02-4.09,29.73-3.82,52.25-3.26,63.23,.07,1.96,.15,3.93,.26,5.89-2.68,44.94-3.88,85.01-3.88,89.18,0,8.71,13.93,188.74,13.93,188.74-31.23,7.55-145.41,7.17-145.41,7.17,0,0-114.17,.38-145.41-7.17,0,0,13.93-180.03,13.93-188.74,0-4.12-1.17-43.33-3.79-87.65,.17-3.32,.28-6.65,.34-9.97,.73-18.66,.22-61.82-14.79-115.58h-.02s-.02-.08-.03-.12l73.14-26.12,54.22,44.41h48.21ZM96,53.23c-.46-.03-8.55-.2-23.03,18.38C58.06,90.74,5.35,173.63,5.35,173.63l67.45,52.2,37.36-47.04s.4-3.53,.65-9.99c.87-49.14-9.97-97.54-14.81-115.58ZM418.72,225.84l67.45-52.2s-52.72-82.89-67.62-102.03c-14.91-19.13-23.05-18.38-23.05-18.38-5.58,20.01-9.16,38.54-11.41,54.9-2.52,19.37-4.04,41.33-3.26,63.23,.24,4.83,.54,7.44,.54,7.44l37.36,47.04Z"/><path id="motif1-4" class="cls-5" d="M380.7,171.37c.07,1.96,.15,3.93,.26,5.89-2.68,44.94-3.88,85.01-3.88,89.18,0,8.71,13.93,188.74,13.93,188.74-31.23,7.55-145.41,7.17-145.41,7.17,0,0-114.17,.38-145.41-7.17,0,0,13.93-180.03,13.93-188.74,0-4.12-1.17-43.33-3.79-87.65,.17-3.32,.28-6.65,.34-9.97,.73-18.66,.22-61.82-14.79-115.57h-.02s-.02-.08-.03-.12l73.14-26.12,41.79,45.28,29.54-25.53h10.58l29.54,25.53,41.79-45.28,73.14,26.12c-3.63,10.89-8.28,30.94-11.41,55.02-4.09,29.73-3.82,52.25-3.26,63.23ZM95.88,53.24c-.46-.03-8.55-.2-23.03,18.38C57.95,90.75,5.23,173.65,5.23,173.65l67.45,52.2,37.36-47.04s.4-3.53,.65-9.99c.87-49.14-9.97-97.54-14.81-115.58ZM418.6,225.85l67.45-52.2s-52.72-82.89-67.62-102.03-23.05-18.38-23.05-18.38c-5.58,20.01-9.16,38.54-11.41,54.9-2.52,19.37-4.04,41.33-3.26,63.23,.24,4.83,.54,7.44,.54,7.44l37.36,47.04Z"/><path id="forme_polo_colclaudine" class="cls-3" d="M271.54,71.39l50.81-44.41,73.14,26.12c-3.63,10.89-8.28,30.94-11.41,55.02-4.09,29.73-3.82,52.25-3.26,63.23,.07,1.96,.15,3.93,.26,5.89-2.68,44.94-3.88,85.01-3.88,89.18,0,8.71,13.93,188.74,13.93,188.74-31.23,7.55-145.41,7.17-145.41,7.17,0,0-114.17,.38-145.41-7.17,0,0,13.93-180.03,13.93-188.74,0-4.12-1.17-43.33-3.79-87.65,.17-3.32,.28-6.65,.34-9.97,.73-18.66,.22-61.82-14.79-115.58h-.02s-.02-.08-.03-.12l73.14-26.12,54.22,44.41h48.21Z"/><path id="colclaudine" class="cls-4" d="M191.11,15.99c.24,6.65,1.93,19.56,9.7,31.68,17.09,25.32,45.13,23.57,45.13,23.57-7.49,20.26-29.1,20.29-29.1,20.29-39.57,.29-46.56-50.8-47.72-64.3-.17-1.94,.98-3.76,2.88-4.6l19.01-6.74c.08-.03,.1,.03,.1,.11Zm107.01-.47c1.43,1.51,1.99,15-7.19,30.06-18.77,28.8-44.99,25.66-44.99,25.66,7.83,20.15,29.44,19.86,29.44,19.86,39.57-.29,46.03-50.82,46.95-64.33,.13-1.94-1.04-3.75-2.96-4.56l-21.17-6.8c-.08-.03-.15,.05-.1,.11Zm-106.99,.76c.13,1.99,.72,12.01,4.28,20.41,0,0,14.82,14.21,49.76,14.14,34.94-.07,48.82-10.93,50.19-14.07,1.77-2.73,5.31-18.57,2.75-20.96-.02-.06-.08-.08-.11-.03-1.14,2.43-11.25,21.03-52.83,21.17-41.56,.13-52.65-18.27-53.93-20.69-.03-.06-.12-.04-.11,.03Z"/><path id="manche_ballons1" class="cls-3" d="M56.57,197.51c-1.47,1.12-3.03,2.24-4.69,3.35,1.45-.97,3.03-2.09,4.69-3.35Zm18.79-20.72c.58-1.03,.85-1.61,.85-1.61-.27,.54-.56,1.08-.85,1.61Zm-17.62,19.82l.03-.02-.03,.02Zm-6.99,5c-.12,.08-.24,.16-.36,.23,.12-.08,.24-.15,.36-.23Zm-13.99-4.6l-9.27-10.42-5.83-6.55,17.2,19.34-2.1-2.37Zm-10.11-11.37c.32-3.95,2.1-6.95,3.37-10.73-2.64,7.53-3.37,10.73-3.37,10.73Zm10.11,11.37c.56-1.61,1.22-3.1,1.91-4.48-1.46,2.77-1.91,4.48-1.91,4.48Zm32.23,14.01c-6.39,2.16-13.18,2.34-16.18,2.3,6.84,.18,12.14-.83,16.18-2.3Zm11.15-7.76c.36-.5,.52-.8,.52-.8-.16,.28-.34,.54-.52,.8Zm-43.38-6.25l-15.1-16.98-6.06,11.88,34.71,38.92,9.18-8.26-10.75-12.08-4.5-5.06-7.49-8.42Zm43.38,6.25c-1.17,1.62-4.44,5.32-11.15,7.76,4.35-1.47,8.51-3.88,11.15-7.76Zm-4.78-26.47c-1.9,3.37-7.19,11.54-17.59,19.79,6.15-4.83,13.04-11.53,17.59-19.79Zm-23.48,24.07c-.38,.26-.76,.5-1.12,.74,.38-.25,.75-.49,1.12-.74Zm59.01-54.92s.43-33.43-14.17-92.6c0,0-15.46-4.02-40.71,36.96C30.76,131.27,6.53,154.65,21.67,180.03l4.99,5.61s0-2.09,3.37-10.73c5.39-14.63,15.25-27.11,15.25-27.11-8.5,11.29-12.93,20.5-15.25,27.11-1.27,3.78-3.05,6.78-3.37,10.73l10.11,11.37s.45-1.7,1.91-4.48c3.07-6.1,6.89-9.76,6.89-9.76-3.42,3.84-5.57,7.24-6.89,9.76-.69,1.37-1.34,2.87-1.91,4.48l2.1,2.37,5.39,6.06c2.18-1.16,4.22-2.37,6.14-3.59,.12-.08,.24-.15,.36-.23,.38-.25,.75-.49,1.12-.74,1.45-.97,3.03-2.09,4.69-3.35,.39-.3,.79-.6,1.17-.91l.03-.02c10.39-8.25,15.68-16.42,17.59-19.79,.29-.53,.58-1.07,.85-1.61,0,0-.27,.59-.85,1.61-4.55,8.27-11.44,14.96-17.59,19.79l-.03,.02c-.39,.31-.78,.61-1.17,.91-1.47,1.12-3.03,2.24-4.69,3.35-.38,.26-.76,.5-1.12,.74-.12,.08-.24,.16-.36,.23-3.65,2.35-6.14,3.59-6.14,3.59l4.5,5.06,2.46,2.77c.54,.03,1.07,.04,1.59,.06,3.01,.05,9.8-.13,16.18-2.3,6.71-2.44,9.98-6.14,11.15-7.76,.18-.26,.36-.53,.52-.8,0,0-.16,.3-.52,.8-2.64,3.88-6.8,6.28-11.15,7.76-4.04,1.47-9.34,2.48-16.18,2.3-1.01-.02-1.59-.06-1.59-.06l10.72,11.5s11.95,10.53,31.77-7.64c19.82-18.16,17.18-71.18,17.18-71.18Zm-80.87,28.96c2.32-6.61,6.75-15.82,15.25-27.11,0,0-10.27,12.3-15.25,27.11Zm8.65,17.63c1.32-2.52,3.47-5.92,6.89-9.76,0,0-3.82,3.66-6.89,9.76Zm11.72,9.31c-1.92,1.22-3.96,2.43-6.14,3.59h0s2.48-1.24,6.14-3.59Zm7.35-5.23c-.39,.31-.78,.61-1.17,.91,.39-.3,.79-.6,1.17-.91Zm-6.53,16.65s.59,.04,1.59,.06c-.53-.01-1.05-.03-1.59-.06Zm-6.96-7.83l-5.39-6.06,5.39,6.06h0Zm0,0l4.5,5.06-4.5-5.06h0Z"/><path id="manche_ballons2" class="cls-3" d="M439.52,200.86c-1.66-1.11-3.22-2.23-4.68-3.35,1.65,1.26,3.24,2.38,4.68,3.35Zm-24.28-25.68s.27,.59,.85,1.61c-.29-.53-.58-1.07-.85-1.61Zm18.4,21.4l.03,.02-.03-.02Zm7.37,5.25c-.12-.08-.24-.16-.36-.23,.13,.08,.24,.15,.36,.23Zm11.5-2.47l17.17-19.34-5.82,6.55-9.25,10.42-2.1,2.37Zm8.83-24.47c1.27,3.78,3.04,6.78,3.36,10.73,0,0-.73-3.21-3.36-10.73Zm-8.64,17.63c.69,1.37,1.34,2.87,1.9,4.48,0,0-.45-1.7-1.9-4.48Zm-14.11,20.78c-3,.05-9.78-.13-16.15-2.3,4.04,1.47,9.32,2.48,16.15,2.3Zm-27.8-10.86s.16,.3,.52,.8c-.18-.26-.36-.53-.52-.8Zm36.34,2.97l-4.49,5.06-10.73,12.08,9.17,8.26,34.64-38.92-6.05-11.88-15.07,16.98-7.48,8.42Zm-24.69,5.59c-6.7-2.44-9.96-6.14-11.13-7.76,2.63,3.88,6.78,6.28,11.13,7.76Zm11.2-14.43c-10.37-8.25-15.65-16.42-17.55-19.79,4.54,8.27,11.42,14.96,17.55,19.79Zm7,5.02c-.36-.24-.74-.48-1.12-.74,.37,.25,.74,.5,1.12,.74Zm-42.87,15.51c19.79,18.16,31.71,7.64,31.71,7.64l10.7-11.5s-.59,.04-1.59,.06c-6.83,.18-12.12-.83-16.15-2.3-4.35-1.47-8.49-3.88-11.13-7.76-.36-.5-.52-.8-.52-.8,.16,.28,.34,.54,.52,.8,1.17,1.62,4.43,5.32,11.13,7.76,6.37,2.16,13.15,2.34,16.15,2.3,.52-.01,1.05-.03,1.59-.06l2.46-2.77,4.49-5.06s-2.48-1.24-6.12-3.59c-.12-.08-.24-.16-.36-.23-.36-.24-.74-.48-1.12-.74-1.66-1.11-3.22-2.23-4.68-3.35-.39-.29-.78-.6-1.17-.91l-.03-.02c-6.13-4.83-13.01-11.53-17.55-19.79-.58-1.03-.85-1.61-.85-1.61,.27,.54,.56,1.08,.85,1.61,1.9,3.37,7.18,11.54,17.55,19.79l.03,.02c.38,.3,.77,.6,1.17,.91,1.65,1.26,3.24,2.38,4.68,3.35,.37,.25,.74,.5,1.12,.74,.13,.08,.24,.15,.36,.23,1.92,1.22,3.95,2.43,6.12,3.59l5.38-6.06,2.1-2.37c-.56-1.61-1.21-3.1-1.9-4.48-1.32-2.52-3.46-5.92-6.87-9.76,0,0,3.81,3.66,6.87,9.76,1.45,2.77,1.9,4.48,1.9,4.48l10.09-11.37c-.32-3.95-2.09-6.95-3.36-10.73-2.31-6.61-6.74-15.82-15.22-27.11,0,0,9.83,12.48,15.22,27.11,3.36,8.64,3.36,10.73,3.36,10.73l4.98-5.61c15.11-25.38-9.08-48.76-34.28-89.74-25.2-40.98-40.63-36.96-40.63-36.96-14.58,59.18-14.15,92.6-14.15,92.6,0,0-2.64,53.01,17.15,71.18Zm48.35-69.33c8.48,11.29,12.91,20.5,15.22,27.11-4.97-14.81-15.22-27.11-15.22-27.11Zm-.29,34.98c3.41,3.84,5.56,7.24,6.87,9.76-3.06-6.1-6.87-9.76-6.87-9.76Zm1.3,22.66h0c-2.17-1.16-4.21-2.37-6.12-3.59,3.65,2.35,6.12,3.59,6.12,3.59Zm-12.29-7.91c-.39-.29-.78-.6-1.17-.91,.38,.3,.77,.6,1.17,.91Zm3.75,15.8c1-.02,1.59-.06,1.59-.06-.54,.03-1.07,.04-1.59,.06Zm8.54-7.88l5.38-6.06-5.38,6.06h0Zm0,0l-4.49,5.06,4.49-5.06h0Z"/><path id="cache_manche1" class="cls-1" d="M0,170.9L80.41,55.31l15.65-3.67s22.05,65.29,13.79,129.28l-36.84,46.43L0,170.9Z"/><path id="cache_manche2" class="cls-1" d="M491.23,171.34l-79.49-115.38-16.56-3.89s-22.05,65.29-13.79,129.28l36.84,46.43,73-56.45Z"/><path id="boutons_colclaudine" class="cls-3" d="M257.26,85.47v65.3h-22.64V85.96c8.79-6.75,11.32-14.72,11.32-14.72h0s3.24,9.02,11.32,14.24Zm-11.32,4.59c-2.92,0-5.29,2.37-5.29,5.29s2.37,5.29,5.29,5.29,5.29-2.37,5.29-5.29-2.37-5.29-5.29-5.29Zm0,26.68c-2.92,0-5.29,2.37-5.29,5.29s2.37,5.29,5.29,5.29,5.29-2.37,5.29-5.29-2.37-5.29-5.29-5.29Z"/><path id="boutons" class="cls-3" d="M257.05,51.94V126.24h-22.64V51.94l6.03-5.21h10.58l6.03,5.21Zm-11.32,13.59c-2.92,0-5.29,2.37-5.29,5.29s2.37,5.29,5.29,5.29,5.29-2.37,5.29-5.29-2.37-5.29-5.29-5.29Zm0,26.68c-2.92,0-5.29,2.37-5.29,5.29s2.37,5.29,5.29,5.29,5.29-2.37,5.29-5.29-2.37-5.29-5.29-5.29Z"/><path id="boutons_triangle_colclaudine" class="cls-3" d="M252.26,100.65l-6.53-11.33-6.53,11.33h13.07Zm.21,26.68l-6.53-11.33-6.53,11.33h13.07Zm4.79-41.85v65.3h-22.64V85.96c8.79-6.75,11.32-14.72,11.32-14.72h0s3.24,9.02,11.32,14.24Z"/><path id="boutons_triangle" class="cls-3" d="M252.26,76.11l-6.53-11.33-6.53,11.33h13.07Zm0,26.68l-6.53-11.33-6.53,11.33h13.07Zm4.79-50.85V126.24h-22.64V51.94l6.03-5.21h10.58l6.03,5.21Z"/><path id="boutons_carrés_colclaudine" class="cls-3" d="M240.14,91.1h11.17v11.17h-11.17v-11.17Zm0,26.93h11.17v11.17h-11.17v-11.17Zm17.12-32.55v65.3h-22.64V85.96c8.79-6.75,11.32-14.72,11.32-14.72h0s3.24,9.02,11.32,14.24Z"/><path id="boutons_carres" class="cls-3" d="M257.05,51.94V126.24h-22.64V51.94l6.03-5.21h10.58l6.03,5.21Zm-16.9,39.97h11.17v11.17h-11.17v-11.17Zm0-26.68h11.17v11.17h-11.17v-11.17Z"/></g></svg>