<?xml version="1.0" encoding="UTF-8"?><svg id="Calque_2" xmlns="http://www.w3.org/2000/svg" xmlns:xlink="http://www.w3.org/1999/xlink" viewBox="0 0 455.37 475.71"><defs><style>.cls-1,.cls-2,.cls-3,.cls-4{fill:none;}.cls-5{fill:url(#MBY);}.cls-6{fill:url(#MBY-2);}.cls-2{stroke-width:.5px;}.cls-2,.cls-7,.cls-4{stroke:#000;}.cls-8{fill:url(#Nouveau_motif-2);}.cls-7,.cls-9{fill:#fff;}.cls-7,.cls-9,.cls-3,.cls-4{stroke-miterlimit:10;}.cls-9{stroke:#010101;}.cls-3{stroke:#1d1d1b;}.cls-10{fill:url(#Nouveau_motif);}</style><pattern id="Nouveau_motif" x="0" y="0" width="83.06" height="83.06" patternTransform="translate(1620.89 4.46)" patternUnits="userSpaceOnUse" viewBox="0 0 83.06 83.06"><g><rect class="cls-1" width="83.06" height="83.06"/><circle class="cls-9" cx="62.3" cy="83.06" r="13.18"/><circle class="cls-9" cx="20.77" cy="83.06" r="13.18"/><circle class="cls-9" cx="83.06" cy="41.53" r="13.18"/><circle class="cls-9" cx="41.53" cy="41.53" r="13.18"/><circle class="cls-9" cx="0" cy="41.53" r="13.18"/><circle class="cls-9" cx="62.3" cy="0" r="13.18"/><circle class="cls-9" cx="20.77" cy="0" r="13.18"/></g></pattern><pattern id="Nouveau_motif-2" patternTransform="translate(1620.89 4.46)" xlink:href="#Nouveau_motif"/><pattern id="MBY" x="0" y="0" width="74.42" height="72.26" patternTransform="translate(1620.89 85.15)" patternUnits="userSpaceOnUse" viewBox="0 0 74.42 72.26"><g><rect class="cls-1" width="74.42" height="72.26"/><g id="motif1" transform="translate(-1115 -318)"><g id="Rectangle_1702" transform="translate(1115 318)"><rect class="cls-2" x="73.86" y="71.81" width="18.04" height="18.04"/></g></g><g id="motif1-2" transform="translate(-1115 -318)"><g id="Rectangle_1702-2" transform="translate(1115 318)"><rect class="cls-2" x="-.56" y="71.81" width="18.04" height="18.04"/></g><g id="Rectangle_1703" transform="translate(1131 318)"><rect class="cls-1" x="16.92" y="71.25" width="19.17" height="19.17"/><rect class="cls-2" x="17.48" y="71.81" width="18.04" height="18.04"/></g><g id="Rectangle_1704" transform="translate(1147 318)"><rect class="cls-1" x="34.96" y="71.25" width="20.29" height="19.17"/><rect class="cls-2" x="35.52" y="71.81" width="19.17" height="18.04"/></g><g id="Rectangle_1705" transform="translate(1164 318)"><rect class="cls-1" x="54.12" y="71.25" width="20.29" height="19.17"/><rect class="cls-2" x="54.69" y="71.81" width="19.17" height="18.04"/></g></g><g id="motif1-3" transform="translate(-1115 -318)"><g id="Rectangle_1702-3" transform="translate(1115 318)"><rect class="cls-2" x="73.86" y="-.45" width="18.04" height="18.04"/></g><g id="Rectangle_1706" transform="translate(1115 334)"><rect class="cls-1" x="73.3" y="17.02" width="19.17" height="19.17"/><rect class="cls-2" x="73.86" y="17.59" width="18.04" height="18.04"/></g><g id="Rectangle_1710" transform="translate(1115 350)"><rect class="cls-1" x="73.3" y="35.06" width="19.17" height="19.17"/><rect class="cls-2" x="73.86" y="35.62" width="18.04" height="18.04"/></g><g id="Rectangle_1714" transform="translate(1115 366)"><rect class="cls-1" x="73.3" y="53.1" width="19.17" height="19.17"/><rect class="cls-2" x="73.86" y="53.66" width="18.04" height="18.04"/></g></g><g><rect class="cls-2" x="-.56" y="-.45" width="18.04" height="18.04"/><g><rect class="cls-1" x="16.92" y="-1.02" width="19.17" height="19.17"/><rect class="cls-2" x="17.48" y="-.45" width="18.04" height="18.04"/></g><g><rect class="cls-1" x="34.96" y="-1.02" width="20.29" height="19.17"/><rect class="cls-2" x="35.52" y="-.45" width="19.17" height="18.04"/></g><g><rect class="cls-1" x="54.12" y="-1.02" width="20.29" height="19.17"/><rect class="cls-2" x="54.69" y="-.45" width="19.17" height="18.04"/></g><g><rect class="cls-1" x="-1.12" y="17.02" width="19.17" height="19.17"/><rect class="cls-2" x="-.56" y="17.59" width="18.04" height="18.04"/></g><g><rect class="cls-1" x="16.92" y="17.02" width="19.17" height="19.17"/><rect class="cls-2" x="17.48" y="17.59" width="18.04" height="18.04"/></g><g><rect class="cls-1" x="34.96" y="17.02" width="20.29" height="19.17"/><rect class="cls-2" x="35.52" y="17.59" width="19.17" height="18.04"/></g><g><rect class="cls-1" x="54.12" y="17.02" width="20.29" height="19.17"/><rect class="cls-2" x="54.69" y="17.59" width="19.17" height="18.04"/></g><g><rect class="cls-1" x="-1.12" y="35.06" width="19.17" height="19.17"/><rect class="cls-2" x="-.56" y="35.62" width="18.04" height="18.04"/></g><g><rect class="cls-1" x="16.92" y="35.06" width="19.17" height="19.17"/><rect class="cls-2" x="17.48" y="35.62" width="18.04" height="18.04"/></g><g><rect class="cls-1" x="34.96" y="35.06" width="20.29" height="19.17"/><rect class="cls-2" x="35.52" y="35.62" width="19.17" height="18.04"/></g><g><rect class="cls-1" x="54.12" y="35.06" width="20.29" height="19.17"/><rect class="cls-2" x="54.69" y="35.62" width="19.17" height="18.04"/></g><g><rect class="cls-1" x="-1.12" y="53.1" width="19.17" height="19.17"/><rect class="cls-2" x="-.56" y="53.66" width="18.04" height="18.04"/></g><g><rect class="cls-1" x="16.92" y="53.1" width="19.17" height="19.17"/><rect class="cls-2" x="17.48" y="53.66" width="18.04" height="18.04"/></g><g><rect class="cls-1" x="34.96" y="53.1" width="20.29" height="19.17"/><rect class="cls-2" x="35.52" y="53.66" width="19.17" height="18.04"/></g><g><rect class="cls-1" x="54.12" y="53.1" width="20.29" height="19.17"/><rect class="cls-2" x="54.69" y="53.66" width="19.17" height="18.04"/></g></g></g></pattern><pattern id="MBY-2" patternTransform="translate(1620.89 85.15)" xlink:href="#MBY"/></defs><g id="tshirt"><path id="forme_tshirt" class="cls-4" d="M363.67,215.08s-13.2,46.88-5.94,94.41c7.26,47.54,7.92,165.72,7.92,165.72H90.03s.66-118.18,7.92-165.72c7.26-47.54-5.94-94.41-5.94-94.41l-44.24,9.24L1.37,116.71l97.25-48.86,73.95-25.82c13.87,20.4,55.28,19.21,55.28,19.21,0,0,41.42,1.19,55.28-19.21l73.95,25.82,97.25,48.86-46.41,107.62-44.24-9.24Zm-271.66,0l6.6-5.68c31.31-32.39,0-141.55,0-141.55,0,0,35.18,122.28-6.6,147.23ZM227.84,75.13c-35.72,.03-52.05-14.41-52.05-14.41-2.44-6.08-3.23-18.69-3.23-18.69,0,0,0,54.82,55.28,54.6m69.35-49.69s-3.07,65.21-69.35,65.32S158.49,46.94,158.49,46.94c0,0,3.07,65.21,69.35,65.32m129.23-44.42s-31.31,109.17,0,141.55l6.6,5.68c-42.46-25.75-6.6-147.23-6.6-147.23Zm-129.23,7.29c35.7,.32,51.5-13.97,51.5-13.97,3.24-7.68,3.78-19.13,3.78-19.13,0,0-.95,54.6-55.28,54.6,0,0-40.55,2.46-52.05-35.91,0,0,15.87,14.09,52.05,14.41Z"/><path id="motif5" class="cls-1" d="M112.96,158.69l115.3,111.8m114.67-111.19l-114.67,111.19m-125.68-65.97l125.68,121.87m125.22-121.43l-125.22,121.43" transform="translate(-1684 -307)"/><path id="motif4" class="cls-4" d="M115.99,61.75V474.73M144.14,51.92V474.73M172.3,42.03V474.73M200.45,58.17V474.73M228.18,61.25V474.73m28.15-416.77V474.73m28.16-432.7V474.73m28.15-421.98V474.73m28.84-411.91V474.43m28.15-399.76V216.33m28.16-127.64V222.21m28.15-119.24v79.9M31.03,101.68v83.81m28.16-97.95V221.94m28.15-148.56V216.06"/><path id="motif4_colrond" class="cls-4" d="M115.99,61.75V474.73M144.14,51.92V474.73m28.16-388.81V474.73m28.15-366.98V474.73m27.72-362.52V474.73m28.15-367.98V474.73m28.16-390.18V474.73m28.15-421.98V474.73m28.84-411.91V474.43m28.15-399.76V216.33m28.16-127.64V222.21m28.15-119.24v79.9M31.03,101.68v83.81m28.16-97.95V221.94m28.15-148.56V216.06"/><path id="motif3_colrond" class="cls-4" d="M433.51,165.27H23.01m398.37,28.15H34.59m327.62,28.16H93.75m263.7,28.15H98.36m257.35,27.72H100.27m255.44,28.15H98.36m262.25,28.16H95.36m267.19,28.15H93.42m270.4,28.84H92.15m-1.05,30.38l273.71-1.93m.62,27.86H90.54M168.29,80.31H74.26m307.75,0h-95.06m-84.46,28.16H18.4m419.66,0H252.97m192.9,28.15H10.37"/><path id="motif3" class="cls-4" d="M433.37,165.27H22.87m398.37,28.15H34.45m327.62,28.16H93.61m263.7,28.15H98.22m257.35,27.72H100.13m255.44,28.15H98.22m262.25,28.16H95.22m267.19,28.15H93.27m270.4,28.84H92.01m272.66,28.45l-273.71,1.93m274.33,25.93H90.39M381.87,80.31H74.12m363.8,28.16H18.26m427.47,28.15H10.22"/><path id="motif2" class="cls-10" d="M363.67,214.84s-13.2,46.88-5.94,94.41c7.26,47.54,7.92,165.72,7.92,165.72H90.03s.66-118.18,7.92-165.72c7.26-47.54-5.94-94.41-5.94-94.41l-44.24,9.24L1.37,116.47l97.25-48.86,73.95-25.82c13.87,20.4,55.28,19.21,55.28,19.21,0,0,41.42,1.19,55.28-19.21l73.95,25.82,97.25,48.86-46.41,107.62-44.24-9.24Zm-271.66,0l6.6-5.68c31.31-32.39,0-141.55,0-141.55,0,0,35.18,122.28-6.6,147.23ZM227.84,74.89c-35.72,.03-52.05-14.41-52.05-14.41-2.44-6.08-3.23-18.69-3.23-18.69,0,0,0,54.82,55.28,54.6m69.35-49.69s-3.07,65.21-69.35,65.32S158.49,46.7,158.49,46.7c0,0,3.07,65.21,69.35,65.32m129.23-44.42s-31.31,109.17,0,141.55l6.6,5.68c-42.46-25.75-6.6-147.23-6.6-147.23Zm-129.23,7.29c35.7,.32,51.5-13.97,51.5-13.97,3.24-7.68,3.78-19.13,3.78-19.13,0,0-.95,54.6-55.28,54.6,0,0-40.55,2.46-52.05-35.91,0,0,15.87,14.09,52.05,14.41Z"/><path id="motif2_colrond" class="cls-8" d="M363.67,214.84s-13.2,46.88-5.94,94.41c7.26,47.54,7.92,165.72,7.92,165.72H90.03s.66-118.18,7.92-165.72c7.26-47.54-5.94-94.41-5.94-94.41l-44.24,9.24L1.37,116.47l97.44-48.15,59.21-20.73c8.06,69.71,69.82,65.49,69.82,65.49,0,0,61.18,4.07,69.87-65.38l59.36,19.92,97.25,48.86-46.41,107.62-44.24-9.24Zm-271.66,0l6.6-5.68c31.31-32.39,0-141.55,0-141.55,0,0,35.18,122.28-6.6,147.23ZM357.07,67.61s-31.31,109.17,0,141.55l6.6,5.68c-42.46-25.75-6.6-147.23-6.6-147.23Z"/><path id="motif1-4" class="cls-5" d="M363.67,215.08s-13.2,46.88-5.94,94.41c7.26,47.54,7.92,165.72,7.92,165.72H90.03s.66-118.18,7.92-165.72c7.26-47.54-5.94-94.41-5.94-94.41l-44.24,9.24L1.37,116.71l97.25-48.86,73.95-25.82c13.87,20.4,55.28,19.21,55.28,19.21,0,0,41.42,1.19,55.28-19.21l73.95,25.82,97.25,48.86-46.41,107.62-44.24-9.24Zm-271.66,0l6.6-5.68c31.31-32.39,0-141.55,0-141.55,0,0,35.18,122.28-6.6,147.23ZM227.84,75.13c-35.72,.03-52.05-14.41-52.05-14.41-2.44-6.08-3.23-18.69-3.23-18.69,0,0,0,54.82,55.28,54.6m69.35-49.69s-3.07,65.21-69.35,65.32S158.49,46.94,158.49,46.94c0,0,3.07,65.21,69.35,65.32m129.23-44.42s-31.31,109.17,0,141.55l6.6,5.68c-42.46-25.75-6.6-147.23-6.6-147.23Zm-129.23,7.29c35.7,.32,51.5-13.97,51.5-13.97,3.24-7.68,3.78-19.13,3.78-19.13,0,0-.95,54.6-55.28,54.6,0,0-40.55,2.46-52.05-35.91,0,0,15.87,14.09,52.05,14.41Z"/><path id="motif1_colrond" class="cls-6" d="M297.65,47.79l59.26,20.65,97.41,48.27-46.41,107.62-44.24-9.24s-13.2,46.88-5.94,94.41c7.26,47.54,7.92,165.72,7.92,165.72H90.03s.66-118.18,7.92-165.72c7.26-47.54-5.94-94.41-5.94-94.41l-44.24,9.24L1.37,116.71l97.39-48.33,59.23-20.69s2.58,64.58,69.85,65.12c65.77,.44,69.8-65.02,69.8-65.02ZM92.01,215.08l6.6-5.68c31.31-32.39,0-141.55,0-141.55,0,0,35.18,122.28-6.6,147.23ZM357.07,67.85s-31.31,109.17,0,141.55l6.6,5.68c-42.46-25.75-6.6-147.23-6.6-147.23Z"/><path id="cache_col_rond" class="cls-1" d="M156.68,48.12l9.78-3.41s1.62,2.99,8.8,6.76c5.78,3.04,16.84,10.14,54.58,10.11,13.73-.06,24.22-1.81,31.03-3.38,9.02-2.08,14.3-4.58,17.99-6.57,1.81-.86,6.11-3.49,8.51-5.66,.56-.51,1-.93,.9-1.61h0l9.53,3.32s1.5,66.65-69.94,66.84c-71.45,.19-71.16-66.4-71.16-66.4Z"/><path id="cache_manche1" class="cls-1" d="M0,116.21l99.28-49.69s17.55,62.63,13.87,97.48c-4.52,42.83-22.07,52.36-22.07,52.36l-43.92,9.18L0,116.21Z"/><path id="cache_manche2" class="cls-1" d="M408.21,224.99l-43.92-9.18s-22.38-4.75-22.23-51.97c-1.85-35.93,14.25-97.36,14.25-97.36l99.05,49.2-47.16,109.31Z"/><path id="couture2" class="cls-7" d="M390.56,220.71l48.58-111.84"/><path id="couture1" class="cls-7" d="M17.66,108.41l48.58,111.84"/><path id="col_boutons" class="cls-4" d="M216.45,111.47v79.52h22.64V111.47h-22.64Zm11.32,68.74c-2.92,0-5.29-2.37-5.29-5.29s2.37-5.29,5.29-5.29,5.29,2.37,5.29,5.29-2.37,5.29-5.29,5.29Zm0-23.68c-2.92,0-5.29-2.37-5.29-5.29s2.37-5.29,5.29-5.29,5.29,2.37,5.29,5.29-2.37,5.29-5.29,5.29Zm0-23.68c-2.92,0-5.29-2.37-5.29-5.29s2.37-5.29,5.29-5.29,5.29,2.37,5.29,5.29-2.37,5.29-5.29,5.29Zm5.29-5.29c0,2.92-2.37,5.29-5.29,5.29s-5.29-2.37-5.29-5.29,2.37-5.29,5.29-5.29,5.29,2.37,5.29,5.29Zm0,23.68c0,2.92-2.37,5.29-5.29,5.29s-5.29-2.37-5.29-5.29,2.37-5.29,5.29-5.29,5.29,2.37,5.29,5.29Zm0,23.68c0,2.92-2.37,5.29-5.29,5.29s-5.29-2.37-5.29-5.29,2.37-5.29,5.29-5.29,5.29,2.37,5.29,5.29Z"/><path id="colV" class="cls-4" d="M173.22,58.21c-.38-5.83-.43-11.31-.58-16.18l.58,16.18Zm110.19-16.11s-.02,.48-.07,1.27c-.1,2.04-.24,4.05-.42,6.01-.3,3.6-.73,7.66-1.27,9.97h0c-9.7,57.87-53.52,74.92-53.52,74.92-45.53-19.67-53.19-50.75-54.86-75.51l-.02-.02-.02-.53c-.38-5.83-.43-11.31-.58-16.18l-14.07,4.91c-1.26,33.04,4.24,75.17,69.55,99.64,0,0,69.15-21.37,69.15-99.69l-13.86-4.78Zm-110.19,16.11c.4,.43,16.65,17.09,55.47,17.06,38.94-.04,52.68-16.27,52.95-16.59,.03-.15,.97-6.02,1.27-9.3,.19-2.35,.45-6.49,.49-7.2,0-.02-.02-.03-.03-.01-.73,1.23-12.9,19.08-55.53,19.08s-54.37-17.76-55.16-19.14c-.01-.02-.04,0-.04,.02,0,0,.57,15.96,.58,16.09Z"/><path id="colclaudine" class="cls-4" d="M175.08,40.29c.23,6.65,1.87,19.56,9.4,31.68,16.56,25.32,43.73,23.57,43.73,23.57-7.26,20.26-28.2,20.29-28.2,20.29-38.35,.29-45.12-50.8-46.24-64.3-.16-1.94,.95-3.76,2.79-4.6l18.42-6.74c.08-.03,.09,.03,.1,.11Zm103.69-.47c1.38,1.51,1.93,15-6.97,30.06-18.19,28.8-43.59,25.66-43.59,25.66,7.59,20.15,28.53,19.86,28.53,19.86,38.35-.29,44.6-50.82,45.5-64.33,.13-1.94-1.01-3.75-2.86-4.56l-20.51-6.8c-.08-.03-.15,.05-.09,.11Zm-103.67,.76c.13,1.99,.7,12.01,4.15,20.41,0,0,14.36,14.21,48.22,14.14s47.31-10.93,48.63-14.07c1.72-2.73,5.14-18.57,2.66-20.96-.02-.06-.08-.08-.1-.03-1.11,2.43-10.9,21.03-51.19,21.17-40.27,.13-51.02-18.27-52.26-20.69-.03-.06-.11-.04-.11,.03Z"/><path id="colmontant" class="cls-4" d="M287.36,45.3c-5.34,4.65-21.06,15.78-58.95,15.78s-55.09-10.09-61.06-15.74c-.72-.68-.4-1.29,.4-1.95,13.23-11.08,11.46-15.67,18.43-39.67,.04-.15,.19-.23,.31-.15,1.87,1.16,15.58,9.08,43.88,9.08s37.39-7.5,39.06-8.97c.12-.11,.29-.03,.32,.15,.47,3.55,4.36,29.86,16.94,39.22,.96,.72,1.5,1.53,.66,2.26ZM269.51,3.41c-60.53-6.28-79.34-.52-82.86-.04-.12,.02-.15,.2-.04,.26,2.35,1.37,16.65,9.01,43.76,9.01s37.89-7.97,39.19-9.09c.05-.05,.02-.14-.05-.14Z"/><path id="manche_volants2" class="cls-3" d="M417.94,114.94s-6.58,11.87-3.48,26.34c0,0-27.23-5.27-46.64-15.5,0,0,17.88,9.56,46.64,15.5,.69,.14,1.4,.2,2.1,.14,.85-.07,2.07,.13,1.56,2.09-.68,2.59-3.46,22.19-17.42,31.17,0,0-15.29-12.26-24.92-15.22,0,0,10.5,3.49,24.92,15.22,.35,18.98-24.92,22.91-24.92,22.91,0,0-5.29,12.74-11.93,17.72,0,0-30.94-12.12-18.2-94.38,0,0,3.31-23.53,11.51-53.34,0,0,35.19,2.04,60.78-5.58,0,0,10.96,11.19,6.12,17.48,0,0-8.31,2.33-23.36-.46,0,0,12.93,2.75,23.36,.46,0,0,5.92-1.19,5.27,4.54-.65,5.74-2.7,24.27-11.39,30.91,0,0-25.69-.94-43.31-18.02,0,0,12.21,14.63,43.31,18.02"/><path id="manche_volants1" class="cls-3" d="M37.78,115.03c31.11-3.38,43.31-18.02,43.31-18.02-17.63,17.07-43.31,18.02-43.31,18.02-8.69-6.64-10.74-25.17-11.39-30.91-.65-5.74,5.27-4.54,5.27-4.54,10.42,2.29,23.36-.46,23.36-.46-15.05,2.79-23.36,.46-23.36,.46-4.84-6.29,6.12-17.48,6.12-17.48,25.59,7.62,60.78,5.58,60.78,5.58,8.19,29.81,11.51,53.34,11.51,53.34,12.75,82.26-18.2,94.38-18.2,94.38-6.64-4.98-11.93-17.72-11.93-17.72,0,0-25.28-3.94-24.92-22.91,14.42-11.73,24.92-15.22,24.92-15.22-9.63,2.96-24.92,15.22-24.92,15.22-13.96-8.98-16.73-28.58-17.42-31.17-.52-1.95,.71-2.16,1.56-2.09,.7,.06,1.41,0,2.1-.14,28.76-5.93,46.64-15.5,46.64-15.5-19.41,10.23-46.64,15.5-46.64,15.5,3.1-14.46-3.48-26.34-3.48-26.34"/><path id="manche_ballons2" class="cls-3" d="M401.58,198.01c-1.65-.98-3.2-1.97-4.65-2.96,1.64,1.11,3.21,2.1,4.65,2.96Zm-24.12-22.7s.27,.52,.84,1.42c-.29-.47-.57-.94-.84-1.42Zm18.28,18.92l.03,.02-.03-.02Zm7.32,4.64c-.12-.07-.24-.14-.36-.21,.12,.07,.24,.14,.36,.21Zm11.42-2.18l17.05-17.1-5.78,5.79-9.19,9.21-2.09,2.09Zm8.77-21.63c1.26,3.35,3.02,6,3.34,9.49,0,0-.72-2.83-3.34-9.49Zm-8.58,15.58c.69,1.21,1.33,2.54,1.89,3.96,0,0-.45-1.51-1.89-3.96Zm-14.02,18.37c-2.98,.04-9.71-.12-16.04-2.03,4.01,1.3,9.26,2.19,16.04,2.03Zm-27.62-9.6s.16,.27,.52,.71c-.18-.23-.36-.46-.52-.71Zm36.1,2.63l-4.46,4.47-10.65,10.68,9.1,7.3,34.4-34.4-6-10.5-14.97,15.01-7.43,7.44Zm-24.52,4.94c-6.65-2.16-9.9-5.43-11.05-6.86,2.62,3.43,6.74,5.55,11.05,6.86Zm11.12-12.75c-10.3-7.29-15.55-14.52-17.43-17.49,4.51,7.31,11.34,13.22,17.43,17.49Zm6.96,4.44c-.36-.21-.73-.43-1.12-.66,.37,.22,.74,.44,1.12,.66Zm-42.58,13.71c19.65,16.05,31.5,6.75,31.5,6.75l10.63-10.16s-.58,.04-1.58,.05c-6.78,.16-12.03-.73-16.04-2.03-4.32-1.3-8.44-3.43-11.05-6.86-.36-.44-.52-.71-.52-.71,.16,.24,.34,.48,.52,.71,1.16,1.43,4.4,4.7,11.05,6.86,6.33,1.91,13.06,2.07,16.04,2.03,.52-.01,1.04-.02,1.58-.05l2.44-2.45,4.46-4.47s-2.46-1.1-6.08-3.17c-.12-.07-.24-.14-.36-.21-.36-.21-.73-.43-1.12-.66-1.65-.98-3.2-1.97-4.65-2.96-.38-.26-.77-.53-1.16-.8l-.03-.02c-6.09-4.27-12.93-10.19-17.43-17.49-.58-.91-.84-1.42-.84-1.42,.27,.48,.55,.95,.84,1.42,1.89,2.98,7.13,10.2,17.43,17.49l.03,.02c.38,.27,.77,.53,1.16,.8,1.64,1.11,3.21,2.1,4.65,2.96,.37,.22,.74,.44,1.12,.66,.12,.07,.24,.14,.36,.21,1.9,1.08,3.92,2.14,6.08,3.17l5.34-5.35,2.09-2.09c-.56-1.42-1.21-2.74-1.89-3.96-1.31-2.23-3.44-5.23-6.83-8.63,0,0,3.79,3.24,6.83,8.63,1.44,2.45,1.89,3.96,1.89,3.96l10.03-10.05c-.32-3.49-2.08-6.14-3.34-9.49-2.3-5.84-6.69-13.99-15.11-23.97,0,0,9.77,11.03,15.11,23.97,3.34,7.64,3.34,9.49,3.34,9.49l4.94-4.96c15.01-22.43-9.02-43.1-34.05-79.32-25.03-36.22-40.35-32.67-40.35-32.67-14.48,52.31-14.05,81.85-14.05,81.85,0,0-2.62,46.86,17.03,62.91Zm48.02-61.28c8.42,9.98,12.82,18.12,15.11,23.97-4.93-13.09-15.11-23.97-15.11-23.97Zm-.29,30.92c3.39,3.4,5.52,6.4,6.83,8.63-3.04-5.39-6.83-8.63-6.83-8.63Zm1.29,20.03h0c-2.16-1.03-4.18-2.09-6.08-3.17,3.62,2.08,6.08,3.17,6.08,3.17Zm-12.21-6.99c-.38-.26-.77-.53-1.16-.8,.38,.27,.77,.53,1.16,.8Zm3.73,13.96c1-.01,1.58-.05,1.58-.05-.54,.02-1.06,.04-1.58,.05Zm8.48-6.97l5.34-5.35-5.34,5.35h0Zm0,0l-4.46,4.47,4.46-4.47h0Z"/><path id="manche_ballons1" class="cls-3" d="M58.77,195.05c-1.45,.99-3,1.98-4.65,2.96,1.44-.86,3.01-1.85,4.65-2.96Zm18.63-18.32c.58-.91,.84-1.42,.84-1.42-.27,.48-.55,.95-.84,1.42Zm-17.46,17.52l.03-.02-.03,.02Zm-6.93,4.42c-.12,.07-.24,.14-.36,.21,.12-.07,.24-.13,.36-.21Zm-13.87-4.07l-9.19-9.21-5.78-5.79,17.05,17.1-2.09-2.09Zm-10.03-10.05c.32-3.49,2.08-6.14,3.34-9.49-2.61,6.65-3.34,9.49-3.34,9.49Zm10.03,10.05c.56-1.42,1.21-2.74,1.89-3.96-1.44,2.45-1.89,3.96-1.89,3.96Zm31.95,12.38c-6.33,1.91-13.06,2.07-16.04,2.03,6.78,.16,12.03-.73,16.04-2.03Zm11.05-6.86c.36-.44,.52-.71,.52-.71-.16,.24-.34,.48-.52,.71Zm-43-5.53l-14.97-15.01-6,10.5,34.4,34.4,9.1-7.3-10.65-10.68-4.46-4.47-7.43-7.44Zm43,5.53c-1.16,1.43-4.4,4.7-11.05,6.86,4.32-1.3,8.44-3.43,11.05-6.86Zm-4.74-23.39c-1.89,2.98-7.13,10.2-17.43,17.49,6.09-4.27,12.93-10.19,17.43-17.49Zm-23.28,21.28c-.38,.23-.75,.45-1.12,.66,.38-.22,.75-.44,1.12-.66Zm58.5-48.55s.43-29.55-14.05-81.85c0,0-15.32-3.55-40.35,32.67-25.03,36.22-49.05,56.89-34.05,79.32l4.94,4.96s0-1.85,3.34-9.49c5.35-12.93,15.11-23.97,15.11-23.97-8.42,9.98-12.82,18.12-15.11,23.97-1.26,3.35-3.02,6-3.34,9.49l10.03,10.05s.45-1.51,1.89-3.96c3.04-5.39,6.83-8.63,6.83-8.63-3.39,3.4-5.52,6.4-6.83,8.63-.69,1.21-1.33,2.54-1.89,3.96l2.09,2.09,5.34,5.35c2.16-1.03,4.18-2.09,6.08-3.17,.12-.07,.24-.13,.36-.21,.38-.22,.75-.44,1.12-.66,1.44-.86,3.01-1.85,4.65-2.96,.39-.27,.78-.53,1.16-.8l.03-.02c10.3-7.29,15.55-14.52,17.43-17.49,.29-.47,.57-.94,.84-1.42,0,0-.27,.52-.84,1.42-4.51,7.31-11.34,13.22-17.43,17.49l-.03,.02c-.39,.27-.78,.54-1.16,.8-1.45,.99-3,1.98-4.65,2.96-.38,.23-.75,.45-1.12,.66-.12,.07-.24,.14-.36,.21-3.62,2.08-6.08,3.17-6.08,3.17l4.46,4.47,2.44,2.45c.54,.02,1.06,.04,1.58,.05,2.98,.04,9.71-.12,16.04-2.03,6.65-2.16,9.9-5.43,11.05-6.86,.18-.23,.36-.46,.52-.71,0,0-.16,.27-.52,.71-2.62,3.43-6.74,5.55-11.05,6.86-4.01,1.3-9.26,2.19-16.04,2.03-1-.01-1.58-.05-1.58-.05l10.63,10.16s11.85,9.3,31.5-6.75c19.65-16.05,17.03-62.91,17.03-62.91Zm-80.17,25.6c2.3-5.84,6.69-13.99,15.11-23.97,0,0-10.18,10.87-15.11,23.97Zm8.58,15.58c1.31-2.23,3.44-5.23,6.83-8.63,0,0-3.79,3.24-6.83,8.63Zm11.62,8.23c-1.9,1.08-3.92,2.14-6.08,3.17h0s2.46-1.1,6.08-3.17Zm7.29-4.62c-.39,.27-.78,.54-1.16,.8,.39-.27,.78-.53,1.16-.8Zm-6.47,14.71s.58,.04,1.58,.05c-.52-.01-1.04-.02-1.58-.05Zm-6.9-6.92l-5.34-5.35,5.34,5.35h0Zm0,0l4.46,4.47-4.46-4.47h0Z"/><path id="poche" class="cls-4" d="M263.93,168.41h55.15v58.46c0,3.94-3.19,7.13-7.13,7.13h-40.88c-3.94,0-7.13-3.19-7.13-7.13v-58.46Zm0,13.44h55.15"/></g></svg>