<?xml version="1.0" encoding="UTF-8"?><svg xmlns="http://www.w3.org/2000/svg" width="1220.2231" height="390.1486" viewBox="0 0 1220.2231 390.1486"><defs><style>.d{fill:#1d1d1b;}</style></defs><g id="a"/><g id="b"><g id="c"><g><path class="d" d="M1193.838,284.803c3.3354-10.0173,5.8536-26.6466,5.8536-38.6813,0-28.4321-10.2235-52.5228-28.2149-70.1874l.1951-.1951-62.9312-62.968-.1933,.1935c-20.7663-20.3878-51.885-32.2113-89.6496-32.2113-29.0119-.5336-57.3961,7.3192-81.7464,21.9998l6.3055-39.7851h-1.4284L880.3304,1.2333l.1951-1.2333h-53.2048l-20.7083,126.4846c-15.8009-28.4542-49.2398-45.2859-90.5755-45.2859-38.1291-.821-76.0226,14.6339-103.9356,42.5432-4.8494,4.8501-9.2773,9.9646-13.3178,15.2823l-48.2771-48.3084v-1.1049h-53.3631v114.3578c0,47.8114-33.6745,78.7027-85.7932,78.7027-1.7459,0-3.421-.1056-5.1117-.1898-.0028-.3166-.0387-.6143-.0387-.933V152.579h-1.1044l-61.8231-61.8631v-1.1049h-53.3557l-.1786,54.121-40.8203-40.8465c-.3148-.2954-.5927-.6245-.9139-.9144l-.6599-.6604-.0709,.0711c-14.898-13.0552-36.3169-20.183-63.0739-20.183-32.109,0-61.0445,9.4119-83.9562,26.8605l-17.3232-17.3347,.0129-1.1136H36.0159L0,318.3229H1.4247l61.697,61.7368-.1942,1.2312h52.9691l18.4-116.6956c3.9097-23.0166,14.2694-41.1847,31.646-55.5241,13.8957-11.1169,30.1697-17.7491,48.4492-19.9536l-20.4442,129.2053h1.4247l61.6979,61.7375-.1951,1.2305h53.4109l12.1682-76.7377,52.0423,52.0736c18.0623,21.3365,46.591,33.0799,83.3984,33.0799,36.2699,0,66.5961-10.4888,87.9837-29.9222l20.5003,20.5137,.1491,.9926h46.9057v-70.2286l43.4323,43.4606c19.4336,22.3602,50.0865,35.1839,88.4016,35.1839,31.4178,0,61.1936-10.004,84.1679-27.5405l17.9988,18.0103-.0129,1.1143h45.5841l13.0269-82.1923,53.3649,53.3994,.3645-.3649c22.9264,23.8226,58.6239,38.0154,101.6604,38.0154,27.0442,0,52.7703-5.1173,76.4607-15.2045,24.4892-10.4333,43.3568-23.7308,56.0763-39.5207l1.1229-1.3953-1.2996-1.1594-46.7465-46.7771h46.371l.4307-1.2885Zm-2.6912-4.1654l-41.6965-41.7234c-1.1302-13.1567-6.0708-24.7936-14.6311-34.0629,1.1974-7.4021,1.9447-15.2082,1.9447-21.694,0-9.414-1.1293-18.3483-3.2793-26.7363,38.7154,14.8598,62.437,47.273,62.437,89.7007,0,10.5778-2.0027,24.734-4.7749,34.516Zm-58.1527-97.4803c0,5.5563-.5522,12.1144-1.4763,18.5066-11.1466-10.2771-26.6548-16.6051-44.7659-18.1469,.3267-13.6288-3.2038-25.8824-10.3302-35.9759,.9682-.0189,1.9337-.072,2.9038-.072,.821,0,1.6456,.0074,2.4666,.0221,17.3471,0,33.2373,2.5706,47.3061,7.3563,2.5384,8.8155,3.8959,18.2744,3.8959,28.3099Zm-5.2461,36.1963h-6.7242l-31.7012-31.7192c17.0103,1.9779,31.4398,8.3475,41.4774,18.5089-.8458,4.8499-1.8877,9.4389-3.0519,13.2103Zm-43.6881-31.6534l31.635,31.6534h-109.1577c13.6288-17.2678,34.501-28.7289,58.8614-31.6534h18.6614Zm-1.0308-4.3575c-1.7331-.0849-3.4459-.2112-5.2203-.2112-4.277,0-8.449,.3184-12.5557,.7989h-83.8034c24.9945-21.7053,57.0445-34.5976,90.419-36.2725,7.6501,9.7789,11.4724,21.9807,11.1604,35.6848Zm-107.2553,.5877h-46.1409c9.848-35.9902,43.7875-59.9971,85.2484-59.9971,22.5159,0,41.6412,7.12,53.8564,20.0493,.0368,.0387,.0663,.0817,.1031,.1203-34.6133,2.3821-67.6997,16.4772-93.0669,39.8274Zm-3.9622,3.7698c-.1712,.1693-.3525,.3267-.5228,.497-6.6856,6.6916-12.5585,13.8801-17.6076,21.4458l-21.9297-21.9428h40.06Zm2.1426,3.1587c1.0814-1.0824,2.207-2.1132,3.3207-3.1587h69.7549c-18.6716,5.7806-34.3887,16.8421-45.2316,31.6534h-38.4117l-6.9782-6.9817c5.005-7.5951,10.8512-14.8113,17.5459-21.513Zm15.2542,54.332l-22.0539-22.0675h32.0206c-4.3478,6.7042-7.7063,14.1038-9.9667,22.0675Zm-31.1509-25.8373h-5.9309c.716-1.2517,1.4367-2.5013,2.1988-3.7342l3.7321,3.7342Zm3.7671,3.7698l26.2259,26.2409-.3129,1.3003h105.3078c-19.3802,17.6042-49.9549,29.606-80.8076,31.6571h-18.7001c-3.051-.2202-6.0247-.5644-8.9368-.9986l-41.7995-41.8265c1.9972-5.5903,4.4242-11.0543,7.236-16.3732h11.7872Zm166.3808,52.5759l6.6175,6.6223h-12.9561c2.2475-2.1509,4.3515-4.3626,6.3386-6.6223Zm-25.0184-25.0348l22.3595,22.374c-2.7988,3.1997-5.8296,6.3061-9.1715,9.2831h-78.8601c24.1247-5.6948,46.2431-16.9776,61.004-31.6571h4.6681Zm-163.3105-14.0952l-13.4374-13.4459h19.3655c-2.2374,4.3918-4.2236,8.8756-5.9281,13.4459Zm-1.3861,3.9461c-1.5858,4.7236-2.8955,9.5219-3.9042,14.3847-6.2953-8.3243-9.905-18.1446-10.6229-28.921l14.5271,14.5363Zm2.982,2.9836l36.5571,36.5808c-15.8414-3.3812-29.2107-10.0247-38.7292-19.652-.5669-.5732-1.0649-1.188-1.6014-1.7795,.9268-5.1214,2.1886-10.177,3.7735-15.1493Zm-5.6916,38.4581c-.1104-6.2585,.2752-12.4761,1.1357-18.6147,11.1457,11.1305,27.0368,18.533,45.9265,21.5544l.1187,.1187c.0193,14.627,4.9231,27.7883,14.2013,38.3709-20.862-.147-39.9155-3.7215-56.5089-10.1701-3.1753-9.7177-4.8734-20.1658-4.8734-31.2261v-.0331Zm50.9296,4.1343h6.9396c3.0381,.2105,6.1186,.3497,9.2737,.3497,3.1329,0,6.2742-.1431,9.4145-.3497h99.5436c-10.5355,8.4904-23.3526,16.0034-38.4061,22.4165-22.1423,9.4299-46.1271,14.3725-71.313,14.8157-9.8627-10.0111-15.1843-22.8491-15.4521-37.2322Zm88.2451,25.8845c17.0637-7.2695,31.3285-15.9597,42.7558-25.8845h20.8795l22.4856,22.5005c-20.5261,22.2051-58.4785,37.0474-95.2252,37.0474-24.4644,0-45.3227-6.6246-59.5765-18.6439,24.1984-.8909,47.2767-5.9056,68.6808-15.0195Zm25.6673-69.0535l-1.2554,1.4211c-.7667,.8686-1.6088,1.7048-2.4279,2.5513h-104.3755c2.3764-8.6851,6.1849-16.6513,11.1337-23.7713h115.7642l23.7575,23.7713h-38.1447l-4.4518-3.9723Zm45.3107,1.3555l-21.1418-21.1545h3.5489l17.5091,17.5211c.0755,1.1928,.0745,2.4148,.0838,3.6334Zm-14.6845-23.5762c1.006-3.2146,1.9254-6.9865,2.7169-11.0495,5.8499,7.1076,9.6326,15.5409,11.1862,24.9609l-13.9031-13.9114Zm20.0512-60.0134c-5.9115-3.4178-12.2934-6.3519-19.0986-8.7783-1.9613-6.3657-4.5448-12.3824-7.6925-18.0287l26.7911,26.8069Zm-134.9023-76.1873c.821,0,1.6456,.0074,2.4666,.0221,54.6746,0,94.9518,25.4425,108.8329,65.8762-13.7844-4.3414-29.1693-6.678-45.8722-6.678-.8431-.0147-1.6861-.0221-2.5255-.0221-1.919,0-3.8324,.0706-5.745,.1429-.6884-.8184-1.3373-1.6631-2.0782-2.4475-12.933-13.6914-33.0339-21.2311-56.5954-21.2311-44.1225,0-80.0943,26.2048-89.5115,65.2101l-.5596,2.3267h1.6125l25.1758,25.191c-1.3345,2.1286-2.6157,4.2793-3.8177,6.4624h-27.7528l-.0221,1.8628c-.1666,14.6788,4.5761,27.9105,13.6776,38.5872-1.2084,7.3041-1.8021,14.7204-1.6723,22.2014,.0009,10.333,1.4257,20.1494,4.0993,29.3628-10.9671-4.742-20.7534-10.7973-29.1739-17.9753l29.4298-185.6875c23.6931-14.9661,51.538-23.2041,80.0317-23.2041Zm-379.06,202.8017v-.0442c-.1721-7.5484,.3497-15.0241,1.4671-22.3848,2.4178,2.3343,4.9995,4.5273,7.8388,6.4852l47.4331,47.4637c.8035,1.1721,1.6567,2.3051,2.5439,3.4143-4.7095,.4694-9.4725,.7319-14.2805,.7319-14.9882,0-28.7468-2.0451-41.0816-5.8825-2.5614-9.2-3.9208-19.1501-3.9208-29.7836Zm206.2218-78.1519l-16.7029,105.4022h-.2936l-37.8309-37.8551,.0175-1.5515h-3.2692l-.5669,.7253c-19.2514,24.7034-49.295,41.0193-82.7781,45.6821l-4.8062-4.8087c-6.1692-8.9133-9.7219-19.7249-10.2492-32.0365,3.0676,.2501,6.1987,.4073,9.4301,.4073,57.2866,0,104.0221-42.0506,105.4367-94.2201,17.2505,2.1866,31.4398,8.5555,41.6127,18.2551Zm-54.8863,72.8206l32.5609,32.5816h-32.9262l.3654-32.5816Zm-105.3833,2.3163c.2899,8.3779,1.8757,16.1104,4.6709,23.0829l-29.4353-29.4546c7.3639,3.1838,15.6896,5.3034,24.7644,6.3717Zm13.2202-2.9417c-3.2857,0-6.4536-.1802-9.5608-.4498,.3921-50.18,45.6605-90.8951,101.2702-90.8951,3.4293,0,6.7297,.1983,9.9667,.488-1.2296,49.4554-47.2721,90.8569-101.6761,90.8569Zm91.7094-95.1147c-57.5342,0-104.393,42.1852-105.029,94.2507-13.4761-1.6778-25.1298-5.8802-34.409-12.3157l-2.3396-2.3414-.3,.3005c-2.3497-1.8306-4.577-3.7696-6.5788-5.8961,4.9718-26.2536,18.0466-50.7656,38.1309-70.8503,26.4625-26.4625,62.1066-41.4756,98.255-41.4756,.9903,0,1.9843,.011,2.9746,.0331,1.2407,0,2.4463,.067,3.6723,.0978,9.5037,9.9674,14.9643,23.1416,15.5405,38.653-3.225-.274-6.5125-.456-9.917-.456Zm-113.1908,.4823c-19.8782,19.8805-33.0348,43.9985-38.5414,69.8761-8.0238-10.1446-12.4839-23.0113-12.4839-38.0092,0-50.4805,45.4368-91.5474,101.2886-91.5474,22.2002,0,40.476,6.1959,53.1946,17.1359-38.0021-.6848-75.6627,14.7489-103.4579,42.5446Zm30.4495,138.1853c31.6386-5.0413,60.1002-20.2914,79.4243-43.0411l-.4086,36.4651h1.1265l16.8998,16.9104c-13.165,5.7999-27.7915,9.0808-43.0825,9.0808-20.6973,0-37.8898-5.4969-50.3682-15.2206l.3-.3005-3.8913-3.8941Zm85.4711-6.576h34.0519l1.9273,1.9282c-6.2935,5.1693-13.2736,9.6395-20.7746,13.2867l-15.2045-15.2149Zm38.9896,4.9412l16.84,16.8508c-5.0234,6.2456-10.7453,11.9326-17.0407,17.022l-20.5086-20.5213c7.49-3.6886,14.4378-8.1807,20.7093-13.3516Zm.5375-7.4801l16.3633-103.2428c9.0159,10.1731,14.1452,23.3735,14.332,38.9075-.0037,25.0587-11.5543,48.1759-29.9507,65.0801l-.7446-.7448Zm-28.5425-128.6825c-.451-15.3587-5.4311-28.5253-14.0881-38.8642,16.9182,1.0522,32.213,5.1067,45.1285,11.7439l15.8469,15.9691-4.5291,28.5786c-10.6606-9.3029-25.0921-15.3407-42.3582-17.4274Zm46.0434-17.3529c.5366,.4358,1.0989,.8488,1.6217,1.2966l-.046,.2908-1.5757-1.5874Zm4.9516,4.375c2.4141,2.3258,4.6589,4.7878,6.7215,7.3878l-6.8061-6.8584,.0847-.5294Zm.716-4.5192l19.1943-121.1078,16.9937,17.005-20.2932,123.9511c-4.138-7.4525-9.512-14.084-15.8948-19.8482Zm19.2081,49.3848c-.589-33.5162,12.9699-65.8691,38.1733-91.0982,6.4766-6.4817,13.5561-12.2805,21.0792-17.4033l-28.5168,179.946c-19.4925-18.1262-30.7358-42.7503-30.7358-71.4113v-.0331Zm60.0597-113.5944c-8.8181,5.7194-17.0683,12.3431-24.5518,19.8344-15.6831,15.6969-26.9494,34.0986-33.299,53.8265l18.389-112.3178h45.5878l-6.126,38.6569Zm3.7864-42.4268h-44.0692l-19.0618-19.074,6.0321-38.0582,57.0988,57.1322Zm-66.4277-22.373L833.4707,3.7698h42.6371l-5.8361,36.8252Zm-40.083-34.7769l39.3541,39.3794-19.2569,121.5121c-4.5706-3.704-9.6179-6.9723-15.06-9.8111l-25.5559-25.7533,20.5187-125.327Zm-215.4219,120.5892c26.4625-26.4588,62.1029-41.4719,98.2514-41.4719,.9903,0,1.9843,.011,2.9746,.0331,42.0167,0,75.4814,17.8036,89.5152,47.6236l.508,1.0824h.8532l18.6872,18.8312c-12.2915-4.8448-26.2149-7.6671-41.2952-8.2035-13.4208-13.3686-33.7813-21.039-58.969-21.039-57.9281,0-105.0584,42.7604-105.0584,95.3172,0,17.2174,5.4762,31.8057,15.2947,42.9196-1.4708,8.4672-2.1583,17.0977-1.9604,25.821,.0018,10.0486,1.1643,19.5123,3.3704,28.3354-8.6266-3.0674-16.4829-7.0689-23.5044-11.911V152.579h-1.1044l-10.8622-10.8693c4.0183-5.331,8.4472-10.4497,13.2993-15.3023Zm-14.6744,165.9722l-.0699,.0695c-16.424-16.9362-25.6121-40.2241-25.6121-68.1143v-.0442c-.5467-23.9197,5.5406-47.1678,17.4272-67.9417h17.8267v144.6544c-1.9181-1.4724-3.7809-2.9983-5.5563-4.6053l-4.0156-4.0183Zm-6.0339-139.8006c1.6235-2.6387,3.3575-5.2266,5.1725-7.7751l7.7698,7.7751h-12.9422Zm2.4684-10.4803c-2.4555,3.4162-4.7629,6.9058-6.8834,10.4803h-26.907l-12.2299-12.2382v-44.2926l46.0204,46.0505Zm-50.5725,212.4293l-18.5629-18.5749c6.1297-3.7192,11.5497-8.1784,16.2418-13.2763l15.6224,15.5218c-3.8379,5.9753-8.2907,11.4202-13.3012,16.3294Zm-21.3517-21.3655l-14.8299-14.8396h29.4795l1.6373,1.6272c-4.6792,5.1002-10.1066,9.5502-16.2869,13.2124Zm-168.4379-44.5234l.0755-23.1416c1.248,1.3431,2.5485,2.6355,3.9254,3.8577l52.6516,52.6822c-5.7689,.604-11.7145,.9314-17.8497,.9314-12.8401,0-24.6171-1.503-35.2704-4.3623-2.3157-9.1818-3.5315-19.1812-3.5324-29.9675Zm19.2514-9.3567c7.9456,3.6435,17.0655,5.9477,27.2025,6.7843,.4869,9.8307,2.5531,18.7049,6.0588,26.4963l-33.2613-33.2806Zm48.475,48.5033c-.9958-.968-1.9475-1.9758-2.8651-3.0158,33.4564-5.193,60.1186-20.6485,76.7911-44.9037l5.7836,38.4567h.8431l16.678,16.6891c-12.9993,6.8407-28.7791,10.6275-46.8441,10.6275-20.9688,0-37.969-6.1262-49.7377-17.1806l.012-.012-.6608-.6613Zm77.9277-46.6563l33.6386,33.4237h-28.6097l-5.0289-33.4237Zm58.2521-125.8855v111.6929c0,15.0632-3.3557,28.4369-9.5645,39.7043V145.6734l9.5645,9.5705Zm-13.3343-18.6752l-43.1598-43.1879h43.1598v43.1879Zm-135.3865,149.8726c54.4086,0,89.5631-32.3713,89.5631-82.4725V96.0482l45.8234,45.8528v170.837c-.4372,.6295-.9443,1.2013-1.4017,1.815h-4.5291l-39.9266-39.6716-.2273-1.5094h-3.1145l-.5522,.8872c-16.1866,25.8965-43.6743,42.1709-78.6843,47.0972-7.0151-9.3855-11.1411-21.2279-11.9041-35.0997,1.6429,.0752,3.2618,.1845,4.9534,.1845Zm-49.6116-20.8441l-.1141-.1146-.0101,.0099c-1.9475-1.829-3.699-3.8382-5.3538-5.9318l.3387-103.2119h45.8308v125.1998c0,.2381,.0276,.4602,.0295,.6972-16.8317-1.4984-30.6778-7.2725-40.7209-16.6486Zm-18.4663-119.9238l9.5626,9.5691-.3258,98.9195c-5.9695-9.7635-9.2368-21.7276-9.2368-35.5815v-72.9071Zm56.4942,6.9055h-44.2643l-12.2299-12.2382v-44.2926l56.4942,56.5307Zm-60.264-16.0103l-43.1598-43.1879h43.1598v43.1879Zm-45.84-40.5366l45.84,45.869v76.6795c0,17.0087,4.6129,31.3409,12.9837,42.433l-.0911,27.6109v.0074c0,10.2801,1.0584,19.8742,3.0842,28.756-12.5106-3.9033-23.336-9.7953-32.2801-17.5291l9.0399-57.0135c1.5573-10.8898,1.7892-17.325,1.7892-20.1892,0-24.9807-8.4288-44.8112-23.8275-58.3061l.0709-.0711-16.7774-16.7882,.1684-51.4584Zm-.2025,61.7941c23.556,11.9719,36.7982,34.3696,36.7982,64.8297,0,2.7648-.2283,8.9975-1.7487,19.6297l-8.6202,54.3693-3.9254-3.9281c-14.7406-16.4643-22.7249-39.1806-22.7267-67.0556l.2227-67.8449Zm.0147-4.3147l.0018-.7062,1.4128,1.4137c-.4721-.2354-.9351-.48-1.4146-.7075Zm-3.7542-4.4647l-.0092,2.7823c-5.9824-2.4733-12.5327-4.3389-19.5827-5.6172-1.1707-8.6731-3.4882-16.5832-6.8954-23.6689l26.4873,26.5039Zm-105.5214-64.0782c46.5312,0,76.2278,22.3689,82.0197,60.5265-6.0201-.8734-12.3863-1.3283-19.0922-1.3283-11.1264,0-21.857,1.1636-32.108,3.3605-8.1085-16.6122-25.4869-26.0347-49.8638-26.0347-15.5828,0-29.9323,2.881-42.9113,8.5818l-19.337-19.3492c22.2002-16.7537,50.2191-25.7566,81.2926-25.7566Zm83.1315,74.7193c0,2.7648-.2283,8.9975-1.7487,19.6297l-2.2908,14.4445c-9.038-6.0264-20.9025-9.3015-35.2051-9.3015-3.1164,0-6.184,.1162-9.2009,.3456,.8449-4.7687,1.2931-9.2062,1.2931-13.1608,0-7.6614-1.2434-14.5554-3.595-20.622,9.7568-2.034,19.9711-3.0867,30.5434-3.0867,6.9285,0,13.4549,.5299,19.6159,1.4981,.3516,3.32,.5881,6.7134,.5881,10.2532Zm-1.2885,40.7998c8.6607,7.9083,13.2938,19.4573,13.2938,34.1257,0,3.8582-.4381,8.2134-1.3069,12.9883l-13.4521,85.0125-16.8188-16.8299,18.2841-115.2966Zm-121.3085-47.9087l-19.5892-19.602c12.1434-5.1,25.5099-7.7145,40.0103-7.7145,22.6531,0,38.5644,8.1945,46.1685,23.0893-26.0281,6.3084-48.6756,19.6297-65.8718,39.0872l.4086-34.8599h-1.1265Zm-45.6329-8.0231l-15.4981-15.5085c4.9645-5.8784,10.4342-11.1975,16.3403-15.9562l18.7249,18.7374c-6.3478,3.1095-12.3919,6.8379-18.031,11.3479-.5393,.445-1.0096,.9275-1.5361,1.3794Zm-2.808,2.5223c-.0792,.0722-.1611,.1417-.2393,.2142l-16.2611-16.2721h.4528l16.0476,16.0579Zm2.2512,8.0385l-28.0069,177.8484-17.1677-17.1794,17.9997-114.1583c3.3465-19.704,11.4632-35.8302,24.6199-49.0675l2.5549,2.5568Zm2.7924-2.5377l-2.6157-2.618c.0773-.0725,.1601-.1424,.2384-.2144l2.8301,2.8324h-.4528Zm.4307-5.3549c.4289-.3663,.8099-.7593,1.248-1.1208,5.7505-4.5996,11.9381-8.3731,18.4681-11.4572l17.9214,17.933h-32.2857l-5.352-5.3549Zm40.2791,9.1248l-.3617,30.8181-30.7983-30.8181h31.1601Zm-44.8137-45.9697c-5.2553,4.2648-10.1765,8.9628-14.7121,14.0955l.3369-28.4797,14.3753,14.3842Zm-18.5464,19.5349l-36.5092-36.5332h36.9418l-.4326,36.5332Zm-39.771-34.4644l54.4077,54.4431c-13.731,13.8026-22.1883,30.5984-25.6756,51.1236l-17.903,113.5369H4.4104L38.9151,95.4495ZM6.7537,318.3229H50.5762l19.2357,19.2486-5.9649,37.8815L6.7537,318.3229Zm66.3559,22.5484l36.6261,36.6498h-42.3978l5.7716-36.6498Zm90.4549-134.7268c-18.1276,14.9579-28.918,33.8733-32.9897,57.8397l-17.5772,111.4683-39.1627-39.188,28.3336-179.9158h3.3888l36.0656,36.0886-.0184,1.5508h3.2397l.5669-.6884c17.1382-20.8797,40.4668-35.0203,67.5276-41.4295,2.2844,5.7523,3.4698,12.3647,3.4698,19.7751,0,3.8582-.4381,8.2134-1.3069,12.9883l-.0985,.6206c-19.4115,2.1493-36.6906,9.091-51.4386,20.8903Zm54.7169-17.4744c3.213-.271,6.472-.4397,9.8047-.4397,14.3688,0,26.0244,3.3,34.5746,9.5086l-18.5234,116.8141h-45.7792l19.9233-125.8829Zm-17.58,129.6528h44.2643l18.8832,18.8947-6.0505,38.2393-57.097-57.1341Zm66.4415,22.1904l36.986,37.0079h-42.8432l5.8572-37.0079Zm40.2533,34.9442l-39.5244-39.5474,13.8755-87.6752c.902-4.9516,1.3585-9.535,1.3585-13.6215,0-16.649-5.8315-29.6948-16.3973-38.3221l2.6028-16.4141c1.5573-10.8898,1.7892-17.325,1.7892-20.1892,0-3.2659-.1657-6.4302-.4491-9.5185,6.8696,1.3442,13.2662,3.2395,19.0461,5.785l-.2301,69.7019v.0074c0,32.5972,10.4867,58.4055,29.6608,75.7939l-11.732,73.9998Zm29.935-61.3505c5.9106,3.0869,12.3256,5.6248,19.2109,7.5995,1.8389,6.7652,4.2806,13.0755,7.2893,18.9159l-26.5002-26.5154Zm120.5639,71.8301c-50.6461,0-85.0394-23.0166-97.0199-63.0635,10.3836,2.548,21.7741,3.8653,34.0924,3.8653,7.3372,0,14.4029-.4742,21.2311-1.3175l1.6521,1.6528c12.4167,14.2947,31.8209,22.3353,56.427,22.3353,19.2229,0,35.9754-4.1131,49.6908-11.5488l19.2431,19.256c-20.6954,18.7226-50.104,28.8205-85.3165,28.8205Zm90.7292-28.7369c4.4684-4.3844,8.5401-9.1575,12.1204-14.3658l4.6902,31.187-16.8106-16.8211Zm14.9551-20.86h-.8467l-16.6127-16.5071c.4068-.4915,.7823-1.0078,1.1762-1.5101h.5449l59.1596,59.1982h-37.2253l-6.1959-41.181Zm46.0848,38.5136l-59.1577-59.1957v-1.6776c8.6009-12.8537,13.3343-28.7487,13.3343-47.0436v-110.588h23.659c-11.523,20.8765-17.4014,44.1122-16.8593,68.0043,.0055,31.8664,11.5414,57.9343,31.8927,75.8017l7.131,7.1352v67.5637Zm10.3302-62.5594c5.6354,3.0681,11.6933,5.675,18.1442,7.7946,1.8481,6.1989,4.253,12.0426,7.1568,17.5229l-25.301-25.3175Zm125.2734,73.6427c-35.0459,0-63.4558-11.0702-82.3179-30.5199l.0699-.0695-1.8941-1.895c-8.2447-9.0472-14.5106-19.7916-18.5344-31.9879,12.0467,3.4463,25.3507,5.2742,39.7489,5.2742,5.7993,0,11.5322-.3774,17.1888-1.0414,13.2911,14.2294,34.0353,22.3866,59.9087,22.3866,16.5483,0,32.213-3.5174,46.1658-9.7644l21.1538,21.1667c-22.2656,16.8529-51.0796,26.4507-81.4896,26.4507Zm87.1701-26.0992c5.5959-4.5533,10.7619-9.5615,15.3923-15.0119l-.3369,30.0772-15.0554-15.0653Zm19.1925-17.5551l35.218,35.2384h-35.6128l.3948-35.2384Zm38.4844,33.1747l-55.8904-55.9235c18.9725-17.4838,30.7174-41.5559,30.7174-68.0961v-.0221c-.2098-17.7588-6.4223-32.6665-17.3306-43.745l4.5025-28.4031,16.4599,16.5876,.37,.7874h1.8444c-1.2315,7.3662-1.8352,14.8474-1.7045,22.3944,.0037,27.7098,10.0891,51.7754,27.751,70.1281l-.3645,.3649,6.2686,6.2723-12.6238,79.6551Zm29.1049-68.496c5.7155,3.464,11.8673,6.5006,18.3761,9.1241,2.0819,6.0238,4.7436,11.7501,7.906,17.1748l-26.2821-26.2989Zm217.1834,64.5147c-23.2191,9.8885-48.4483,14.9026-74.9807,14.9026-58.4997,0-103.0189-26.8585-119.0977-68.4852,16.6495,6.0082,35.5585,9.287,56.1702,9.287,.7602,0,1.5076-.0458,2.266-.0538,14.9422,14.3479,37.9349,22.2826,65.0904,22.2826,37.7131,0,76.7846-15.2855,98.001-38.1954l26.0318,23.2301c-12.3072,14.7002-30.2875,27.1509-53.4809,37.032Zm-4.311-100.3381l.0626-.078-22.8556-20.3954h40.2506l.0994-1.7782c.0847-1.485,.0607-2.9318,.0552-4.3853l37.7959,37.8205h-44.2321l-11.1761-11.1836Z"/><path class="d" d="M1195.8628,83.993c-13.43,0-24.3604,10.9303-24.3604,24.3604s10.9303,24.3604,24.3604,24.3604,24.3604-10.9303,24.3604-24.3604-10.9303-24.3604-24.3604-24.3604Zm0,45.1939c-11.4899,0-20.8335-9.3436-20.8335-20.8335s9.3436-20.8335,20.8335-20.8335,20.8335,9.3436,20.8335,20.8335-9.3436,20.8335-20.8335,20.8335Z"/><path class="d" d="M1205.9326,118.1905c-.1252-.4528-.1988-1.1413-.2356-2.069l-.1141-3.2655c-.0552-1.4137-.324-2.4335-.8026-3.063-.4823-.6295-1.1965-1.1376-2.1463-1.5241,1.0824-.5633,1.9254-1.3106,2.5255-2.2383,.6038-.9277,.9056-2.1205,.9056-3.5784,0-2.7942-1.1229-4.7086-3.3686-5.7468-1.1818-.5412-2.6838-.8136-4.5061-.8136h-11.0628v24.3383h3.2986v-10.437h7.2893c1.3106,0,2.2678,.1473,2.8826,.4455,1.0713,.5412,1.6456,1.6088,1.7193,3.1992l.1988,4.057c.0442,.9498,.1031,1.5904,.1693,1.9217s.1509,.6038,.2651,.8136h4.0423v-.5485c-.5117-.2209-.8615-.7179-1.0603-1.491Zm-4.5282-12.0753c-.8762,.6185-2.0653,.9277-3.5674,.9277h-7.4108v-8.3165h7.8268c1.0971,0,1.9733,.1657,2.6286,.497,1.2223,.6295,1.8334,1.8113,1.8334,3.5453,0,1.6125-.4344,2.728-1.3106,3.3465Z"/></g></g></g></svg>