<svg xmlns="http://www.w3.org/2000/svg" width="67" height="65" viewBox="0 0 67 65">
  <g id="motif1" transform="translate(-1115 -318)">
    <g id="Rectangle_1702" data-name="Rectangle 1702" transform="translate(1115 318)" fill="none" stroke="#000" stroke-width="1">
      <rect width="17" height="17" stroke="none"/>
      <rect x="0.5" y="0.5" width="16" height="16" fill="none"/>
    </g>
    <g id="Rectangle_1703" data-name="Rectangle 1703" transform="translate(1131 318)" fill="none" stroke="#000" stroke-width="1">
      <rect width="17" height="17" stroke="none"/>
      <rect x="0.5" y="0.5" width="16" height="16" fill="none"/>
    </g>
    <g id="Rectangle_1704" data-name="Rectangle 1704" transform="translate(1147 318)" fill="none" stroke="#000" stroke-width="1">
      <rect width="18" height="17" stroke="none"/>
      <rect x="0.5" y="0.5" width="17" height="16" fill="none"/>
    </g>
    <g id="Rectangle_1705" data-name="Rectangle 1705" transform="translate(1164 318)" fill="none" stroke="#000" stroke-width="1">
      <rect width="18" height="17" stroke="none"/>
      <rect x="0.5" y="0.5" width="17" height="16" fill="none"/>
    </g>
    <g id="Rectangle_1706" data-name="Rectangle 1706" transform="translate(1115 334)" fill="none" stroke="#000" stroke-width="1">
      <rect width="17" height="17" stroke="none"/>
      <rect x="0.5" y="0.5" width="16" height="16" fill="none"/>
    </g>
    <g id="Rectangle_1707" data-name="Rectangle 1707" transform="translate(1131 334)" fill="none" stroke="#000" stroke-width="1">
      <rect width="17" height="17" stroke="none"/>
      <rect x="0.5" y="0.5" width="16" height="16" fill="none"/>
    </g>
    <g id="Rectangle_1708" data-name="Rectangle 1708" transform="translate(1147 334)" fill="none" stroke="#000" stroke-width="1">
      <rect width="18" height="17" stroke="none"/>
      <rect x="0.5" y="0.5" width="17" height="16" fill="none"/>
    </g>
    <g id="Rectangle_1709" data-name="Rectangle 1709" transform="translate(1164 334)" fill="none" stroke="#000" stroke-width="1">
      <rect width="18" height="17" stroke="none"/>
      <rect x="0.5" y="0.5" width="17" height="16" fill="none"/>
    </g>
    <g id="Rectangle_1710" data-name="Rectangle 1710" transform="translate(1115 350)" fill="none" stroke="#000" stroke-width="1">
      <rect width="17" height="17" stroke="none"/>
      <rect x="0.5" y="0.5" width="16" height="16" fill="none"/>
    </g>
    <g id="Rectangle_1711" data-name="Rectangle 1711" transform="translate(1131 350)" fill="none" stroke="#000" stroke-width="1">
      <rect width="17" height="17" stroke="none"/>
      <rect x="0.5" y="0.5" width="16" height="16" fill="none"/>
    </g>
    <g id="Rectangle_1712" data-name="Rectangle 1712" transform="translate(1147 350)" fill="none" stroke="#000" stroke-width="1">
      <rect width="18" height="17" stroke="none"/>
      <rect x="0.5" y="0.5" width="17" height="16" fill="none"/>
    </g>
    <g id="Rectangle_1713" data-name="Rectangle 1713" transform="translate(1164 350)" fill="none" stroke="#000" stroke-width="1">
      <rect width="18" height="17" stroke="none"/>
      <rect x="0.5" y="0.5" width="17" height="16" fill="none"/>
    </g>
    <g id="Rectangle_1714" data-name="Rectangle 1714" transform="translate(1115 366)" fill="none" stroke="#000" stroke-width="1">
      <rect width="17" height="17" stroke="none"/>
      <rect x="0.5" y="0.5" width="16" height="16" fill="none"/>
    </g>
    <g id="Rectangle_1715" data-name="Rectangle 1715" transform="translate(1131 366)" fill="none" stroke="#000" stroke-width="1">
      <rect width="17" height="17" stroke="none"/>
      <rect x="0.5" y="0.5" width="16" height="16" fill="none"/>
    </g>
    <g id="Rectangle_1716" data-name="Rectangle 1716" transform="translate(1147 366)" fill="none" stroke="#000" stroke-width="1">
      <rect width="18" height="17" stroke="none"/>
      <rect x="0.5" y="0.5" width="17" height="16" fill="none"/>
    </g>
    <g id="Rectangle_1717" data-name="Rectangle 1717" transform="translate(1164 366)" fill="none" stroke="#000" stroke-width="1">
      <rect width="18" height="17" stroke="none"/>
      <rect x="0.5" y="0.5" width="17" height="16" fill="none"/>
    </g>
  </g>
</svg>
