<svg xmlns="http://www.w3.org/2000/svg" xmlns:xlink="http://www.w3.org/1999/xlink" width="30.823" height="45.921" viewBox="0 0 30.823 45.921">
  <defs>
    <clipPath id="clip-path">
      <rect id="Rectangle_1877" data-name="Rectangle 1877" width="30.823" height="45.921" transform="translate(0 0)" fill="none"/>
    </clipPath>
  </defs>
  <g id="Groupe_787" data-name="Groupe 787" transform="translate(0 0)">
    <rect id="Rectangle_1873" data-name="Rectangle 1873" width="11.692" height="9.76" transform="translate(15.493 12.109)" fill="#fff"/>
    <rect id="Rectangle_1874" data-name="Rectangle 1874" width="11.692" height="9.76" transform="translate(15.493 12.109)" fill="none" stroke="#161615" stroke-miterlimit="10" stroke-width="0.5"/>
    <rect id="Rectangle_1875" data-name="Rectangle 1875" width="11.716" height="10.097" transform="translate(15.493 0.25)" fill="#fff"/>
    <g id="Groupe_772" data-name="Groupe 772">
      <g id="Groupe_771" data-name="Groupe 771" clip-path="url(#clip-path)">
        <rect id="Rectangle_1876" data-name="Rectangle 1876" width="11.717" height="10.097" transform="translate(15.492 0.249)" fill="none" stroke="#161615" stroke-miterlimit="10" stroke-width="0.5"/>
      </g>
    </g>
    <rect id="Rectangle_1878" data-name="Rectangle 1878" width="18.48" height="1.763" transform="translate(12.093 10.347)" fill="#fff"/>
    <g id="Groupe_774" data-name="Groupe 774">
      <g id="Groupe_773" data-name="Groupe 773" clip-path="url(#clip-path)">
        <rect id="Rectangle_1879" data-name="Rectangle 1879" width="18.479" height="1.763" transform="translate(12.094 10.347)" fill="none" stroke="#161615" stroke-miterlimit="10" stroke-width="0.5"/>
      </g>
    </g>
    <rect id="Rectangle_1881" data-name="Rectangle 1881" width="3.385" height="3.362" transform="translate(27.184 17.066)" fill="#fff"/>
    <g id="Groupe_776" data-name="Groupe 776">
      <g id="Groupe_775" data-name="Groupe 775" clip-path="url(#clip-path)">
        <rect id="Rectangle_1882" data-name="Rectangle 1882" width="3.385" height="3.363" transform="translate(27.184 17.065)" fill="none" stroke="#161615" stroke-miterlimit="10" stroke-width="0.5"/>
      </g>
    </g>
    <path id="Tracé_405" data-name="Tracé 405" d="M27.095,18.692h0Z" fill="#fff"/>
    <g id="Groupe_778" data-name="Groupe 778">
      <g id="Groupe_777" data-name="Groupe 777" clip-path="url(#clip-path)">
        <line id="Ligne_120" data-name="Ligne 120" x2="3.404" transform="translate(27.096 18.692)" fill="none" stroke="#161615" stroke-miterlimit="10" stroke-width="0.5"/>
      </g>
    </g>
    <path id="Tracé_406" data-name="Tracé 406" d="M15.434,39.007v3.365h.006v3.3H19.5V43.989H17.125V42.116h-.006V39.007Z" fill="#fff"/>
    <g id="Groupe_780" data-name="Groupe 780">
      <g id="Groupe_779" data-name="Groupe 779" clip-path="url(#clip-path)">
        <path id="Tracé_407" data-name="Tracé 407" d="M17.125,43.989V42.117h-.007v-3.11H15.433v3.365h.007v3.3H19.5V43.989Z" fill="none" stroke="#161615" stroke-miterlimit="10" stroke-width="0.5"/>
      </g>
    </g>
    <path id="Tracé_408" data-name="Tracé 408" d="M11.251,39.007v6.665h4.183V43.989H12.929V39.007Z" fill="#fff"/>
    <g id="Groupe_782" data-name="Groupe 782">
      <g id="Groupe_781" data-name="Groupe 781" clip-path="url(#clip-path)">
        <path id="Tracé_409" data-name="Tracé 409" d="M12.929,43.989V39.007H11.251v6.665h4.182V43.989Z" fill="none" stroke="#161615" stroke-miterlimit="10" stroke-width="0.5"/>
      </g>
    </g>
    <path id="Tracé_410" data-name="Tracé 410" d="M17.112,21.87l.014,1.924H7.055v3.368H3.725v5.052H.251V37.26h6.8v1.685H18.791V37.26h6.651V33.9H28.8v-6.73H27.17V23.8H23.813V21.87Z" fill="#fff"/>
    <g id="Groupe_784" data-name="Groupe 784">
      <g id="Groupe_783" data-name="Groupe 783" clip-path="url(#clip-path)">
        <path id="Tracé_411" data-name="Tracé 411" d="M17.112,21.87h6.7V23.8h3.357v3.365H28.8V33.9H25.441V37.26H18.79v1.685H7.055V37.26H.25V32.214H3.725V27.162h3.33V23.794h10.07Z" fill="none" stroke="#161615" stroke-miterlimit="10" stroke-width="0.5"/>
      </g>
    </g>
    <rect id="Rectangle_1888" data-name="Rectangle 1888" width="11.717" height="3.371" transform="translate(15.492 6.975)" fill="#fff"/>
    <rect id="Rectangle_1889" data-name="Rectangle 1889" width="11.717" height="3.371" transform="translate(15.492 6.975)" fill="none" stroke="#161615" stroke-miterlimit="10" stroke-width="0.5"/>
    <g id="Groupe_786" data-name="Groupe 786">
      <g id="Groupe_785" data-name="Groupe 785" clip-path="url(#clip-path)">
        <path id="Tracé_412" data-name="Tracé 412" d="M23.908,14.754a1.159,1.159,0,1,0,1.159,1.159,1.159,1.159,0,0,0-1.159-1.159" fill="#040405"/>
        <circle id="Ellipse_10" data-name="Ellipse 10" cx="1.159" cy="1.159" r="1.159" transform="translate(22.749 14.754)" fill="none" stroke="#161615" stroke-miterlimit="10" stroke-width="0.5"/>
        <path id="Tracé_413" data-name="Tracé 413" d="M20.471,27.214V30.53H17.093V33.9H10.446" fill="#fff"/>
        <path id="Tracé_414" data-name="Tracé 414" d="M20.471,27.214V30.53H17.093V33.9H10.446" fill="none" stroke="#161615" stroke-miterlimit="10" stroke-width="0.5"/>
      </g>
    </g>
  </g>
</svg>
