<svg xmlns="http://www.w3.org/2000/svg" xmlns:xlink="http://www.w3.org/1999/xlink" width="56.932" height="44.542" viewBox="0 0 56.932 44.542">
  <defs>
    <clipPath id="clip-path">
      <rect id="Rectangle_1894" data-name="Rectangle 1894" width="56.932" height="39.542" transform="translate(0 0)" fill="none"/>
    </clipPath>
    <clipPath id="clip-path-3">
      <rect id="Rectangle_1896" data-name="Rectangle 1896" width="56.932" height="44.542" transform="translate(0 0)" fill="none"/>
    </clipPath>
  </defs>
  <g id="illu_ciel" transform="translate(0 0)">
    <path id="Tracé_424" data-name="Tracé 424" d="M9.657,14.3v6.242H3.37v3.117H.25v3.129H31.529V23.662H25.276V20.545H22.155V17.428H19.024V14.3Z" fill="#fff"/>
    <g id="Groupe_796" data-name="Groupe 796">
      <g id="Groupe_795" data-name="Groupe 795" clip-path="url(#clip-path)">
        <path id="Tracé_425" data-name="Tracé 425" d="M.25,26.792v-3.13H3.37V20.546H9.657V14.3h9.367v3.125h3.131v3.117h3.12v3.116h6.253v3.13Z" fill="none" stroke="#161615" stroke-miterlimit="10" stroke-width="0.5"/>
      </g>
    </g>
    <path id="Tracé_426" data-name="Tracé 426" d="M37.786.25V3.365h-3.12l-.009,3.127-3.081,0V9.612l-6.263,0V14.3H56.42V9.609h-3V6.492h-6.1V3.375h-.008V.25Z" fill="#fff"/>
    <g id="Groupe_798" data-name="Groupe 798">
      <g id="Groupe_797" data-name="Groupe 797" clip-path="url(#clip-path)">
        <path id="Tracé_427" data-name="Tracé 427" d="M25.313,14.3v-4.7l6.263,0V6.494l3.081,0,.009-3.128h3.12V.25h9.525V3.374h.008V6.492h6.1V9.608h3v4.7Z" fill="none" stroke="#161615" stroke-miterlimit="10" stroke-width="0.5"/>
      </g>
    </g>
    <path id="Tracé_428" data-name="Tracé 428" d="M37.951,25.073l0,1.723H34.812v6.247H28.563l.026,3.126h-6.28v3.123H56.682V36.169H53.6V33.043H50.479l.021-1.758-3.15.029V25.073Z" fill="#fff"/>
    <g id="Groupe_800" data-name="Groupe 800">
      <g id="Groupe_799" data-name="Groupe 799" clip-path="url(#clip-path-3)">
        <path id="Tracé_429" data-name="Tracé 429" d="M34.812,33.043V26.8h3.143l0-1.723h9.4v6.24l3.15-.028-.02,1.758H53.6v3.126h3.078v3.123H22.309V36.169h6.28l-.026-3.126Z" transform="translate(0 4)" fill="none" stroke="#161615" stroke-miterlimit="10" stroke-width="0.5"/>
      </g>
    </g>
  </g>
</svg>
