<svg xmlns="http://www.w3.org/2000/svg" xmlns:xlink="http://www.w3.org/1999/xlink" width="27.893" height="55.155" viewBox="0 0 27.893 55.155">
  <defs>
    <clipPath id="clip-path">
      <rect id="Rectangle_1998" data-name="Rectangle 1998" width="27.893" height="55.155" transform="translate(0 0)" fill="none"/>
    </clipPath>
  </defs>
  <g id="illu_encre" transform="translate(0 0)">
    <path id="Tracé_469" data-name="Tracé 469" d="M12.32.25l-5.2,6.734-.1,6.889,3.43-.053L7.019,24.1v6.832h3.43v1.711h6.91V30.935h3.465V24.1L17.359,13.82l3.465.029V7.091L15.755.25Z" fill="#fff"/>
    <path id="Tracé_470" data-name="Tracé 470" d="M12.32.25l-5.2,6.734-.1,6.889,3.43-.053L7.019,24.1v6.832h3.43v1.711h6.91V30.935h3.465V24.1L17.359,13.82l3.465.029V7.091L15.755.25Z" fill="none" stroke="#161615" stroke-miterlimit="10" stroke-width="0.5"/>
    <path id="Tracé_471" data-name="Tracé 471" d="M13.922,37.789H10.506V39.5H8.821v10.44h3.365V43.1l1.736.04Z" fill="#fff"/>
    <path id="Tracé_472" data-name="Tracé 472" d="M13.922,37.789H10.506V39.5H8.821v10.44h3.365V43.1l1.736.04Z" fill="none" stroke="#161615" stroke-miterlimit="10" stroke-width="0.5"/>
    <path id="Tracé_473" data-name="Tracé 473" d="M8.584,30.935v5.143H3.643V39.49H.25V51.483H3.6V42.925H7.019V39.5l3.487,0v-1.71h1.68V32.646H10.449V30.935Z" fill="#fff"/>
    <g id="Groupe_872" data-name="Groupe 872">
      <g id="Groupe_871" data-name="Groupe 871" clip-path="url(#clip-path)">
        <path id="Tracé_474" data-name="Tracé 474" d="M10.449,32.646V30.935H8.584v5.142H3.643V39.49H.25V51.483H3.6V42.925H7.019V39.5l3.487,0v-1.71h1.68V32.646Z" fill="none" stroke="#161615" stroke-miterlimit="10" stroke-width="0.5"/>
      </g>
    </g>
    <line id="Ligne_129" data-name="Ligne 129" y2="5.093" transform="translate(10.448 6.984)" fill="none" stroke="#161615" stroke-miterlimit="10" stroke-width="0.5"/>
    <line id="Ligne_130" data-name="Ligne 130" y2="5.093" transform="translate(17.38 6.984)" fill="none" stroke="#161615" stroke-miterlimit="10" stroke-width="0.5"/>
    <g id="Groupe_874" data-name="Groupe 874">
      <g id="Groupe_873" data-name="Groupe 873" clip-path="url(#clip-path)">
        <path id="Tracé_475" data-name="Tracé 475" d="M7.019,24.04a2.094,2.094,0,1,0,2.094,2.094A2.094,2.094,0,0,0,7.019,24.04" fill="#161615"/>
        <path id="Tracé_476" data-name="Tracé 476" d="M20.824,24.04a2.094,2.094,0,1,0,2.094,2.094,2.094,2.094,0,0,0-2.094-2.094" fill="#161615"/>
        <path id="Tracé_477" data-name="Tracé 477" d="M24.288,42.584V39.307H22.51V32.646H19.176l.012-1.711H17.359v1.711H15.615v3.345h3.444v5.221h1.817v3.426h3.337v3.423h3.431V42.584Z" fill="#fff"/>
        <path id="Tracé_478" data-name="Tracé 478" d="M24.288,42.584V39.307H22.51V32.646H19.176l.012-1.711H17.359v1.711H15.615v3.345h3.444v5.221h1.817v3.426h3.337v3.423h3.431V42.584Z" fill="none" stroke="#161615" stroke-miterlimit="10" stroke-width="0.5"/>
        <path id="Tracé_479" data-name="Tracé 479" d="M15.615,37.789V32.646H12.186v8.565h3.429v3.426H13.922V48.06H12.186V54.9h3.429V49.851H17.3V46.467l1.75.013.006-5.269-.025-3.422Z" fill="#fff"/>
        <path id="Tracé_480" data-name="Tracé 480" d="M15.615,37.789V32.646H12.186v8.565h3.429v3.426H13.922V48.06H12.186V54.9h3.429V49.851H17.3V46.467l1.75.013.006-5.269-.025-3.422Z" fill="none" stroke="#161615" stroke-miterlimit="10" stroke-width="0.5"/>
      </g>
    </g>
  </g>
</svg>
