<svg xmlns="http://www.w3.org/2000/svg" xmlns:xlink="http://www.w3.org/1999/xlink" width="44.174" height="54.781" viewBox="0 0 44.174 54.781">
  <defs>
    <clipPath id="clip-path">
      <rect id="Rectangle_1817" data-name="Rectangle 1817" width="44.174" height="54.781" transform="translate(0 0)" fill="none"/>
    </clipPath>
  </defs>
  <g id="Groupe_915" data-name="Groupe 915" transform="translate(-21.913 -16.609)">
    <g id="illu_flamant" transform="translate(21.913 16.61)">
      <path id="Tracé_344" data-name="Tracé 344" d="M18.579,54.528l7.22,0-7.22-3.617Z" fill="#fff"/>
      <g id="Groupe_734" data-name="Groupe 734">
        <g id="Groupe_733" data-name="Groupe 733" clip-path="url(#clip-path)">
          <path id="Tracé_345" data-name="Tracé 345" d="M25.8,54.53l-7.22-3.617v3.614Z" fill="none" stroke="#161615" stroke-linecap="square" stroke-miterlimit="10" stroke-width="0.5"/>
        </g>
      </g>
      <rect id="Rectangle_1818" data-name="Rectangle 1818" width="3.615" height="3.611" transform="translate(18.579 47.301)" fill="#fff"/>
      <rect id="Rectangle_1819" data-name="Rectangle 1819" width="3.615" height="3.611" transform="translate(18.579 47.301)" fill="none" stroke="#161615" stroke-linecap="square" stroke-miterlimit="10" stroke-width="0.5"/>
      <path id="Tracé_346" data-name="Tracé 346" d="M40.292,11.061l3.632-1.813V7.5l-3.64-.019Z" fill="#040405"/>
      <path id="Tracé_347" data-name="Tracé 347" d="M40.292,11.061l3.632-1.813V7.5l-3.64-.019Z" fill="none" stroke="#161615" stroke-miterlimit="10" stroke-width="0.5"/>
      <g id="Groupe_736" data-name="Groupe 736">
        <g id="Groupe_735" data-name="Groupe 735" clip-path="url(#clip-path)">
          <path id="Tracé_348" data-name="Tracé 348" d="M22.194,52.7V50.925a.014.014,0,0,0-.014-.014l-3.541,0a.014.014,0,0,0-.007.026l3.542,1.775a.015.015,0,0,0,.02-.013" fill="#fff"/>
          <path id="Tracé_349" data-name="Tracé 349" d="M22.194,52.7V50.925a.014.014,0,0,0-.014-.014l-3.541,0a.014.014,0,0,0-.007.026l3.542,1.775A.015.015,0,0,0,22.194,52.7Z" fill="none" stroke="#161615" stroke-linecap="square" stroke-miterlimit="10" stroke-width="0.5"/>
          <path id="Tracé_350" data-name="Tracé 350" d="M25.87,36.427l3.61-3.636,3.61.012L36.7,29.19V11.127H33.1l-.008-3.644,7.194-.007,3.64.019V3.87l-3.6,0V.25H33.082V3.86l-3.6.013V14.74h3.61V25.571l-3.83,0-3.39-3.612H11.154L4.179,29.2l-3.61,7.25,6.977-3.66,7.25,3.641,3.783,0,3.615-.011ZM38.2,4.61a.74.74,0,1,1,.74-.74.74.74,0,0,1-.74.74" fill="#fff"/>
          <path id="Tracé_351" data-name="Tracé 351" d="M25.87,36.427l3.61-3.636,3.61.012L36.7,29.19V11.127H33.1l-.008-3.644,7.194-.007,3.64.019V3.87l-3.6,0V.25H33.082V3.86l-3.6.013V14.74h3.61V25.571l-3.83,0-3.39-3.612H11.154L4.179,29.2l-3.61,7.25,6.977-3.66,7.25,3.641,3.783,0,3.615-.011ZM38.2,4.61a.74.74,0,1,1,.74-.74A.74.74,0,0,1,38.2,4.61Z" fill="none" stroke="#161615" stroke-linecap="square" stroke-miterlimit="10" stroke-width="0.5"/>
          <path id="Tracé_352" data-name="Tracé 352" d="M18.579,43.684h3.615V36.422l-3.615.011Z" fill="#fff"/>
          <path id="Tracé_353" data-name="Tracé 353" d="M18.579,43.684h3.615V36.422l-3.615.011Z" fill="none" stroke="#161615" stroke-linecap="square" stroke-miterlimit="10" stroke-width="0.5"/>
          <rect id="Rectangle_1820" data-name="Rectangle 1820" width="3.615" height="3.617" transform="translate(18.579 43.684)" fill="#fff"/>
          <rect id="Rectangle_1821" data-name="Rectangle 1821" width="3.615" height="3.617" transform="translate(18.579 43.684)" fill="none" stroke="#161615" stroke-linecap="square" stroke-miterlimit="10" stroke-width="0.5"/>
          <path id="Tracé_354" data-name="Tracé 354" d="M38.2,3.131a.74.74,0,1,0,.74.74.74.74,0,0,0-.74-.74" fill="#161615"/>
          <path id="Tracé_355" data-name="Tracé 355" d="M18.575,29.2H14.957V25.563" fill="none" stroke="#161615" stroke-linecap="square" stroke-miterlimit="10" stroke-width="0.5"/>
          <path id="Tracé_356" data-name="Tracé 356" d="M18.575,29.2l.008,3.611h3.61l3.624-3.621" fill="none" stroke="#161615" stroke-miterlimit="10" stroke-width="0.5"/>
          <line id="Ligne_112" data-name="Ligne 112" x2="0.001" y2="3.623" transform="translate(25.815 25.564)" fill="none" stroke="#161615" stroke-linecap="square" stroke-miterlimit="10" stroke-width="0.5"/>
          <line id="Ligne_113" data-name="Ligne 113" x2="3.14" y2="3.348" transform="translate(4.286 29.313)" fill="none" stroke="#161615" stroke-linecap="square" stroke-miterlimit="10" stroke-width="0.5"/>
        </g>
      </g>
    </g>
  </g>
</svg>
