<?xml version="1.0" encoding="UTF-8"?><svg xmlns="http://www.w3.org/2000/svg" viewBox="0 0 68 120.63"><defs><style>.e{fill:#fff;stroke:#1d1d1b;stroke-miterlimit:10;}</style></defs><g id="a"/><g id="b"><g id="c"><path id="d" class="e" d="M58.67,41.83s-5.08,9.26-2.69,20.53c0,0-21.02-4.11-36-12.08,0,0,13.8,7.45,36,12.08,.53,.11,1.08,.16,1.62,.11,.66-.06,1.6,.1,1.2,1.63-.53,2.02-2.67,17.3-13.44,24.3,0,0-11.8-9.55-19.24-11.86,0,0,8.1,2.72,19.24,11.86,.27,14.79-19.24,17.86-19.24,17.86,0,0-4.08,9.93-9.21,13.81,0,0-23.88-9.45-14.04-73.57,0,0,2.56-18.35,8.88-41.58,0,0,27.16,1.59,46.91-4.35,0,0,8.46,8.72,4.73,13.63,0,0-6.41,1.81-18.03-.36,0,0,9.98,2.14,18.03,.36,0,0,4.57-.93,4.07,3.54s-2.08,18.92-8.79,24.09c0,0-19.82-.74-33.43-14.04,0,0,9.42,11.41,33.43,14.04"/></g></g></svg>