<?xml version="1.0" encoding="UTF-8"?><svg xmlns="http://www.w3.org/2000/svg" viewBox="0 0 68 120.63"><defs><style>.e{fill:#fff;stroke:#1d1d1b;stroke-miterlimit:10;}</style></defs><g id="a"/><g id="b"><g id="c"><path id="d" class="e" d="M9.33,41.83c24.01-2.64,33.43-14.04,33.43-14.04-13.6,13.31-33.43,14.04-33.43,14.04C2.62,36.65,1.04,22.21,.54,17.73s4.07-3.54,4.07-3.54c8.05,1.78,18.03-.36,18.03-.36-11.62,2.17-18.03,.36-18.03,.36C.87,9.29,9.33,.57,9.33,.57,29.08,6.51,56.24,4.92,56.24,4.92c6.32,23.24,8.88,41.58,8.88,41.58,9.84,64.12-14.04,73.57-14.04,73.57-5.13-3.88-9.21-13.81-9.21-13.81,0,0-19.51-3.07-19.24-17.86,11.13-9.15,19.24-11.86,19.24-11.86-7.43,2.31-19.24,11.86-19.24,11.86-10.78-7-12.92-22.28-13.44-24.3-.4-1.52,.55-1.68,1.2-1.63,.54,.05,1.09,0,1.62-.11,22.2-4.63,36-12.08,36-12.08-14.98,7.97-36,12.08-36,12.08,2.39-11.27-2.69-20.53-2.69-20.53"/></g></g></svg>