<?xml version="1.0" encoding="UTF-8"?><svg id="Calque_2" xmlns="http://www.w3.org/2000/svg" xmlns:xlink="http://www.w3.org/1999/xlink" viewBox="0 0 275.26 437.11"><defs><style>.cls-1,.cls-2,.cls-3,.cls-4,.cls-5{fill:none;}.cls-6{fill:url(#MBY);}.cls-2{stroke-linecap:round;stroke-linejoin:bevel;}.cls-2,.cls-3,.cls-5{stroke:#000;}.cls-3{stroke-width:.5px;}.cls-7{fill:#fff;stroke:#010101;}.cls-7,.cls-4,.cls-5{stroke-miterlimit:10;}.cls-4{stroke:#1d1d1b;}.cls-8{fill:url(#Nouveau_motif);}</style><pattern id="Nouveau_motif" x="0" y="0" width="83.06" height="83.06" patternTransform="translate(2345.26 -456.68)" patternUnits="userSpaceOnUse" viewBox="0 0 83.06 83.06"><g><rect class="cls-1" width="83.06" height="83.06"/><circle class="cls-7" cx="62.3" cy="83.06" r="13.18"/><circle class="cls-7" cx="20.77" cy="83.06" r="13.18"/><circle class="cls-7" cx="83.06" cy="41.53" r="13.18"/><circle class="cls-7" cx="41.53" cy="41.53" r="13.18"/><circle class="cls-7" cx="0" cy="41.53" r="13.18"/><circle class="cls-7" cx="62.3" cy="0" r="13.18"/><circle class="cls-7" cx="20.77" cy="0" r="13.18"/></g></pattern><pattern id="MBY" x="0" y="0" width="74.42" height="72.26" patternTransform="translate(2345.26 -456.68)" patternUnits="userSpaceOnUse" viewBox="0 0 74.42 72.26"><g><rect class="cls-1" width="74.42" height="72.26"/><g id="motif1" transform="translate(-1115 -318)"><g id="Rectangle_1702" transform="translate(1115 318)"><rect class="cls-3" x="73.86" y="71.81" width="18.04" height="18.04"/></g></g><g id="motif1-2" transform="translate(-1115 -318)"><g id="Rectangle_1702-2" transform="translate(1115 318)"><rect class="cls-3" x="-.56" y="71.81" width="18.04" height="18.04"/></g><g id="Rectangle_1703" transform="translate(1131 318)"><rect class="cls-1" x="16.92" y="71.25" width="19.17" height="19.17"/><rect class="cls-3" x="17.48" y="71.81" width="18.04" height="18.04"/></g><g id="Rectangle_1704" transform="translate(1147 318)"><rect class="cls-1" x="34.96" y="71.25" width="20.29" height="19.17"/><rect class="cls-3" x="35.52" y="71.81" width="19.17" height="18.04"/></g><g id="Rectangle_1705" transform="translate(1164 318)"><rect class="cls-1" x="54.12" y="71.25" width="20.29" height="19.17"/><rect class="cls-3" x="54.69" y="71.81" width="19.17" height="18.04"/></g></g><g id="motif1-3" transform="translate(-1115 -318)"><g id="Rectangle_1702-3" transform="translate(1115 318)"><rect class="cls-3" x="73.86" y="-.45" width="18.04" height="18.04"/></g><g id="Rectangle_1706" transform="translate(1115 334)"><rect class="cls-1" x="73.3" y="17.02" width="19.17" height="19.17"/><rect class="cls-3" x="73.86" y="17.59" width="18.04" height="18.04"/></g><g id="Rectangle_1710" transform="translate(1115 350)"><rect class="cls-1" x="73.3" y="35.06" width="19.17" height="19.17"/><rect class="cls-3" x="73.86" y="35.62" width="18.04" height="18.04"/></g><g id="Rectangle_1714" transform="translate(1115 366)"><rect class="cls-1" x="73.3" y="53.1" width="19.17" height="19.17"/><rect class="cls-3" x="73.86" y="53.66" width="18.04" height="18.04"/></g></g><g><rect class="cls-3" x="-.56" y="-.45" width="18.04" height="18.04"/><g><rect class="cls-1" x="16.92" y="-1.02" width="19.17" height="19.17"/><rect class="cls-3" x="17.48" y="-.45" width="18.04" height="18.04"/></g><g><rect class="cls-1" x="34.96" y="-1.02" width="20.29" height="19.17"/><rect class="cls-3" x="35.52" y="-.45" width="19.17" height="18.04"/></g><g><rect class="cls-1" x="54.12" y="-1.02" width="20.29" height="19.17"/><rect class="cls-3" x="54.69" y="-.45" width="19.17" height="18.04"/></g><g><rect class="cls-1" x="-1.12" y="17.02" width="19.17" height="19.17"/><rect class="cls-3" x="-.56" y="17.59" width="18.04" height="18.04"/></g><g><rect class="cls-1" x="16.92" y="17.02" width="19.17" height="19.17"/><rect class="cls-3" x="17.48" y="17.59" width="18.04" height="18.04"/></g><g><rect class="cls-1" x="34.96" y="17.02" width="20.29" height="19.17"/><rect class="cls-3" x="35.52" y="17.59" width="19.17" height="18.04"/></g><g><rect class="cls-1" x="54.12" y="17.02" width="20.29" height="19.17"/><rect class="cls-3" x="54.69" y="17.59" width="19.17" height="18.04"/></g><g><rect class="cls-1" x="-1.12" y="35.06" width="19.17" height="19.17"/><rect class="cls-3" x="-.56" y="35.62" width="18.04" height="18.04"/></g><g><rect class="cls-1" x="16.92" y="35.06" width="19.17" height="19.17"/><rect class="cls-3" x="17.48" y="35.62" width="18.04" height="18.04"/></g><g><rect class="cls-1" x="34.96" y="35.06" width="20.29" height="19.17"/><rect class="cls-3" x="35.52" y="35.62" width="19.17" height="18.04"/></g><g><rect class="cls-1" x="54.12" y="35.06" width="20.29" height="19.17"/><rect class="cls-3" x="54.69" y="35.62" width="19.17" height="18.04"/></g><g><rect class="cls-1" x="-1.12" y="53.1" width="19.17" height="19.17"/><rect class="cls-3" x="-.56" y="53.66" width="18.04" height="18.04"/></g><g><rect class="cls-1" x="16.92" y="53.1" width="19.17" height="19.17"/><rect class="cls-3" x="17.48" y="53.66" width="18.04" height="18.04"/></g><g><rect class="cls-1" x="34.96" y="53.1" width="20.29" height="19.17"/><rect class="cls-3" x="35.52" y="53.66" width="19.17" height="18.04"/></g><g><rect class="cls-1" x="54.12" y="53.1" width="20.29" height="19.17"/><rect class="cls-3" x="54.69" y="53.66" width="19.17" height="18.04"/></g></g></g></pattern></defs><g id="debardeur"><path id="forme_debardeur" class="cls-1" d="M210.68,14.28v0Zm-.09-11.72c.11,4.02,.14,7.91,.09,11.67l.19-11.67h-.28Zm-146.66,.06c-.05,.51-.58,5.66-.66,13.54l.66-13.54Zm70.15,116.24s74.27,12.83,76.56-102.63c-9.27,11.59-33.32,34.37-74.53,34.37S72.09,27.95,63.27,16.19c-.29,30.11,6.05,99.9,70.81,102.67ZM210.68,14.28c0,.66-.03,1.3-.04,1.95v-.02l.04-1.93ZM63.94,2.56h0v0ZM227.09,6.76v.05l5.94,1.56-5.94-1.61ZM63.27,16.19v0h0Zm169.87,51.52c-1.28-16.38-1.48-35.93-.1-59.33,0,0-2.48,28.01,.1,59.33Zm40.97,83.86s-.39,2.74-1.03,7.33l1.03-7.33Zm-1.03,7.37v-.05c.64-4.59,1.03-7.33,1.03-7.33,0,0-34.48-.78-40.97-83.86-2.58-31.33-.1-59.33-.1-59.33l-5.94-1.56c-11.63,147.59,45.98,152.12,45.98,152.12Zm1.03-7.37c-28.23-6.87-37.98-47.59-40.97-83.86,6.49,83.08,40.97,83.86,40.97,83.86ZM210.87,2.56l-.28-.11s0,.07,0,.11h.28Zm62.75,418.08c-1.88-33.33-8.64-151.7-10.23-165.28-1.53-13.04,6.74-75.03,9.7-96.47v.05s-57.62-4.53-45.99-152.12l-13.91-3.65,4.32,1.2s8.13,117.82-69.16,120.76h-21.5C45.68,118.91,57.68,4.37,57.68,4.37l6.25-1.8h0l-22.17,5.81,6.15-1.61C59.56,154.41,1.69,158.94,1.69,158.94v-.03c2.85,21.38,10.78,82.96,9.24,95.99-1.6,13.58-8,132.35-9.78,165.75M41.76,8.38C48.82,128.27,14.74,147.78,3.92,150.95c10.88-3.17,45.16-22.69,37.84-142.58Zm6.15-1.61l-6.15,1.61C49.09,128.26,14.8,147.78,3.92,150.95c-2.01,.59-3.21,.61-3.21,.61h-.01s.38,2.75,.99,7.34v.03S59.56,154.41,47.91,6.76ZM1.16,420.66c-.29,5.51-.46,8.69-.46,8.69,0,0,141.93,14.15,273.41,0,0,0-.18-3.18-.49-8.69-149.82,11.55-267.65,.46-272.45,0Zm272.65-.02h-.2c.07,0,.13,0,.2,0Zm-272.65,0v.02c4.8,.46,122.63,11.55,272.45,0h0M64.23,2.56l-.03-.07-.26,.07h.29Zm-.3,.06l-.66,13.54v.03c8.82,11.76,32.25,34.41,72.83,34.41s65.26-22.78,74.53-34.37c.01-.65,.04-1.29,.04-1.95v-.05c.05-3.75,.02-7.64-.09-11.67h-.07c-1.33,2.33-24.31,41.31-74.28,41.31S65.13,4.34,64.23,2.56h-.29v.06ZM210.68,14.23v.05l-.03,1.93v.02c-2.3,115.46-76.57,102.63-76.57,102.63C69.31,116.09,62.98,46.3,63.27,16.19h0v-.03c.08-7.89,.61-13.03,.66-13.54v-.06l-6.25,1.8s-12,114.55,69.16,120.76h21.5C225.63,122.19,217.51,4.37,217.51,4.37l-4.32-1.2-2.32-.61-.19,11.67Z"/><path id="motif5" class="cls-5" d="M3.16,167.51l134.47,130.98m134.09-130.62l-134.09,130.62M10,230.63l127.63,123.76m126.57-122.78l-126.57,122.78" transform="translate(-1684 -307)"/><path id="motif4_colrond" class="cls-5" d="M235.78,423.27V117.82m-28.15,306.67V77.4m-28.16,347.97V115.71m-28.15,310.56V124.95m-27.72,301.32V125.13m-28.15,300.77V115.25m-28.16,309.4V79.67m-28.15,343.69V117.82M10.3,234.24v-77.92m0,265.12v-159.2m254.14-31.68v-74.24m0,265.02v-152.83"/><path id="motif4_colV" class="cls-5" d="M235.78,423.27V117.82m-28.15,306.67V62.43m-28.16,362.94V117.06m-28.15,309.21V136.61m-27.72,289.66V136.61m-28.15,289.28V115.25m-28.16,309.4V60.21m-28.15,363.14V117.82M10.3,234.24v-77.92m0,265.12v-159.2m254.14-31.68v-74.24m0,265.02v-152.83"/><path id="motif3_colV" class="cls-5" d="M109.28,128.17H34.84m204.98,0h-72.97m98.18,28.15H9.76m259.91,28.16H4.97m261.31,28.15H8.24m255.41,27.72H10.74m253.79,28.15H9.82m256.49,28.16H8.24m259.8,28.15H6.43m263.32,28.84H4.81m266.44,28.45l-268.12,1.93m269.87,25.93H1.73M62.92,43.21h-13.46m176.08,0h-13.18m-141.42,28.16h-22.81m178.49,0h-21.92m-120.6,28.15H44.29m186.39,0h-38.79"/><path id="motif3_colrond" class="cls-5" d="M239.82,128.17H34.84m230.19,28.15H9.76m259.91,28.16H4.97m261.31,28.15H8.24m255.41,27.72H10.74m253.79,28.15H9.82m256.49,28.16H8.24m259.8,28.15H6.43m263.32,28.84H4.81m266.44,28.45l-268.12,1.93m269.87,25.93H1.73M58.42,43.21h-8.95m176.08,0h-9.72m-151.49,28.16h-16.2m178.49,0h-16.92m-131.75,28.15H44.29m186.39,0h-34.55"/><path id="motif2_colV" class="cls-8" d="M273.61,420.64c-1.88-33.33-8.64-151.7-10.23-165.28-1.53-13.04,6.74-75.03,9.7-96.47v.05s-57.62-4.53-45.99-152.12l-9.58-2.45s-.17,117.2-80.28,136.86C63.26,126.59,57.68,4.37,57.68,4.37l-9.76,2.4C59.56,154.41,1.69,158.94,1.69,158.94v-.03c2.85,21.38,10.78,82.96,9.24,95.99-1.6,13.58-8,132.35-9.78,165.75,0,0,54.63,5.25,136.23,5.25s136.23-5.25,136.23-5.25Z"/><path id="motif2_colrond" class="cls-8" d="M273.61,420.64c-1.88-33.33-8.64-151.7-10.23-165.28-1.53-13.04,6.74-75.03,9.7-96.47v.05s-57.62-4.53-45.99-152.12l-9.58-2.45s8.13,117.82-69.16,120.76h-21.5C45.68,118.91,57.68,4.37,57.68,4.37l-9.76,2.4C59.56,154.41,1.69,158.94,1.69,158.94v-.03c2.85,21.38,10.78,82.96,9.24,95.99-1.6,13.58-8,132.35-9.78,165.75,0,0,54.63,5.25,136.23,5.25s136.23-5.25,136.23-5.25Z"/><path id="motif1_colV" class="cls-6" d="M273.61,420.64c-1.88-33.33-8.64-151.7-10.23-165.28-1.53-13.04,6.74-75.03,9.7-96.47v.05s-57.62-4.53-45.99-152.12l-9.58-2.45s-.17,117.2-80.28,136.86C63.26,126.59,57.68,4.37,57.68,4.37l-9.76,2.4C59.56,154.41,1.69,158.94,1.69,158.94v-.03c2.85,21.38,10.78,82.96,9.24,95.99-1.6,13.58-8,132.35-9.78,165.75,0,0,54.63,5.25,136.23,5.25s136.23-5.25,136.23-5.25Z"/><path id="motif1_colrond" class="cls-6" d="M273.61,420.64c-1.88-33.33-8.64-151.7-10.23-165.28-1.53-13.04,6.74-75.03,9.7-96.47v.05s-57.62-4.53-45.99-152.12l-9.58-2.45s8.13,117.82-69.16,120.76h-21.5C45.68,118.91,57.68,4.37,57.68,4.37l-9.76,2.4C59.56,154.41,1.69,158.94,1.69,158.94v-.03c2.85,21.38,10.78,82.96,9.24,95.99-1.6,13.58-8,132.35-9.78,165.75,0,0,54.63,5.25,136.23,5.25s136.23-5.25,136.23-5.25Z"/><path id="sans_coutures" class="cls-2" d="M210.7,16s-24.71,34.43-74.53,34.43S63.37,16.07,63.37,16.07l.57-13.31c.91,1.78,21.65,41.31,72.01,41.31S209.33,5.09,210.66,2.76l.04,13.24Zm52.75,239.31c-1.53-13.04,10.73-103.8,10.73-103.8,0,0-34.48-.78-40.97-83.86-1.28-16.38-1.48-35.93-.1-59.33l-22.45-5.92s.06,12.97,.05,13.6l.04-.04c-2.29,115.46-76.56,102.63-76.56,102.63C69.52,115.82,63.1,46.27,63.37,16.07c-.01-.02,.62-13.56,.62-13.56l-22.16,5.81C48.88,128.21,14.81,147.73,3.99,150.9c-2.01,.59-3.21,.61-3.21,.61h-.01s11.77,90.3,10.24,103.33c-1.6,13.58-10.24,174.45-10.24,174.45,0,0,141.93,14.15,273.41,0,0,0-9.13-160.4-10.73-173.98Z"/><path id="sans_coutures_fines" class="cls-2" d="M211.29,17.03s-24.71,34.43-74.53,34.43S63.96,17.1,63.96,17.1l.57-13.31c.91,1.78,21.65,41.31,72.01,41.31S209.93,6.12,211.26,3.79l.04,13.24Zm52.75,239.31c-1.53-13.04,10.73-103.8,10.73-103.8,0,0-39.28-.31-53.01-85.83-2.1-16.17-4.28-31.7-4.29-61.01l-6.55-1.79s.4,12.48,.39,13.12l.04-.04c-4.41,101.69-43.7,102.29-73.9,102.51-67.21,0-73.74-72.2-73.47-102.39-.01-.02,.62-13.56,.62-13.56l-6.66,1.68C56.07,126.66,15.07,146.96,4.59,151.12c-1.91,.76-3.55,1.01-3.55,1.01,0,0,12.1,90.71,10.56,103.73-1.6,13.58-10.24,174.45-10.24,174.45,0,0,141.93,14.15,273.41,0,0,0-9.13-160.4-10.73-173.98Z"/><path id="bretelles_fines" class="cls-5" d="M211.03,16.92l-.26-13s.34,5.04,.26,13Zm-147.47,.54l.25-13.43h0v-.11s-.36,5.27-.25,13.54ZM1.03,421.18c1.78-33.31,8.18-151.88,9.78-165.43,1.86-15.79-10.24-103.12-10.24-103.12h.01S55.98,144.77,57.47,5.71l6.34-1.79s-.36,5.27-.26,13.54v.18h0c.28,21.7,2.32,56.23,22.72,80.57,6.81,9.16,23.89,21.72,50.7,21.72,36.63,0,43.73-10.41,49.41-15.9,19.7-20.62,24.42-65.6,24.64-87.08h0v-.03c.08-7.96-.26-13-.26-13l6.55,1.79c.25,144.21,56.69,146.92,56.69,146.92,0,0-12.59,87.8-10.73,103.59,1.6,13.55,8.35,131.71,10.24,164.96-149.84,11.53-267.68,.46-272.49,0ZM214.05,49.87s1.28,42.19,18.1,74.51c11.73,22.52,34.27,36.41,39.95,38.24-5.68-1.82-28.23-15.72-39.95-38.24-16.81-32.32-18.1-74.51-18.1-74.51Zm-153.5-.44c-.09-.8-1.95,42.03-18.76,74.36C30.07,146.3,7.52,160.2,1.84,162.02c5.68-1.82,28.23-15.72,39.95-38.24,16.81-32.32,18.68-75.16,18.76-74.36,8.27,61.46,43.33,75.92,76.86,75.92,44.59,0,66.98-14.25,76.64-74.52M1.03,421.18c-.29,5.49-.46,8.67-.46,8.67,0,0,141.95,14.12,273.44,0,0,0-.18-3.18-.49-8.67-149.84,11.53-267.68,.46-272.49,0ZM211.03,16.92v.03h0v-.03Zm-147.47,.61h0Zm0,0v.12c6.89,9.16,29.17,34.33,72.43,34.33,46.3,0,70.48-28.83,75.03-34.51,0,0-.26-13.43-.26-13.43l-.28-.11s-22.83,41.34-74.35,41.34S64.07,3.96,64.07,3.96l-.26,.07-.25,13.47v.03Zm0-.07v.04l.25-13.47h0l-.25,13.43Zm0,.07v.11h0s0-.11,0-.11Z"/><path id="cache_colrond" class="cls-1" d="M65.2,0s25.74,37.72,72.79,41.11S209.63,0,209.63,0l11.26,3.75s9.17,131.84-83.95,124.24C42.27,127.99,55.26,2.62,55.26,2.62l9.94-2.62Z"/><path id="colV" class="cls-4" d="M137.22,141.23C61.97,123.47,57.47,4.26,57.47,4.26l6.53-1.71s8.82,121.9,73.43,131.57C205.9,124.2,210.87,2.51,210.87,2.51l6.47,1.75s-3.15,121.82-80.11,136.97ZM210.77,2.73l-.25-.17s-22.22,40.29-73.19,41.23c-52.62,.11-73.1-41.23-73.1-41.23l-.42,.17,1.98,15.92c8.82,11.88,30.41,31.3,71.47,31.94,41.36-.95,62.99-21.75,72.25-33.46l1.26-14.41Z"/><path id="col_boutons" class="cls-5" d="M125.63,125.13v79.52h22.64V125.13h-22.64Zm11.32,68.74c-2.92,0-5.29-2.37-5.29-5.29s2.37-5.29,5.29-5.29,5.29,2.37,5.29,5.29-2.37,5.29-5.29,5.29Zm0-23.68c-2.92,0-5.29-2.37-5.29-5.29s2.37-5.29,5.29-5.29,5.29,2.37,5.29,5.29-2.37,5.29-5.29,5.29Zm0-23.68c-2.92,0-5.29-2.37-5.29-5.29s2.37-5.29,5.29-5.29,5.29,2.37,5.29,5.29-2.37,5.29-5.29,5.29Zm5.29-5.29c0,2.92-2.37,5.29-5.29,5.29s-5.29-2.37-5.29-5.29,2.37-5.29,5.29-5.29,5.29,2.37,5.29,5.29Zm0,23.68c0,2.92-2.37,5.29-5.29,5.29s-5.29-2.37-5.29-5.29,2.37-5.29,5.29-5.29,5.29,2.37,5.29,5.29Zm0,23.68c0,2.92-2.37,5.29-5.29,5.29s-5.29-2.37-5.29-5.29,2.37-5.29,5.29-5.29,5.29,2.37,5.29,5.29Z"/><path id="poche" class="cls-5" d="M175.43,178.81h55.15v58.46c0,3.94-3.19,7.13-7.13,7.13h-40.88c-3.94,0-7.13-3.19-7.13-7.13v-58.46Zm0,13.44h55.15"/></g></svg>