<svg xmlns="http://www.w3.org/2000/svg" width="35.559" height="30.088" viewBox="0 0 35.559 30.088">
  <g id="Groupe_911" data-name="Groupe 911" transform="translate(-1811.721 -60.456)">
    <g id="heart1" transform="translate(1811.721 60.456)">
      <rect id="Rectangle_512" data-name="Rectangle 512" width="2.735" height="2.735" transform="translate(21.882 0)" fill="#040405"/>
      <rect id="Rectangle_513" data-name="Rectangle 513" width="2.735" height="2.735" transform="translate(16.412 5.47)" fill="#040405"/>
      <rect id="Rectangle_514" data-name="Rectangle 514" width="2.735" height="2.735" transform="translate(19.147 2.735)" fill="#040405"/>
      <rect id="Rectangle_515" data-name="Rectangle 515" width="2.735" height="2.735" transform="translate(24.617 0)" fill="#040405"/>
      <rect id="Rectangle_516" data-name="Rectangle 516" width="2.735" height="2.735" transform="translate(27.353 0)" fill="#040405"/>
      <rect id="Rectangle_517" data-name="Rectangle 517" width="2.735" height="2.735" transform="translate(30.088 2.735)" fill="#040405"/>
      <rect id="Rectangle_518" data-name="Rectangle 518" width="2.735" height="2.735" transform="translate(32.823 5.47)" fill="#040405"/>
      <rect id="Rectangle_519" data-name="Rectangle 519" width="2.735" height="2.735" transform="translate(32.823 8.206)" fill="#040405"/>
      <rect id="Rectangle_520" data-name="Rectangle 520" width="2.735" height="2.735" transform="translate(32.823 10.941)" fill="#040405"/>
      <rect id="Rectangle_521" data-name="Rectangle 521" width="2.735" height="2.735" transform="translate(30.088 13.676)" fill="#040405"/>
      <rect id="Rectangle_522" data-name="Rectangle 522" width="2.735" height="2.735" transform="translate(27.353 16.412)" fill="#040405"/>
      <rect id="Rectangle_523" data-name="Rectangle 523" width="2.735" height="2.735" transform="translate(24.617 19.147)" fill="#040405"/>
      <rect id="Rectangle_524" data-name="Rectangle 524" width="2.735" height="2.735" transform="translate(21.882 21.882)" fill="#040405"/>
      <rect id="Rectangle_525" data-name="Rectangle 525" width="2.735" height="2.735" transform="translate(19.147 24.617)" fill="#040405"/>
      <rect id="Rectangle_526" data-name="Rectangle 526" width="2.735" height="2.735" transform="translate(16.412 27.353)" fill="#040405"/>
      <rect id="Rectangle_527" data-name="Rectangle 527" width="2.735" height="2.735" transform="translate(10.941 0)" fill="#040405"/>
      <rect id="Rectangle_528" data-name="Rectangle 528" width="2.735" height="2.735" transform="translate(13.677 2.735)" fill="#040405"/>
      <rect id="Rectangle_529" data-name="Rectangle 529" width="2.735" height="2.735" transform="translate(8.206 0)" fill="#040405"/>
      <rect id="Rectangle_530" data-name="Rectangle 530" width="2.735" height="2.735" transform="translate(5.47 0)" fill="#040405"/>
      <rect id="Rectangle_531" data-name="Rectangle 531" width="2.735" height="2.735" transform="translate(2.735 2.735)" fill="#040405"/>
      <rect id="Rectangle_532" data-name="Rectangle 532" width="2.735" height="2.735" transform="translate(0 5.47)" fill="#040405"/>
      <rect id="Rectangle_533" data-name="Rectangle 533" width="2.735" height="2.735" transform="translate(0 8.206)" fill="#040405"/>
      <rect id="Rectangle_534" data-name="Rectangle 534" width="2.735" height="2.735" transform="translate(0 10.941)" fill="#040405"/>
      <rect id="Rectangle_535" data-name="Rectangle 535" width="2.735" height="2.735" transform="translate(2.735 13.676)" fill="#040405"/>
      <rect id="Rectangle_536" data-name="Rectangle 536" width="2.735" height="2.735" transform="translate(5.47 16.412)" fill="#040405"/>
      <rect id="Rectangle_537" data-name="Rectangle 537" width="2.735" height="2.735" transform="translate(8.206 19.147)" fill="#040405"/>
      <rect id="Rectangle_538" data-name="Rectangle 538" width="2.735" height="2.735" transform="translate(10.941 21.882)" fill="#040405"/>
      <rect id="Rectangle_539" data-name="Rectangle 539" width="2.735" height="2.735" transform="translate(13.677 24.617)" fill="#040405"/>
      <path id="Tracé_152" data-name="Tracé 152" d="M5.556,16.5V8.291H8.291V5.556H16.5V8.291h2.735v2.735h2.735V8.291H24.7V5.556h8.206V8.291h2.735V16.5H32.909v2.735H30.174v2.735H27.438V24.7H24.7v2.735H21.967v2.735H19.232V27.438H16.5V24.7H13.762V21.967H11.026V19.232H8.291V16.5Z" transform="translate(-2.82 -2.82)" fill="#fff"/>
    </g>
  </g>
</svg>
