<?xml version="1.0" encoding="UTF-8"?><svg id="Calque_2" xmlns="http://www.w3.org/2000/svg" viewBox="0 0 72.22 61.11"><defs><style>.cls-1{fill:#fff;}</style></defs><g id="coeur4"><g><polygon class="cls-1" points="5.56 27.61 5.56 10.94 11.11 10.94 11.11 5.39 27.78 5.39 27.78 10.94 33.33 10.94 33.33 16.5 38.89 16.5 38.89 10.94 44.45 10.94 44.45 5.39 61.11 5.39 61.11 10.94 66.67 10.94 66.67 27.61 61.11 27.61 61.11 33.17 55.56 33.17 55.56 38.72 50 38.72 50 44.28 44.45 44.28 44.45 49.83 38.89 49.83 38.89 55.39 33.33 55.39 33.33 49.83 27.78 49.83 27.78 44.28 22.22 44.28 22.22 38.72 16.67 38.72 16.67 33.17 11.11 33.17 11.11 27.61 5.56 27.61"/><g><rect x="44.45" y="0" width="5.56" height="5.56"/><rect x="33.33" y="11.11" width="5.56" height="5.56"/><rect x="38.89" y="5.56" width="5.56" height="5.56"/><rect x="50" y="0" width="5.56" height="5.56"/><rect x="55.56" y="0" width="5.56" height="5.56"/><rect x="61.11" y="5.56" width="5.56" height="5.56"/><rect x="66.67" y="11.11" width="5.56" height="5.56"/><rect x="66.67" y="16.67" width="5.56" height="5.56"/><rect x="66.67" y="22.22" width="5.56" height="5.56"/><rect x="61.11" y="27.78" width="5.56" height="5.56"/><rect x="55.56" y="33.33" width="5.56" height="5.56"/><rect x="50" y="38.89" width="5.56" height="5.56"/><rect x="44.45" y="44.45" width="5.56" height="5.56"/><rect x="38.89" y="50" width="5.56" height="5.56"/><rect x="33.33" y="55.56" width="5.56" height="5.56"/><rect x="22.22" y="0" width="5.56" height="5.56" transform="translate(50 5.56) rotate(-180)"/><rect x="27.78" y="5.56" width="5.56" height="5.56" transform="translate(61.11 16.67) rotate(-180)"/><rect x="16.67" y="0" width="5.56" height="5.56" transform="translate(38.89 5.56) rotate(-180)"/><rect x="11.11" y="0" width="5.56" height="5.56" transform="translate(27.78 5.56) rotate(-180)"/><rect x="5.56" y="5.56" width="5.56" height="5.56" transform="translate(16.67 16.67) rotate(-180)"/><rect x="0" y="11.11" width="5.56" height="5.56" transform="translate(5.56 27.78) rotate(-180)"/><rect x="0" y="16.67" width="5.56" height="5.56" transform="translate(5.56 38.89) rotate(-180)"/><rect x="0" y="22.22" width="5.56" height="5.56" transform="translate(5.56 50) rotate(-180)"/><rect x="5.56" y="27.78" width="5.56" height="5.56" transform="translate(16.67 61.11) rotate(-180)"/><rect x="11.11" y="33.33" width="5.56" height="5.56" transform="translate(27.78 72.22) rotate(-180)"/><rect x="16.67" y="38.89" width="5.56" height="5.56" transform="translate(38.89 83.34) rotate(-180)"/><rect x="22.22" y="44.45" width="5.56" height="5.56" transform="translate(50 94.45) rotate(-180)"/><rect x="27.78" y="50" width="5.56" height="5.56" transform="translate(61.11 105.56) rotate(-180)"/></g><polygon points="61.11 22.22 55.56 22.22 50 22.22 44.45 22.22 38.89 22.22 33.33 22.22 27.78 22.22 22.22 22.22 16.67 22.22 11.11 22.22 5.56 22.22 5.56 27.78 11.11 27.78 11.11 33.33 16.67 33.33 16.67 38.89 22.22 38.89 22.22 44.45 27.78 44.45 27.78 50 33.33 50 33.33 55.56 38.89 55.56 38.89 50 44.45 50 44.45 44.45 50 44.45 50 38.89 55.56 38.89 55.56 33.33 61.11 33.33 61.11 27.78 66.67 27.78 66.67 22.22 61.11 22.22"/></g></g></svg>