<?xml version="1.0" encoding="UTF-8"?><svg id="Calque_2" xmlns="http://www.w3.org/2000/svg" viewBox="0 0 72.22 61.11"><defs><style>.cls-1{fill:#fff;}</style></defs><g id="coeur2"><g><polygon class="cls-1" points="5.56 27.93 5.56 11.26 11.11 11.26 11.11 5.7 27.78 5.7 27.78 11.26 33.33 11.26 33.33 16.82 38.89 16.82 38.89 11.26 44.45 11.26 44.45 5.7 61.11 5.7 61.11 11.26 66.67 11.26 66.67 27.93 61.11 27.93 61.11 33.48 55.56 33.48 55.56 39.04 50 39.04 50 44.59 44.45 44.59 44.45 50.15 38.89 50.15 38.89 55.71 33.33 55.71 33.33 50.15 27.78 50.15 27.78 44.59 22.22 44.59 22.22 39.04 16.67 39.04 16.67 33.48 11.11 33.48 11.11 27.93 5.56 27.93"/><g><rect x="44.45" y="0" width="5.56" height="5.56"/><rect x="33.33" y="11.11" width="5.56" height="5.56"/><rect x="38.89" y="5.56" width="5.56" height="5.56"/><rect x="50" y="0" width="5.56" height="5.56"/><rect x="55.56" y="0" width="5.56" height="5.56"/><rect x="61.11" y="5.56" width="5.56" height="5.56"/><rect x="66.67" y="11.11" width="5.56" height="5.56"/><rect x="66.67" y="16.67" width="5.56" height="5.56"/><rect x="66.67" y="22.22" width="5.56" height="5.56"/><rect x="61.11" y="27.78" width="5.56" height="5.56"/><rect x="55.56" y="33.33" width="5.56" height="5.56"/><rect x="50" y="38.89" width="5.56" height="5.56"/><rect x="44.45" y="44.45" width="5.56" height="5.56"/><rect x="38.89" y="50" width="5.56" height="5.56"/><rect x="33.33" y="55.56" width="5.56" height="5.56"/><rect x="22.22" y="0" width="5.56" height="5.56" transform="translate(50 5.56) rotate(-180)"/><rect x="27.78" y="5.56" width="5.56" height="5.56" transform="translate(61.11 16.67) rotate(-180)"/><rect x="16.67" y="0" width="5.56" height="5.56" transform="translate(38.89 5.56) rotate(-180)"/><rect x="11.11" y="0" width="5.56" height="5.56" transform="translate(27.78 5.56) rotate(-180)"/><rect x="5.56" y="5.56" width="5.56" height="5.56" transform="translate(16.67 16.67) rotate(-180)"/><rect x="0" y="11.11" width="5.56" height="5.56" transform="translate(5.56 27.78) rotate(-180)"/><rect x="0" y="16.67" width="5.56" height="5.56" transform="translate(5.56 38.89) rotate(-180)"/><rect x="0" y="22.22" width="5.56" height="5.56" transform="translate(5.56 50) rotate(-180)"/><rect x="5.56" y="27.78" width="5.56" height="5.56" transform="translate(16.67 61.11) rotate(-180)"/><rect x="11.11" y="33.33" width="5.56" height="5.56" transform="translate(27.78 72.22) rotate(-180)"/><rect x="16.67" y="38.89" width="5.56" height="5.56" transform="translate(38.89 83.34) rotate(-180)"/><rect x="22.22" y="44.45" width="5.56" height="5.56" transform="translate(50 94.45) rotate(-180)"/><rect x="27.78" y="50" width="5.56" height="5.56" transform="translate(61.11 105.56) rotate(-180)"/></g><polygon points="38.89 44.45 33.33 44.45 27.78 44.45 27.78 50 33.33 50 33.33 55.56 38.89 55.56 38.89 50 44.45 50 44.45 44.45 38.89 44.45"/></g></g></svg>