<?xml version="1.0" encoding="UTF-8"?><svg xmlns="http://www.w3.org/2000/svg" viewBox="0 0 503.67 456.42"><defs><style>.d{fill:#fff;stroke:#000;stroke-miterlimit:10;}</style></defs><g id="a"/><g id="b"><g id="c"><path class="d" d="M213.57,17.09v-.03m172.7,163.5c.16,1.34,.32,2.69,.49,4.04,0,0-3.41,87.73-.42,122.41l6.58,148.9H236.09v-16.2h0V139.66l55.93-45.33-9.08-20.49,33.8,18.17s10.09-58.32-.01-66.46l79.72,18.63s-1.38,4.46-3.23,12.44c-13.98,57.41-8.85,109.4-6.95,123.95Zm-129.89,217.37c0-3.26-2.65-5.91-5.91-5.91s-5.91,2.65-5.91,5.91,2.65,5.91,5.91,5.91,5.91-2.65,5.91-5.91Zm0-64.59c0-3.26-2.65-5.91-5.91-5.91s-5.91,2.65-5.91,5.91,2.65,5.91,5.91,5.91,5.91-2.65,5.91-5.91Zm0-61.17c0-3.26-2.65-5.91-5.91-5.91s-5.91,2.65-5.91,5.91,2.65,5.91,5.91,5.91,5.91-2.65,5.91-5.91Zm0-56.32c0-3.26-2.65-5.91-5.91-5.91s-5.91,2.65-5.91,5.91,2.65,5.91,5.91,5.91,5.91-2.65,5.91-5.91Zm0-62.38c0-3.26-2.65-5.91-5.91-5.91s-5.91,2.65-5.91,5.91,2.65,5.91,5.91,5.91,5.91-2.65,5.91-5.91ZM111.38,439.72l-.72,16.2h125.43v-16.2H111.38Zm124.71,0H111.38l5.86-132.7c2.99-34.68-.42-122.41-.42-122.41,0,0,11.41-67.78-9.69-140.44l79.72-18.63,20.45-16.46c4.91-3.95,10.83-6.47,17.09-7.22,12.44-1.49,27.4-1.34,27.4-1.34,0,0,17.74-.28,30.65,1.79,4.45,.71,8.63,2.58,12.14,5.41l22.14,17.83c10.11,8.14,.01,66.46,.01,66.46l-33.8-18.17,9.08,20.49-55.45,44.94c-.11,.09-.28-.03-.22-.16,4.19-8.7,56.51-117.53,53.82-126.97-1.43-7.4-9.47-10.09-9.47-10.09,0,0,8.04,2.7,9.47,10.09,2.8,9.84-54.09,127.52-54.09,127.52V439.72Zm13.59-329.47l.14,.49s-28.18-61.51-35.64-83.51S224.39,1.85,224.39,1.85m-40.07,89.84s-7.55-58.71,2.91-66.4c-10.45,7.69-2.91,66.4-2.91,66.4l34.56-16.68-9.97,20.08,35.64,26.79-35.64-26.79,9.97-20.08-34.56,16.68Zm310.56,84.93l-82.04,48.69,9.54,14.94,80.62-49.53s-3.04-5.4-8.12-14.1ZM396.53,44.17c-1.21,4.17-2.31,8.32-3.31,12.44-4.98,21.58-13.34,68.97-6.95,123.95,.34,2.63,.58,4.04,.58,4.04l25.99,40.71,82.04-48.69c-21.26-36.43-78.3-131.04-98.35-132.46Zm-3.31,12.44c-13.98,57.41-8.85,109.4-6.95,123.95-6.39-54.99,1.97-102.37,6.95-123.95Zm0,0c-13.98,57.41-8.85,109.4-6.95,123.95-6.39-54.99,1.97-102.37,6.95-123.95ZM107.14,44.17c-19.47,0-77.01,95.73-98.37,132.45l82.06,48.7L8.77,176.61c-5.07,8.71-8.1,14.11-8.1,14.11l80.62,49.53,35.53-55.65c10.97-76.31-9.69-140.44-9.69-140.44Zm143.33,222.09c-3.26,0-5.91,2.65-5.91,5.91s2.65,5.91,5.91,5.91,5.91-2.65,5.91-5.91-2.65-5.91-5.91-5.91Zm0,0c-3.26,0-5.91,2.65-5.91,5.91s2.65,5.91,5.91,5.91,5.91-2.65,5.91-5.91-2.65-5.91-5.91-5.91Zm0-56.32c-3.26,0-5.91,2.65-5.91,5.91s2.65,5.91,5.91,5.91,5.91-2.65,5.91-5.91-2.65-5.91-5.91-5.91Zm0,0c-3.26,0-5.91,2.65-5.91,5.91s2.65,5.91,5.91,5.91,5.91-2.65,5.91-5.91-2.65-5.91-5.91-5.91Zm0-62.38c-3.26,0-5.91,2.65-5.91,5.91s2.65,5.91,5.91,5.91,5.91-2.65,5.91-5.91-2.65-5.91-5.91-5.91Zm0,0c-3.26,0-5.91,2.65-5.91,5.91s2.65,5.91,5.91,5.91,5.91-2.65,5.91-5.91-2.65-5.91-5.91-5.91Zm0,179.86c-3.26,0-5.91,2.65-5.91,5.91s2.65,5.91,5.91,5.91,5.91-2.65,5.91-5.91-2.65-5.91-5.91-5.91Zm0,0c-3.26,0-5.91,2.65-5.91,5.91s2.65,5.91,5.91,5.91,5.91-2.65,5.91-5.91-2.65-5.91-5.91-5.91Zm0,64.59c-3.26,0-5.91,2.65-5.91,5.91s2.65,5.91,5.91,5.91,5.91-2.65,5.91-5.91-2.65-5.91-5.91-5.91Zm0,0c-3.26,0-5.91,2.65-5.91,5.91s2.65,5.91,5.91,5.91,5.91-2.65,5.91-5.91-2.65-5.91-5.91-5.91Z"/></g></g></svg>