<?xml version="1.0" encoding="UTF-8"?><svg id="Calque_2" xmlns="http://www.w3.org/2000/svg" viewBox="0 0 95.65 126.22"><defs><style>.cls-1{fill:#fff;stroke:#1d1d1b;stroke-miterlimit:10;}</style></defs><g id="sanscouture_polo"><path id="sanscouture_polo-2" class="cls-1" d="M37.21,24.56c-.27-1.06-.56-2.13-.86-3.21,.3,.91,.58,1.99,.86,3.21Zm53.52,25.38V20.73l-9.24,7.99-16.43-17.8-28.76,10.27,.02,.05h0s.02,.08,.03,.12c.3,.91,.58,1.99,.86,3.21,6.05,23.55,5.06,41.32,4.74,45.23,1.06,17.75,.86,14.76,.86,16.41,0,3.42-4.8,36.7-4.8,36.7,12.09,2.92,55.75,2.82,57.14,2.82V49.94h-4.42Zm-48.86,20.66c.32-3.91,1.38-22.49-4.67-46.04m-.89-3.33h0s.03,.08,.04,.12c-.01-.04-.02-.08-.03-.12Zm56.78,17.41c0-1.14,.91-2.06,2.05-2.08v-6.34c-1.13-.02-2.05-.94-2.05-2.08s.91-2.06,2.05-2.08v-7.4h-2.05l-2.37,2.05v29.22h4.42v-9.23c-1.13-.02-2.05-.94-2.05-2.08Zm0-10.49c0,1.14,.91,2.06,2.05,2.08v-4.15c-1.13,.02-2.05,.94-2.05,2.08Zm0,10.49c0,1.14,.91,2.06,2.05,2.08v-4.15c-1.13,.02-2.05,.94-2.05,2.08Zm-55.89-14.08c-.27-1.06-.56-2.13-.86-3.21-.01-.04-.03-.08-.04-.12-.12,0-3.31-.15-9.06,7.23C21.39,35.98,.67,68.57,.67,68.57l2.17-3.39-2.17,3.39,26.52,20.53,14.69-18.85M93.1,18.68L73.79,1.28s0,0,0-.01c-.03-.02-.04-.03-.04-.03-.91,0-8.69,9.67-8.69,9.67l16.43,17.8m0,0l9.24-7.99m0,0l2.37-2.05m2.05-13.56c-9.53-.04-15.24,.39-16.34,.49,2.87,2.57,7.34,6.63,14.29,13.08h2.05V5.11Zm-21.32-3.88h-.02s-.02,.02-.02,.03c.06,.04,.21,.15,.51,.4l-.47-.43Zm19.28,17.44c-6.96-6.44-11.43-10.51-14.29-13.08-.13,.01-.2,.02-.2,.02l-4.31-3.95c-.3-.25-.45-.36-.51-.4,0,0,0,0,0,.01l19.31,17.39ZM95.15,.5c-6.42,0-13.77,.17-21.33,.72,0,0,0,0,0,.01h0c.91-.06,9.83-.68,21.32-.72h0Zm-16.34,5.09c1.1-.09,6.8-.53,16.34-.49V.51c-11.49,.04-20.41,.66-21.32,.73l.47,.43c.62,.51,1.9,1.6,4.51,3.93Zm-.2,.02s.07,0,.2-.02c-2.61-2.33-3.89-3.43-4.51-3.93l4.31,3.95Z"/></g></svg>