<?xml version="1.0" encoding="UTF-8"?><svg id="Calque_2" xmlns="http://www.w3.org/2000/svg" viewBox="0 0 86.61 126.78"><defs><style>.cls-1{fill:#fff;stroke:#1d1d1b;stroke-miterlimit:10;}</style></defs><g id="sanscouture_chemise"><path id="sanscouture_chemise-2" class="cls-1" d="M43.02,34.78c-.48-3.94-1.08-7.4-1.65-10.22,.73,3.51,1.26,6.93,1.65,10.22Zm.06,.53c-.02-.18-.04-.35-.06-.53,.02,.17,.04,.35,.06,.53Zm-3.78-19.08c.81,2.81,1.49,5.59,2.06,8.33-1.07-5.25-2.06-8.33-2.06-8.33Zm4.06,46.51c1.06-10.26,.62-19.73-.28-27.42,1.36,11.89,.81,21.94,.28,27.42Zm-.55,4.45s.27-1.61,.55-4.45c-.15,1.47-.33,2.95-.55,4.45Zm.26-31.88h0ZM81.86,.88s-6.41,1.23-3.71,9.21c1.43,4.21,4.94,12.4,7.95,19.21V.53c-1.38,.07-2.86,.18-4.25,.35Zm4.25,50.01v-8.76l-9.86-7.41,3.62-7.29-12.54,6.05s-2.74-21.3,1.05-24.1c-3.79,2.79-1.05,24.1-1.05,24.1l12.54-6.05-3.62,7.29,9.86,7.41v-12.83c-3.01-6.81-6.52-15-7.95-19.21-2.71-7.98,3.71-9.21,3.71-9.21-2.27,.27-4.42,1.19-6.2,2.62l-7.42,5.97-28.93,6.76s.99,3.08,2.06,8.33c.73,3.51,1.26,6.93,1.65,10.22,.02,.17,.04,.35,.06,.53h0c.9,7.7,1.34,17.18,.28,27.43-.28,2.84-.55,4.45-.55,4.45,0,0,2.25,15.31,1.16,27.89l-1.63,25.31-.32,5.88h44.07V50.89Zm-43.02-15.56h0c-.02-.18-.04-.36-.06-.54-.48-3.94-1.08-7.4-1.65-10.22-.57-2.74-1.25-5.52-2.06-8.33-7.07,0-27.95,34.74-35.7,48.06-1.84,3.16-2.94,5.12-2.94,5.12l29.26,17.98,12.89-20.2c.22-1.5,.4-2.98,.55-4.45,.53-5.48,1.08-15.54-.28-27.42Z"/></g></svg>