<?xml version="1.0" encoding="UTF-8"?><svg xmlns="http://www.w3.org/2000/svg" viewBox="0 0 454.24 434.28"><defs><style>.e{fill:#fff;stroke:#3d3d3d;stroke-miterlimit:10;}</style></defs><g id="a"/><g id="b"><g id="c"><path class="e" d="M362.95,173.65s-13.2,46.88-5.94,94.41c7.26,47.54,7.92,165.72,7.92,165.72H89.31s.66-118.18,7.92-165.72c7.26-47.54-5.94-94.41-5.94-94.41l-44.24,9.24L.65,75.27,97.89,26.41,171.84,.6c13.87,20.4,55.28,19.21,55.28,19.21,0,0,41.42,1.19,55.28-19.21l73.95,25.82,97.25,48.86-46.41,107.62-44.24-9.24Zm-271.66,0l6.6-5.68c31.31-32.39,0-141.55,0-141.55M171.84,.6s0,54.82,55.28,54.6m-52.05-35.91s16.33,14.44,52.05,14.41M157.77,5.51s3.07,65.21,69.35,65.32M356.35,26.41s-31.31,109.17,0,141.55l6.6,5.68M227.12,55.2c54.33,0,55.28-54.6,55.28-54.6m-55.28,33.1c35.7,0,51.5-13.97,51.5-13.97m-51.5,51.1c66.28-.11,69.35-65.32,69.35-65.32"/></g><g id="d"><path class="e" d="M262.41,115.88h55.15v58.46c0,3.94-3.19,7.13-7.13,7.13h-40.88c-3.94,0-7.13-3.19-7.13-7.13v-58.46Zm0,13.44h55.15"/></g></g></svg>